<svg xmlns="http://www.w3.org/2000/svg" data-name="Layer 1" viewBox="0 0 128 160" x="0px" y="0px"><title>miscellaneous 305 solid</title><path d="M94.33051,53.99951l16.88507-13.57483a5.62842,5.62842,0,0,0,1.468-2.05994,4.72422,4.72422,0,0,0-.16113-3.77393c-1.37646-3.15039-5.7876-6.44238-11.51221-8.59131-5.70459-2.14117-12.06427-2.80579-15.33661-.72083a1.98235,1.98235,0,0,0-.60968.32776L49.6311,54.092a11.11469,11.11469,0,0,1,1.39429-.09247H64.07281l2.59174-2.0835a1.99561,1.99561,0,0,1,3.17731,2.0835ZM97.834,41.06592,94.7124,43.57568a2.00007,2.00007,0,0,1-2.50684-3.11719l1.67163-1.344c.53064.22968,1.071.45264,1.62817.66187.888.33331,1.79218.62781,2.69824.88513A1.97982,1.97982,0,0,1,97.834,41.06592ZM87.53516,28.92383c.19189-.46973,1.47852-.92334,3.6001-.92334A24.677,24.677,0,0,1,99.605,29.74463h-.00049c5.28906,1.98535,8.50391,4.73389,9.25244,6.44775a1.04167,1.04167,0,0,1,.12354.65967c-.38086.93359-5.0835,1.80176-12.06934-.8208-5.28955-1.98584-8.50391-4.73437-9.25244-6.44824A1.04033,1.04033,0,0,1,87.53516,28.92383Zm-3.68311,9.17432,3.51862-2.82861A24.33962,24.33962,0,0,0,90.84,37.61218l-4.48212,3.60315a1.99976,1.99976,0,0,1-2.50586-3.11719ZM81.27,49.25l4.68359-3.76562a2.00007,2.00007,0,1,1,2.50684,3.11719l-4.68359,3.76563A2.00007,2.00007,0,0,1,81.27,49.25ZM72.9165,46.88965l4.68359-3.76514A1.99976,1.99976,0,0,1,80.106,46.2417l-4.68359,3.76514a1.99976,1.99976,0,1,1-2.50586-3.11719Z"/><path d="M5.5459,76.14648A20.211,20.211,0,0,0,22.98047,86h56.0528a4.43694,4.43694,0,0,0,.80664-.0741,5.1004,5.1004,0,0,0,3.88129-3.66223c.9082-3.3252-.45508-8.665-3.55762-13.93555-2.30121-3.90973-5.3985-7.40112-8.44165-9.12775A8.59622,8.59622,0,0,0,67.98584,58H7.02539A6.96381,6.96381,0,0,0,.90283,61.50928a6.67811,6.67811,0,0,0,.03369,6.769ZM67.50244,62.73975a1.04846,1.04846,0,0,1,.32666-.604.62787.62787,0,0,1,.30322-.06445c1.31152,0,5.124,2.40723,8.584,8.28613,2.86768,4.87109,3.64111,9.04,3.146,10.85156a1.05489,1.05489,0,0,1-.32617.60449c-.88916.48535-5.09912-1.78418-8.88818-8.22168C67.78027,68.71973,67.00732,64.55127,67.50244,62.73975Zm-.30176,12.88135c.48236.81934,1.003,1.61713,1.54736,2.38831a1.97866,1.97866,0,0,1-.54395.08435H64.19043a2,2,0,0,1,0-4h2.1748C66.632,74.60248,66.90094,75.11176,67.20068,75.62109ZM59.16895,67.001h4.55713a24.21919,24.21919,0,0,0,1.21857,4h-5.7757a2,2,0,0,1,0-4Zm-1.0166,9.09277a2.0001,2.0001,0,0,1-2,2H50.13086a2,2,0,0,1,0-4h6.02148A2.0001,2.0001,0,0,1,58.15234,76.09375ZM45.10938,67.001h6.022a2,2,0,0,1,0,4h-6.022a2,2,0,0,1,0-4Zm-1.0166,9.09277a2.0001,2.0001,0,0,1-2,2h-6.022a2,2,0,0,1,0-4h6.022A2.0001,2.0001,0,0,1,44.09277,76.09375ZM31.04932,67.001h6.022a2,2,0,0,1,0,4h-6.022a2,2,0,0,1,0-4Zm-1.0166,9.09277a2.0001,2.0001,0,0,1-2,2h-6.022a2,2,0,0,1,0-4h6.022A2.0001,2.0001,0,0,1,30.03271,76.09375ZM16.98926,67.001h6.022a2,2,0,0,1,0,4h-6.022a2,2,0,0,1,0-4Zm-1.0166,9.09277a2.0001,2.0001,0,0,1-2,2h-6.022a2,2,0,1,1,0-4h6.022A2.0001,2.0001,0,0,1,15.97266,76.09375ZM3.93018,67.001h5.021a2,2,0,1,1,0,4h-5.021a2,2,0,0,1,0-4Z"/><path d="M123.05487,85.99774c.03754-.0473.084-.091.12531-.13684.03339.00067.06781.00726.10107.00726a4.45556,4.45556,0,0,0,2.19043-.55566,4.74564,4.74564,0,0,0,2.249-3.04883c.90869-3.3252-.4541-8.665-3.55713-13.93652C120.68353,62.41516,115.62744,58,111.26849,58c-.01166-.05652-34.3822-.00049-34.3822-.00049a33.80238,33.80238,0,0,1,6.72455,8.30029v-.001A36.643,36.643,0,0,1,86.35327,72H99.98584a6.02345,6.02345,0,0,1,1.21411.12317c5.35187.66,10.75427,5.9624,14.41089,12.17566v-.001c.3338.56714.643,1.13489.94037,1.70215h6.482ZM95.13135,70h-6.022a2,2,0,0,1,0-4h6.022a2,2,0,1,1,0,4Zm8.0376,0a2,2,0,0,1,0-4h4.36572a21.7152,21.7152,0,0,0,1.02539,4Zm11.479,3.5918c-2.86768-4.87207-3.64062-9.041-3.14551-10.85254a1.04846,1.04846,0,0,1,.32666-.604.62655.62655,0,0,1,.30322-.06445c1.311,0,5.12354,2.40674,8.584,8.28564,2.86816,4.87207,3.64111,9.041,3.146,10.85254a1.04923,1.04923,0,0,1-.32666.60352C122.6499,82.30664,118.437,80.0293,114.64795,73.5918Z"/><path d="M111.82336,103.83643a4.39219,4.39219,0,0,0,1.64832-.52393,4.74564,4.74564,0,0,0,2.249-3.04883c.90869-3.3252-.4541-8.665-3.55713-13.93652C108.64758,80.35376,103.875,76,99.13678,76c-.014-.06567-11.60638,0-11.60638,0a15.80843,15.80843,0,0,1,.04919,7.31738,8.81439,8.81439,0,0,1-4.1709,5.49609,8.53282,8.53282,0,0,1-2.68317.94037A5.993,5.993,0,0,1,79.0332,90H35.11737l2.42853,4.14551A20.21246,20.21246,0,0,0,54.98047,104H111.0332A1.98949,1.98949,0,0,0,111.82336,103.83643ZM45.97266,96h-6.022a2,2,0,1,1,0-4h6.022a2,2,0,0,1,0,4Zm14.06006,0h-6.022a2,2,0,0,1,0-4h6.022a2,2,0,0,1,0,4Zm14.06006,0h-6.022a2,2,0,0,1,0-4h6.022a2,2,0,0,1,0,4Zm14.05957,0H82.13086a2,2,0,0,1,0-4h6.02148a2,2,0,0,1,0,4Zm1.0166-10a2.0001,2.0001,0,0,1,2-2h4.36572a21.71521,21.71521,0,0,0,1.02539,4H91.16895A2.0001,2.0001,0,0,1,89.16895,86ZM100.2041,96H96.19043a2,2,0,0,1,0-4H98.3139c.281.53979.5686,1.08051.88678,1.62109.46619.79187.968,1.56372,1.49231,2.311A1.9746,1.9746,0,0,1,100.2041,96Zm2.44385-4.4082c-2.86768-4.87207-3.64062-9.041-3.14551-10.85254a1.05489,1.05489,0,0,1,.32617-.60449.63564.63564,0,0,1,.30371-.06445c1.31055,0,5.124,2.40723,8.584,8.28613,2.86816,4.87207,3.64111,9.041,3.146,10.85254a1.04923,1.04923,0,0,1-.32666.60352C110.64746,100.31055,106.437,98.0293,102.64795,91.5918Z"/><text x="0" y="143" fill="#000000" font-size="5px" font-weight="bold" font-family="'Helvetica Neue', Helvetica, Arial-Unicode, Arial, Sans-serif">Created by WEBTECHOPS LLP</text><text x="0" y="148" fill="#000000" font-size="5px" font-weight="bold" font-family="'Helvetica Neue', Helvetica, Arial-Unicode, Arial, Sans-serif">from the Noun Project</text></svg>