<svg xmlns="http://www.w3.org/2000/svg" version="1.1" viewBox="0 0 100 100">
 <path d="m6.6562 78.906c1.125 2.8438 1.3125 5.7812 0.53125 8.9375-0.40625 1.75 0.15625 3.5625 1.5 4.75 0.875 0.75 1.9688 1.1562 3.0938 1.1562 0.59375 0 1.1875-0.125 1.75-0.34375 3.125-1.2188 6.1875-2.6875 9.2188-4.2188 2.875 2.4688 6.8438 4 10.938 4 1.0938 0 2.2188-0.09375 3.3125-0.34375 6.5938-1.375 12.781-3.5312 18.438-6.4062l-6.2812-6.2812c-1.2188-1.2188-1.2188-3.1875 0-4.4062s3.2188-1.2188 4.4375 0l7.5312 7.5312c3.5938-2.25 6.9688-4.7812 10.062-7.625l-6.5312-6.5625c-1.25-1.2188-1.25-3.1875 0-4.4062 1.2188-1.2188 3.1875-1.2188 4.4062 0l6.5625 6.5625c2.8438-3.0938 5.375-6.4375 7.5938-10.062l-7.5312-7.5312c-1.2188-1.25-1.2188-3.2188 0-4.4375s3.1875-1.2188 4.4062 0l6.3125 6.3125c2.8438-5.6875 5.0312-11.875 6.4062-18.5 1.0938-5.1562-0.53125-10.562-3.6562-14.219 1.5312-3 2.9688-6.0625 4.1875-9.1875 0.65625-1.6562 0.34375-3.5-0.84375-4.8125-1.1875-1.375-3-1.9375-4.75-1.5-3 0.75-5.9375 0.5-8.9688-0.71875-1.7812-0.71875-3.8125-0.28125-5.125 1.125-1.375 1.4375-1.7188 3.5312-0.875 5.3438 0.96875 2.0312 1.9062 4.1875 2.8125 6.3438-0.375 0.15625-0.71875 0.28125-1.0625 0.5-2.7812 1.6875-4.8125 4.6562-5.5625 8.1875-2.2188 10.594-7.1562 19.719-14.188 26.719-7.0312 7.0312-16.156 11.969-26.75 14.188-3.5 0.75-6.4688 2.7812-8.1562 5.5625-0.21875 0.34375-0.34375 0.71875-0.5 1.0625-2.1562-0.90625-4.2812-1.8125-6.3125-2.75-1.75-0.84375-3.8438-0.53125-5.25 0.8125-1.4375 1.3438-1.875 3.4062-1.1562 5.2188z"/>
</svg>