<svg xmlns="http://www.w3.org/2000/svg" version="1.1" viewBox="-5.0 -10.0 110.0 135.0">
 <path d="m31.117 24.887c1.0898 0.89453 2.3047 1.4414 3.9102 1.7188 9.9727 1.7227 19.641 5.7578 27.621 12.059 7.3711 5.8203 13.012 13.387 15.422 22.094 1.0156 3.6758 6.1406 5.0078 9.4258 4.1484 1.3125-0.34375 2.5273-1.0234 3.707-1.9531 1.6211-1.2773 2.4258-2.9688 1.8047-4.9258-5.2656-16.641-19.547-29.383-35.453-36.555-5.8867-2.6562-12.102-4.6133-18.438-5.8633-2.5469-0.50391-5.2188-0.042969-7.2266 1.543-1.9727 1.5586-3.1953 3.1797-2.3086 5.5742 0.30859 0.83203 0.83203 1.5625 1.5312 2.1641zm-7.7266 19.496 2.9688-6.3008c1.1641 0.097657 2.4062 0.5625 3.1289 1.4766 2.0117 2.5508-2.1016 5.9492-6.0977 4.8242zm4.5234-9.5977 2.8086-5.9609c1.1016 0.58203 2.3516 1.0039 3.7148 1.2383 4.7969 0.82812 9.5156 2.2188 13.977 4.1641 11.969 5.2188 22.785 14.844 26.277 27.465 0.11328 0.41016 0.25781 0.80859 0.42969 1.1914l-2.6758 0.82031c-2.2188 0.67969-3.6875 2.7148-3.6875 5.0195v6.7031c0 6.582-6.4609 6.6562-7.2305 4.3047-0.28906-0.88281-0.089844-4.1172-0.089844-5.4648 0-3.5391-3.4336-6.1094-6.8672-5.0156l-3.6641 1.1719c-2.207 0.70312-3.6719 2.7109-3.6719 5.0156v5.6445c0 0.96094-0.39453 1.8359-1.0273 2.4688-2.2266 2.2266-5.9688 0.59375-5.9688-2.4688 0-3.6172-3.4531-6.1484-6.8672-5.0586l-21.082 6.7344c-2.832 0.90625-6.2617-1.5391-5.3477-3.4766l14.945-31.703c2.9297 1.043 6.4766 0.49609 8.9414-1.4492 4.6445-3.668 2.9805-10.004-2.9141-11.344zm16.617 6.8711c-0.58984-0.76562-0.44922-1.8633 0.31641-2.457s1.8633-0.44922 2.457 0.31641c0.49219 0.63281 1.2539 0.80859 2.1016 0.80469 0.96484-0.003906 1.7539 0.77734 1.7578 1.7422 0.003907 0.96484-0.77734 1.7539-1.7422 1.7578-1.9648 0.007813-3.7031-0.63672-4.8867-2.1602zm0.625 17.742c0.87109-0.42188 1.918-0.054688 2.3398 0.81641s0.054687 1.918-0.81641 2.3398c-0.58594 0.28125-0.89453 0.57422-0.89063 1.168 0.007813 0.96484-0.76953 1.7578-1.7344 1.7656-0.96484 0.007813-1.7578-0.76953-1.7656-1.7344-0.015624-1.9883 1.0742-3.4844 2.8672-4.3516zm-11.512 3.8984c1.2383 1.5703-0.83984 3.6055-3.3594 3.6719-2.3359 0.0625-4.207-1.5859-2.8242-3.3359 1.4219-1.7969 4.8945-1.9688 6.1797-0.33594zm1.7773-3.1289c2.9297 2.3125 2.6992 6.2852-0.24609 8.6094-3.0781 2.4297-8.1484 2.293-10.562-0.76562-1.9531-2.4727-1.2344-5.7148 1.2148-7.6484 2.6875-2.1211 6.9102-2.3164 9.5977-0.19531zm26.941-5.4609c1.6914 2.1445-0.94922 4.9453-4.3398 5.0352-3.2227 0.085937-5.5547-2.293-3.7109-4.6289 1.8555-2.3516 6.3398-2.5742 8.0508-0.40625zm1.6367-3.2695c3.3594 2.6523 3.0781 7.1719-0.30078 9.8398-3.5664 2.8164-9.4688 2.6719-12.262-0.86719-2.2344-2.832-1.3945-6.5273 1.4062-8.7383 3.1172-2.4648 8.0391-2.6953 11.152-0.23438zm-27.227-0.48828c-0.87109-0.42188-1.2383-1.4688-0.81641-2.3398s1.4688-1.2383 2.3398-0.81641c1.7891 0.86328 2.8828 2.3633 2.8633 4.3516-0.007812 0.96484-0.79688 1.7422-1.7656 1.7344-0.96484-0.007812-1.7422-0.79688-1.7344-1.7656 0.003906-0.59766-0.30469-0.88672-0.89062-1.168zm-18.289 19.57c-1.7891 0.86719-2.8828 2.3633-2.8672 4.3516 0.007812 0.96484 0.79687 1.7422 1.7656 1.7344 0.96875-0.007813 1.7422-0.79688 1.7344-1.7656-0.003907-0.59375 0.30469-0.88672 0.89062-1.168 0.87109-0.42188 1.2383-1.4688 0.81641-2.3398-0.42188-0.87109-1.4688-1.2383-2.3398-0.81641z" fill-rule="evenodd"/>
<text x="0.0" y="117.5" font-size="5.0" font-weight="bold" font-family="Arbeit Regular, Helvetica, Arial-Unicode, Arial, Sans-serif" fill="#000000">Created by The Bontots</text><text x="0.0" y="122.5" font-size="5.0" font-weight="bold" font-family="Arbeit Regular, Helvetica, Arial-Unicode, Arial, Sans-serif" fill="#000000">from Noun Project</text></svg>