<svg xmlns="http://www.w3.org/2000/svg" xmlns:xlink="http://www.w3.org/1999/xlink" version="1.1" x="0px" y="0px" viewBox="1 2 71 72" style="enable-background:new 0 0 74 74;" xml:space="preserve">
 <path d="M61.08,28.93c-0.04-0.13-0.13-0.24-0.24-0.3l-4.7-2.55l3.81-10.86c0.15-0.47,0.12-0.97-0.1-1.41  c-0.23-0.44-0.6-0.76-1.06-0.91l-3.28-1.05c-0.93-0.3-1.94,0.22-2.26,1.13l-4.1,11.72l1.25-7.39c0.08-0.48-0.04-0.97-0.32-1.36  c-0.29-0.4-0.71-0.66-1.19-0.73l-3.42-0.53c-0.97-0.14-1.9,0.52-2.06,1.49l-0.54,3.18l-1.03-6.11l1.03-6.1  c0.09-0.48-0.02-0.97-0.31-1.36c-0.28-0.4-0.71-0.66-1.19-0.73l-3.41-0.54c-0.98-0.14-1.9,0.52-2.06,1.49l-2.24,13.21l-0.03-1.53  c-0.02-0.99-0.85-1.77-1.85-1.77l-1.33,0.02l0.14-0.83c0.08-0.49-0.03-0.97-0.32-1.37c-0.29-0.39-0.71-0.64-1.18-0.71l-3.43-0.54  c-0.97-0.14-1.88,0.51-2.06,1.49l-0.54,3.18l-1.07-6.34c-0.16-0.97-1.08-1.63-2.06-1.49l-3.4,0.54c-0.49,0.07-0.92,0.33-1.2,0.73  c-0.29,0.4-0.4,0.88-0.31,1.35l2.41,14.36l-4.27,2.32c-0.12,0.06-0.2,0.17-0.24,0.3c-0.04,0.12-0.02,0.26,0.04,0.38l21.31,38.57  c0.55,1,1.55,1.59,2.68,1.61c0.02,0,0.03,0.01,0.05,0.01c0.01,0,0.02,0,0.03-0.01c1.14,0,2.15-0.6,2.71-1.61l21.3-38.57  C61.1,29.19,61.12,29.05,61.08,28.93z M59.45,29.01l-5.08,2.13l1.43-4.11L59.45,29.01z M38.78,37.66l-1.16,0.48l0.62-3.66  L38.78,37.66z M44.39,16.34c0.08-0.43,0.49-0.72,0.93-0.66l3.42,0.52c0.21,0.04,0.4,0.16,0.53,0.33c0.12,0.18,0.18,0.4,0.14,0.62  l-2.93,17.29l-5.55,2.32L44.39,16.34z M36.88,6.17c0.07-0.43,0.5-0.72,0.93-0.66l3.41,0.54c0.22,0.03,0.4,0.14,0.53,0.32  c0.13,0.18,0.18,0.39,0.14,0.61l-0.83,4.87c-0.37-0.26-0.84-0.39-1.33-0.32l-3.41,0.53c-0.16,0.03-0.31,0.08-0.46,0.15L36.88,6.17z   M24.59,14.15c0.08-0.44,0.49-0.73,0.92-0.67l3.43,0.54c0.21,0.03,0.39,0.14,0.52,0.31c0.13,0.18,0.18,0.4,0.15,0.62l-0.17,1.01  l-1.12,0.02c-0.48,0.01-0.93,0.21-1.27,0.56c-0.33,0.35-0.51,0.81-0.51,1.29l0.34,16.34l-5.3-2.22L24.59,14.15z M17.61,27.35  l0.53,3.17l-3.59-1.51L17.61,27.35z M36.5,68.43c-0.57-0.14-1.06-0.5-1.35-1.03L14.54,30.09l21.96,9.19V68.43z M36.59,38.23  l-4.8-2.01l3.38-19.97l2.57,15.23L36.59,38.23z"/>
</svg>