<?xml version="1.0" encoding="UTF-8"?>
<!-- Generator: visioncortex VTracer 0.6.12 -->
<svg version="1.1" xmlns="http://www.w3.org/2000/svg" width="4501" height="4501">
<path d="M0 0 C1.882 2.824 2.625 4.706 3.53 7.918 C3.82 8.937 4.111 9.956 4.409 11.005 C4.723 12.126 5.036 13.247 5.359 14.402 C5.696 15.588 6.032 16.773 6.378 17.994 C7.115 20.594 7.85 23.194 8.583 25.795 C10.396 32.234 12.227 38.669 14.056 45.104 C14.707 47.395 15.358 49.686 16.008 51.977 C20.578 68.071 25.224 84.143 29.881 100.212 C30.568 102.58 31.254 104.948 31.94 107.316 C49.816 169.016 67.778 230.692 85.739 292.367 C89.074 303.819 92.408 315.271 95.742 326.723 C95.98 327.538 96.217 328.354 96.462 329.194 C97.661 333.314 98.861 337.435 100.06 341.555 C102.217 348.964 104.374 356.373 106.531 363.782 C107.729 367.896 108.927 372.011 110.125 376.125 C110.604 377.771 111.083 379.417 111.562 381.062 C112.521 384.354 113.479 387.646 114.438 390.938 C114.675 391.752 114.912 392.567 115.156 393.406 C115.635 395.052 116.115 396.698 116.594 398.344 C117.792 402.458 118.989 406.572 120.187 410.687 C122.345 418.097 124.502 425.507 126.659 432.917 C127.859 437.037 129.058 441.157 130.258 445.277 C130.377 445.685 130.377 445.685 130.977 447.749 C134.308 459.188 137.639 470.628 140.97 482.068 C165.7 566.989 190.401 651.918 229.312 786.811 C235.957 809.853 242.607 832.894 249.258 855.934 C250.126 858.941 250.994 861.949 251.863 864.957 C254.176 872.969 256.488 880.981 258.801 888.992 C262.865 903.069 266.929 917.146 270.992 931.223 C271.137 931.724 271.137 931.724 271.868 934.258 C274.783 944.354 277.697 954.45 280.611 964.546 C282.062 969.574 283.514 974.601 284.965 979.629 C285.252 980.625 285.54 981.622 285.836 982.649 C290.024 997.154 294.211 1011.659 298.399 1026.164 C309.145 1063.38 319.89 1100.596 330.6 1137.823 C337.704 1162.518 344.831 1187.207 351.96 1211.895 C362.779 1249.362 373.578 1286.834 384.352 1324.314 C388.575 1339.003 392.803 1353.691 397.032 1368.378 C397.82 1371.114 398.607 1373.85 399.395 1376.586 C401.93 1385.391 404.465 1394.195 407 1403 C426.323 1470.111 445.63 1537.227 464.925 1604.347 C468.256 1615.932 471.587 1627.518 474.918 1639.104 C495.224 1709.721 515.508 1780.345 535.782 1850.972 C536.802 1854.527 537.823 1858.081 538.843 1861.636 C540.455 1867.25 542.066 1872.864 543.678 1878.478 C544.267 1880.532 544.857 1882.585 545.446 1884.639 C549.308 1898.09 553.159 1911.544 557 1925 C560.034 1923.199 562.917 1921.394 565.688 1919.207 C566.375 1918.667 567.063 1918.128 567.772 1917.572 C568.507 1916.991 569.242 1916.411 570 1915.812 C571.613 1914.55 573.226 1913.288 574.84 1912.027 C575.683 1911.368 576.526 1910.71 577.394 1910.031 C589.352 1900.712 601.412 1891.576 613.852 1882.91 C617.393 1880.44 620.884 1877.905 624.368 1875.354 C635.083 1867.521 646.104 1860.179 657.179 1852.868 C659.712 1851.191 662.237 1849.504 664.758 1847.809 C731.761 1802.759 803.673 1762.854 880 1736 C880.534 1735.81 880.534 1735.81 883.236 1734.85 C962.401 1706.877 1052.554 1693.885 1131 1731 C1148.199 1739.459 1163.712 1750.273 1178 1763 C1178.505 1763.443 1179.01 1763.886 1179.53 1764.343 C1243.762 1820.801 1269.272 1909.471 1288.695 2032.985 C1288.897 2036.99 1288.96 2040.991 1289 2045 C1289.019 2045.99 1289.038 2046.98 1289.058 2048 C1290.581 2131.039 1276.382 2213.393 1210.99 2384.022 C1210.023 2385.953 1209.062 2387.887 1208.101 2389.822 C1199.516 2407.074 1190.063 2423.617 1179.877 2439.968 C1178.24 2442.613 1176.631 2445.271 1175.043 2447.945 C1167.639 2460.389 1159.386 2472.202 1151 2484 C1150.702 2484.421 1150.702 2484.421 1149.192 2486.551 C1138.526 2501.573 1127.134 2515.921 1115.481 2530.183 C1114.157 2531.807 1112.842 2533.438 1111.527 2535.07 C1106.973 2540.709 1102.234 2546.122 1097.328 2551.457 C1095.393 2553.571 1093.498 2555.707 1091.625 2557.875 C1081.064 2569.973 1069.809 2581.348 1058.444 2592.686 C1055.738 2595.387 1053.037 2598.094 1050.336 2600.801 C1048.594 2602.542 1046.852 2604.283 1045.109 2606.023 C1044.711 2606.422 1044.711 2606.422 1042.697 2608.442 C1038.519 2612.603 1034.268 2616.614 1029.789 2620.449 C1026.663 2623.159 1023.689 2626.03 1020.688 2628.875 C1015.492 2633.765 1010.186 2638.404 1004.609 2642.859 C1001.816 2645.151 999.158 2647.552 996.5 2650 C991.694 2654.414 986.729 2658.564 981.65 2662.659 C979.752 2664.202 977.867 2665.762 975.984 2667.324 C968.079 2673.882 960.126 2680.33 951.935 2686.53 C949.624 2688.286 947.322 2690.053 945.02 2691.82 C935.737 2698.937 926.421 2705.968 916.851 2712.695 C915.021 2713.985 913.196 2715.281 911.371 2716.579 C900.824 2724.073 890.167 2731.395 879.445 2738.636 C876.697 2740.493 873.955 2742.358 871.213 2744.223 C860.784 2751.285 850.223 2758.017 839.369 2764.409 C835.278 2766.818 831.256 2769.326 827.25 2771.875 C770.445 2807.647 709.689 2838.323 648.232 2865.257 C643.957 2867.132 639.697 2869.034 635.449 2870.969 C535.258 2916.508 428.519 2952.041 260.73 2993.527 C241.018 2997.604 222.086 3003.677 203 3010 C201.422 3010.52 199.844 3011.04 198.266 3011.56 C143.564 3029.635 90.773 3051.773 39 3077 C38.495 3077.246 38.495 3077.246 35.937 3078.488 C21.955 3085.302 8.34 3092.602 -5.137 3100.363 C-8.006 3102.004 -10.891 3103.615 -13.781 3105.219 C-40.506 3120.068 -66.404 3136.831 -91 3155 C-91.628 3155.463 -92.256 3155.927 -92.902 3156.404 C-114.974 3172.737 -136.382 3189.926 -156.507 3208.62 C-158.009 3210.009 -159.523 3211.385 -161.039 3212.758 C-167.472 3218.602 -173.718 3224.615 -179.875 3230.75 C-180.576 3231.447 -181.278 3232.144 -182.001 3232.862 C-185.958 3236.831 -189.732 3240.903 -193.392 3245.147 C-195.66 3247.76 -198.017 3250.281 -200.375 3252.812 C-205.489 3258.356 -210.304 3264.096 -215 3270 C-215.407 3270.507 -215.813 3271.014 -216.232 3271.536 C-273.958 3343.556 -312.707 3428.102 -316.177 3600.299 C-315.806 3603.535 -315.401 3606.767 -315 3610 C-314.86 3611.25 -314.721 3612.5 -314.577 3613.789 C-307.326 3677.049 -276.151 3747.963 -232.445 3794.344 C-230.866 3796.06 -229.34 3797.828 -227.887 3799.652 C-224.985 3803.263 -221.555 3806.046 -218 3809 C-217.464 3809.448 -216.928 3809.897 -216.376 3810.358 C-184.315 3837.055 -146.352 3850.535 -104.562 3850.312 C-103.825 3850.31 -103.087 3850.308 -102.328 3850.306 C-11.527 3849.883 72.985 3797.803 144 3746 C144.794 3745.423 145.587 3744.846 146.405 3744.252 C156.549 3736.876 166.491 3729.32 176.232 3721.42 C178.571 3719.541 180.94 3717.702 183.31 3715.862 C189.327 3711.187 195.17 3706.353 200.93 3701.366 C206.202 3696.804 211.583 3692.389 217 3688 C205.599 3688.638 194.377 3690.25 183.083 3691.867 C180.994 3692.164 178.904 3692.459 176.815 3692.755 C172.341 3693.388 167.867 3694.024 163.393 3694.662 C156.317 3695.67 149.24 3696.672 142.162 3697.674 C124.595 3700.16 107.028 3702.655 89.462 3705.151 C75.786 3707.095 62.111 3709.035 48.434 3710.97 C41.4 3711.965 34.366 3712.965 27.333 3713.968 C22.961 3714.59 18.589 3715.209 14.217 3715.826 C12.192 3716.113 10.166 3716.402 8.14 3716.692 C5.374 3717.089 2.608 3717.479 -0.159 3717.868 C-0.959 3717.984 -1.758 3718.1 -2.582 3718.219 C-7.104 3718.848 -11.434 3719.11 -16 3719 C-12.719 3716.275 -9.441 3713.968 -5.738 3711.855 C-4.715 3711.269 -3.693 3710.682 -2.639 3710.078 C-2.09 3709.766 -2.09 3709.766 0.688 3708.188 C1.85 3707.523 3.012 3706.857 4.174 3706.191 C6.585 3704.81 8.998 3703.43 11.412 3702.052 C16.952 3698.887 22.475 3695.692 28 3692.5 C30.167 3691.25 32.333 3690 34.5 3688.75 C35.573 3688.131 36.645 3687.512 37.75 3686.875 C47.5 3681.25 47.5 3681.25 50.75 3679.375 C52.916 3678.126 55.081 3676.876 57.246 3675.627 C62.686 3672.488 68.127 3669.35 73.57 3666.215 C84.062 3660.169 94.545 3654.109 105 3648 C116.547 3641.253 128.129 3634.567 139.718 3627.891 C145.147 3624.763 150.573 3621.631 156 3618.5 C158.167 3617.25 160.333 3616 162.5 3614.75 C163.573 3614.131 164.645 3613.512 165.75 3612.875 C227.5 3577.25 227.5 3577.25 230.75 3575.375 C232.916 3574.126 235.081 3572.876 237.246 3571.627 C242.686 3568.488 248.127 3565.35 253.57 3562.215 C264.062 3556.169 274.545 3550.109 285 3544 C296.547 3537.253 308.129 3530.567 319.718 3523.891 C325.147 3520.763 330.573 3517.631 336 3514.5 C338.167 3513.25 340.333 3512 342.5 3510.75 C343.573 3510.131 344.645 3509.512 345.75 3508.875 C407.5 3473.25 407.5 3473.25 410.75 3471.375 C412.916 3470.126 415.081 3468.876 417.246 3467.627 C422.686 3464.488 428.127 3461.35 433.57 3458.215 C444.062 3452.169 454.545 3446.109 465 3440 C476.547 3433.253 488.129 3426.567 499.718 3419.891 C505.147 3416.763 510.573 3413.631 516 3410.5 C518.167 3409.25 520.333 3408 522.5 3406.75 C523.573 3406.131 524.645 3405.512 525.75 3404.875 C561.5 3384.25 561.5 3384.25 564.75 3382.375 C566.916 3381.126 569.081 3379.876 571.246 3378.627 C576.686 3375.488 582.127 3372.35 587.57 3369.215 C599.199 3362.514 610.812 3355.789 622.401 3349.019 C631.586 3343.654 640.79 3338.322 650 3333 C650.33 3333.66 650.66 3334.32 651 3335 C649.731 3337.537 649.731 3337.537 647.758 3340.773 C647.403 3341.36 647.049 3341.946 646.684 3342.55 C645.505 3344.497 644.315 3346.436 643.125 3348.375 C642.296 3349.739 641.468 3351.104 640.64 3352.469 C638.51 3355.98 636.371 3359.485 634.229 3362.989 C630.997 3368.278 627.782 3373.578 624.562 3378.875 C623.877 3380.001 623.191 3381.127 622.485 3382.288 C616.519 3392.095 610.666 3401.969 604.821 3411.849 C600.277 3419.526 595.706 3427.175 590.917 3434.701 C586.35 3441.935 582.041 3449.325 577.688 3456.688 C572.372 3465.677 567.04 3474.646 561.5 3483.5 C556.09 3492.149 550.878 3500.906 545.688 3509.688 C539.879 3519.515 534.014 3529.297 528 3539 C522.012 3548.664 516.164 3558.403 510.375 3568.188 C503.268 3580.2 496.077 3592.156 488.794 3604.064 C485.437 3609.558 482.093 3615.06 478.75 3620.562 C478.395 3621.146 478.041 3621.73 477.676 3622.331 C471.703 3632.164 465.777 3642.024 459.866 3651.894 C454.095 3661.527 448.285 3671.136 442.448 3680.729 C436.548 3690.429 430.696 3700.157 424.864 3709.898 C419.123 3719.484 413.335 3729.04 407.522 3738.583 C401.206 3748.956 395.005 3759.396 388.821 3769.849 C384.277 3777.526 379.706 3785.175 374.917 3792.701 C370.35 3799.935 366.041 3807.325 361.688 3814.688 C356.372 3823.677 351.04 3832.646 345.5 3841.5 C340.09 3850.149 334.878 3858.906 329.688 3867.688 C323.879 3877.515 318.014 3887.297 312 3897 C306.012 3906.664 300.164 3916.403 294.375 3926.188 C287.268 3938.2 280.077 3950.156 272.794 3962.064 C269.437 3967.558 266.093 3973.06 262.75 3978.562 C262.395 3979.146 262.041 3979.73 261.676 3980.331 C255.705 3990.16 249.781 4000.017 243.872 4009.884 C237.97 4019.736 232.028 4029.563 226.061 4039.375 C219.665 4049.892 213.317 4060.436 207 4071 C205.753 4067.381 206.225 4064.687 206.944 4060.965 C207.18 4059.722 207.416 4058.479 207.659 4057.199 C207.929 4055.818 208.2 4054.438 208.471 4053.058 C208.752 4051.595 209.032 4050.133 209.312 4048.67 C210.081 4044.653 210.861 4040.639 211.643 4036.625 C212.479 4032.321 213.305 4028.015 214.133 4023.709 C215.561 4016.289 216.995 4008.869 218.433 4001.451 C220.501 3990.781 222.56 3980.109 224.616 3969.437 C228.835 3947.539 233.069 3925.645 237.307 3903.751 C239.305 3893.424 241.302 3883.096 243.299 3872.769 C243.647 3870.972 243.994 3869.175 244.342 3867.378 C246.017 3858.716 247.691 3850.055 249.365 3841.393 C249.848 3838.898 250.33 3836.402 250.812 3833.907 C251.128 3832.271 251.445 3830.636 251.761 3829.001 C253.601 3819.476 255.445 3809.953 257.292 3800.43 C258.443 3794.501 259.591 3788.572 260.739 3782.643 C261.396 3779.25 262.053 3775.856 262.713 3772.463 C263.425 3768.806 264.133 3765.148 264.84 3761.489 C265.046 3760.432 265.253 3759.375 265.465 3758.285 C266.509 3752.866 267.39 3747.485 268 3742 C264.042 3745.382 260.149 3748.784 256.5 3752.5 C252.837 3756.212 248.961 3759.611 245 3763 C243.957 3763.896 242.914 3764.792 241.871 3765.688 C239.487 3767.735 237.1 3769.778 234.711 3771.82 C232.292 3773.89 229.881 3775.968 227.477 3778.055 C220.643 3783.976 213.689 3789.686 206.547 3795.23 C203.549 3797.56 200.595 3799.937 197.646 3802.328 C183.295 3813.942 168.304 3824.683 153 3835 C152.393 3835.412 151.785 3835.823 151.16 3836.248 C133.891 3847.947 116.227 3858.857 98 3869 C97.022 3869.549 96.044 3870.098 95.037 3870.664 C42.882 3899.862 -13.5 3919.894 -73 3927 C-73.411 3927.052 -73.411 3927.052 -75.494 3927.317 C-100.911 3930.129 -128.862 3929.657 -154 3925 C-155.024 3924.817 -156.049 3924.635 -157.104 3924.446 C-201.444 3916.286 -242.907 3897.964 -279 3871 C-279.607 3870.549 -280.215 3870.099 -280.841 3869.635 C-346.863 3820.343 -380.263 3741.546 -391.898 3661.879 C-392.272 3659.253 -392.637 3656.627 -393 3654 C-393.167 3652.836 -393.333 3651.672 -393.505 3650.472 C-399.174 3609.071 -397.775 3565.449 -393 3524 C-392.901 3523.123 -392.801 3522.246 -392.699 3521.342 C-386.738 3469.023 -376.657 3417.729 -361.052 3367.403 C-360.165 3364.534 -359.306 3361.659 -358.461 3358.777 C-349.816 3330.141 -333.329 3302.87 -317 3278 C-316.282 3276.895 -315.564 3275.791 -314.824 3274.652 C-298.497 3249.818 -280.115 3226.339 -260.133 3204.352 C-258.701 3202.772 -257.279 3201.184 -255.867 3199.586 C-249.84 3192.781 -243.465 3186.384 -237 3180 C-233.794 3176.806 -230.606 3173.595 -227.418 3170.383 C-225.675 3168.63 -223.931 3166.878 -222.188 3165.125 C-221.323 3164.252 -220.459 3163.38 -219.568 3162.48 C-214.543 3157.436 -209.406 3152.63 -204 3148 C-202.392 3146.546 -200.788 3145.088 -199.188 3143.625 C-194.944 3139.8 -190.591 3136.149 -186.148 3132.559 C-183.822 3130.677 -181.52 3128.769 -179.227 3126.848 C-169.208 3118.477 -158.92 3110.548 -148.417 3102.795 C-146.224 3101.166 -144.048 3099.516 -141.879 3097.855 C-116.885 3078.868 -90.203 3061.633 -63 3046 C-62.054 3045.451 -61.108 3044.903 -60.133 3044.337 C-45.326 3035.763 -30.241 3027.772 -15 3020 C-14.279 3019.631 -13.557 3019.262 -12.814 3018.882 C-9.021 3016.946 -5.211 3015.048 -1.387 3013.173 C0.387 3012.301 2.159 3011.425 3.93 3010.546 C75.134 2975.259 150.594 2950.143 227.281 2929.845 C241.661 2926.037 256.021 2922.156 270.375 2918.25 C271.067 2918.062 271.758 2917.874 272.471 2917.68 C329.532 2902.142 386.319 2885.58 442.332 2866.579 C446.414 2865.196 450.501 2863.829 454.589 2862.464 C517.141 2841.569 578.63 2817.539 639 2791 C639.696 2790.694 640.391 2790.389 641.108 2790.073 C649.009 2786.595 656.886 2783.064 664.742 2779.483 C667.856 2778.066 670.976 2776.663 674.098 2775.262 C690.115 2768.004 705.851 2760.181 721.584 2752.331 C723.343 2751.454 725.102 2750.578 726.862 2749.702 C741.292 2742.513 755.561 2735.097 769.666 2727.289 C772.365 2725.798 775.074 2724.326 777.785 2722.858 C813.624 2703.455 848.282 2681.761 881.022 2657.461 C884.742 2654.713 888.499 2652.017 892.25 2649.312 C893.001 2648.77 893.751 2648.227 894.525 2647.668 C898.527 2644.775 902.543 2641.901 906.573 2639.046 C918.838 2630.347 930.548 2621.012 942.18 2611.488 C943.773 2610.186 945.37 2608.889 946.969 2607.594 C957.664 2598.912 968.09 2589.947 978.195 2580.586 C980.813 2578.173 983.463 2575.801 986.125 2573.438 C990.464 2569.551 994.559 2565.463 998.648 2561.316 C1000.622 2559.372 1002.623 2557.582 1004.75 2555.812 C1009.47 2551.782 1013.579 2547.183 1017.781 2542.626 C1021.098 2539.029 1024.45 2535.496 1027.938 2532.062 C1031.162 2528.88 1034.181 2525.591 1037.129 2522.152 C1039.331 2519.619 1041.602 2517.157 1043.875 2514.688 C1047.968 2510.2 1051.853 2505.591 1055.664 2500.863 C1057.718 2498.346 1059.816 2495.875 1061.936 2493.414 C1067.632 2486.789 1072.91 2479.912 1078.105 2472.891 C1080.641 2469.465 1083.247 2466.105 1085.875 2462.75 C1096.966 2448.37 1107.082 2433.205 1117 2418 C1117.476 2417.271 1117.952 2416.541 1118.443 2415.79 C1167.183 2340.743 1202.283 2256.795 1230 2088 C1230.086 2086.738 1230.172 2085.475 1230.261 2084.174 C1231.067 2071.7 1231.201 2059.247 1231.188 2046.75 C1231.187 2046.223 1231.187 2046.223 1231.186 2043.557 C1231.066 1966.523 1218.795 1884.271 1167 1824 C1166.236 1823.094 1165.471 1822.188 1164.684 1821.254 C1160.472 1816.366 1155.991 1812.082 1151 1808 C1150.015 1807.178 1149.03 1806.355 1148.016 1805.508 C1109.875 1774.202 1063.057 1762.528 1014.5 1762.625 C1013.424 1762.626 1012.348 1762.627 1011.24 1762.628 C992.524 1762.678 974.463 1763.785 956 1767 C955.327 1767.116 954.653 1767.233 953.959 1767.353 C869.168 1782.13 788.455 1819.947 708 1872 C707.081 1872.606 706.161 1873.212 705.214 1873.836 C679.774 1890.629 655.106 1908.343 631 1927 C630.399 1927.465 629.798 1927.929 629.178 1928.408 C615.375 1939.1 601.942 1950.256 588.661 1961.586 C586.818 1963.155 584.97 1964.716 583.121 1966.277 C581.831 1967.372 580.54 1968.467 579.25 1969.562 C578.641 1970.076 578.031 1970.589 577.404 1971.118 C573.114 1974.772 573.114 1974.772 572 1977 C572.411 1978.949 572.922 1980.876 573.475 1982.79 C573.828 1984.029 574.182 1985.268 574.547 1986.545 C574.951 1987.931 575.355 1989.317 575.759 1990.704 C576.179 1992.163 576.598 1993.623 577.016 1995.083 C577.929 1998.263 578.847 2001.442 579.768 2004.619 C581.266 2009.788 582.754 2014.959 584.241 2020.131 C586.107 2026.618 587.975 2033.105 589.846 2039.591 C593.378 2051.831 596.893 2064.076 600.4 2076.323 C600.533 2076.789 600.533 2076.789 601.208 2079.145 C602.299 2082.954 603.389 2086.763 604.48 2090.572 C607.329 2100.525 610.182 2110.477 613.035 2120.429 C636.808 2203.364 660.528 2286.314 684.173 2369.286 C685.119 2372.603 686.064 2375.92 687.01 2379.237 C693.609 2402.393 700.206 2425.55 706.794 2448.71 C709.682 2458.864 712.574 2469.016 715.477 2479.166 C717.149 2485.012 718.818 2490.858 720.484 2496.706 C721.412 2499.961 722.343 2503.216 723.276 2506.469 C724.264 2509.912 725.246 2513.357 726.226 2516.802 C726.512 2517.794 726.799 2518.786 727.094 2519.807 C727.349 2520.708 727.603 2521.608 727.866 2522.536 C728.087 2523.308 728.308 2524.08 728.535 2524.876 C729 2527 729 2527 729 2531 C712.873 2538.862 696.719 2546.641 680.425 2554.153 C672.072 2558.013 663.776 2561.98 655.5 2566 C644.845 2571.174 634.134 2576.213 623.379 2581.176 C615.381 2584.874 607.43 2588.659 599.5 2592.5 C589.209 2597.484 578.862 2602.332 568.48 2607.125 C560.45 2610.841 552.464 2614.643 544.5 2618.5 C535.64 2622.789 526.749 2626.999 517.812 2631.125 C506.296 2636.444 494.829 2641.861 483.375 2647.312 C470.803 2653.295 458.225 2659.264 445.625 2665.188 C444.935 2665.512 444.245 2665.836 443.534 2666.171 C440.074 2667.797 436.614 2669.423 433.153 2671.048 C426.811 2674.028 420.471 2677.013 414.131 2679.997 C410.587 2681.665 407.044 2683.332 403.5 2685 C402.083 2685.667 400.667 2686.333 399.25 2687 C356.75 2707 356.75 2707 354.625 2708 C353.208 2708.667 351.791 2709.334 350.374 2710 C346.837 2711.665 343.3 2713.329 339.763 2714.993 C333.332 2718.02 326.9 2721.046 320.471 2724.077 C305.586 2731.093 290.69 2738.084 275.756 2744.997 C265.369 2749.813 255.018 2754.706 244.669 2759.603 C233.686 2764.799 222.683 2769.946 211.656 2775.047 C202.081 2779.483 192.539 2783.986 183 2788.5 C171.193 2794.087 159.369 2799.631 147.516 2805.117 C138.326 2809.374 129.161 2813.681 120 2818 C108.557 2823.395 97.097 2828.751 85.617 2834.066 C76.394 2838.342 67.195 2842.665 58 2847 C46.452 2852.443 34.89 2857.853 23.307 2863.22 C15.135 2867.007 6.972 2870.812 -1.188 2874.625 C-9.724 2878.614 -18.266 2882.59 -26.816 2886.547 C-27.665 2886.94 -28.514 2887.333 -29.389 2887.737 C-31.13 2888.543 -32.872 2889.349 -34.613 2890.155 C-49.072 2896.846 -63.512 2903.574 -77.922 2910.37 C-90.793 2916.44 -103.692 2922.448 -116.605 2928.428 C-122.363 2931.095 -128.119 2933.766 -133.875 2936.438 C-135.025 2936.971 -136.176 2937.505 -137.361 2938.055 C-145.912 2942.026 -154.457 2946.011 -163 2950 C-180.591 2958.214 -198.2 2966.388 -215.816 2974.547 C-219.336 2976.177 -222.856 2977.807 -226.375 2979.438 C-227.256 2979.846 -228.137 2980.254 -229.045 2980.674 C-240.308 2985.892 -251.566 2991.121 -262.812 2996.375 C-263.418 2996.658 -264.024 2996.941 -264.649 2997.233 C-265.251 2997.514 -265.853 2997.795 -266.473 2998.085 C-295.624 3011.702 -324.832 3025.198 -354.029 3038.718 C-358.415 3040.749 -362.801 3042.781 -367.188 3044.812 C-368.049 3045.212 -368.911 3045.611 -369.798 3046.022 C-381.769 3051.567 -393.728 3057.136 -405.678 3062.724 C-416.779 3067.908 -427.904 3073.038 -439.03 3078.166 C-449.699 3083.084 -460.359 3088.022 -471 3093 C-482.255 3098.264 -493.529 3103.485 -504.812 3108.688 C-518.339 3114.925 -531.861 3121.173 -545.375 3127.438 C-546.219 3127.829 -547.063 3128.22 -547.932 3128.623 C-551.356 3130.21 -554.779 3131.797 -558.202 3133.385 C-564.373 3136.246 -570.544 3139.106 -576.715 3141.965 C-591.521 3148.825 -606.327 3155.685 -621.125 3162.562 C-633.09 3168.122 -645.07 3173.651 -657.051 3179.177 C-667.373 3183.938 -677.692 3188.708 -688 3193.5 C-698.929 3198.58 -709.869 3203.638 -720.812 3208.688 C-721.225 3208.878 -721.225 3208.878 -723.311 3209.84 C-730.027 3212.939 -736.743 3216.036 -743.459 3219.134 C-749.098 3221.735 -754.736 3224.336 -760.375 3226.938 C-761.175 3227.307 -761.975 3227.676 -762.8 3228.056 C-775.372 3233.858 -787.938 3239.675 -800.5 3245.5 C-813.87 3251.699 -827.244 3257.888 -840.625 3264.062 C-841.024 3264.246 -841.024 3264.246 -843.041 3265.177 C-848.694 3267.785 -854.347 3270.393 -860 3273 C-866.729 3276.104 -873.459 3279.208 -880.188 3282.312 C-881.01 3282.692 -881.832 3283.071 -882.679 3283.462 C-892.792 3288.129 -902.9 3292.805 -913 3297.5 C-928.968 3304.922 -944.958 3312.294 -960.948 3319.669 C-968.324 3323.072 -975.699 3326.476 -983.074 3329.88 C-987.132 3331.753 -991.191 3333.627 -995.25 3335.5 C-996.875 3336.25 -998.5 3337 -1000.125 3337.75 C-1080.563 3374.875 -1161 3412 -1399.875 3522.25 C-1400.679 3522.621 -1401.484 3522.993 -1402.313 3523.375 C-1403.937 3524.125 -1405.562 3524.875 -1407.187 3525.625 C-1411.251 3527.501 -1415.315 3529.376 -1419.379 3531.252 C-1426.673 3534.619 -1433.967 3537.985 -1441.261 3541.349 C-1458.681 3549.384 -1476.096 3557.43 -1493.5 3565.5 C-1511.709 3573.943 -1529.931 3582.36 -1548.157 3590.766 C-1555.459 3594.134 -1562.76 3597.504 -1570.06 3600.874 C-1574.124 3602.749 -1578.187 3604.625 -1582.25 3606.5 C-1583.875 3607.25 -1585.5 3608 -1587.125 3608.75 C-1588.75 3609.5 -1588.75 3609.5 -1596.875 3613.25 C-1597.679 3613.621 -1598.484 3613.993 -1599.313 3614.375 C-1600.937 3615.125 -1602.562 3615.875 -1604.187 3616.625 C-1608.251 3618.501 -1612.315 3620.376 -1616.379 3622.252 C-1623.673 3625.619 -1630.967 3628.985 -1638.261 3632.349 C-1656.539 3640.78 -1674.809 3649.224 -1693.069 3657.691 C-1706.637 3663.983 -1720.213 3670.256 -1733.793 3676.519 C-1743.868 3681.166 -1753.939 3685.823 -1764 3690.5 C-1774.929 3695.58 -1785.869 3700.638 -1796.812 3705.688 C-1797.637 3706.068 -1798.462 3706.448 -1799.311 3706.84 C-1806.027 3709.939 -1812.743 3713.036 -1819.459 3716.134 C-1842.717 3726.861 -1865.966 3737.61 -1889.202 3748.385 C-1895.373 3751.246 -1901.544 3754.106 -1907.715 3756.965 C-1922.521 3763.825 -1937.327 3770.685 -1952.125 3777.562 C-1962.971 3782.602 -1973.828 3787.616 -1984.688 3792.625 C-2002.538 3800.859 -2020.377 3809.119 -2038.212 3817.389 C-2044.355 3820.238 -2050.5 3823.084 -2056.645 3825.93 C-2073 3833.504 -2089.35 3841.09 -2105.678 3848.724 C-2116.775 3853.906 -2127.897 3859.034 -2139.019 3864.161 C-2149.92 3869.187 -2160.813 3874.23 -2171.688 3879.312 C-2172.297 3879.597 -2172.907 3879.882 -2173.535 3880.176 C-2175.354 3881.026 -2177.173 3881.876 -2178.992 3882.727 C-2193.917 3889.702 -2208.867 3896.623 -2223.816 3903.547 C-2227.336 3905.177 -2230.855 3906.807 -2234.375 3908.438 C-2235.26 3908.848 -2236.146 3909.258 -2237.058 3909.68 C-2249.228 3915.318 -2261.389 3920.975 -2273.539 3926.654 C-2284.139 3931.607 -2294.757 3936.523 -2305.375 3941.438 C-2318.526 3947.525 -2331.664 3953.639 -2344.781 3959.799 C-2355.03 3964.613 -2365.293 3969.395 -2375.566 3974.158 C-2384.05 3978.092 -2392.527 3982.042 -2401 3986 C-2410.661 3990.512 -2420.327 3995.013 -2430 3999.5 C-2443.416 4005.724 -2456.818 4011.976 -2470.218 4018.234 C-2475.854 4020.866 -2481.49 4023.496 -2487.127 4026.126 C-2490.251 4027.584 -2493.376 4029.042 -2496.5 4030.5 C-2497.75 4031.083 -2499 4031.667 -2500.25 4032.25 C-2500.869 4032.539 -2501.488 4032.827 -2502.125 4033.125 C-2503.062 4033.562 -2503.062 4033.562 -2507.75 4035.75 C-2508.369 4036.039 -2508.988 4036.328 -2509.625 4036.625 C-2510.875 4037.208 -2512.125 4037.791 -2513.374 4038.375 C-2516.503 4039.835 -2519.631 4041.294 -2522.759 4042.754 C-2528.346 4045.362 -2533.933 4047.969 -2539.522 4050.574 C-2553.403 4057.042 -2567.272 4063.535 -2581.125 4070.062 C-2593.764 4076.018 -2606.425 4081.925 -2619.102 4087.801 C-2626.281 4091.128 -2633.454 4094.467 -2640.625 4097.812 C-2641.241 4098.1 -2641.856 4098.387 -2642.49 4098.683 C-2653.439 4103.792 -2664.372 4108.937 -2675.301 4114.088 C-2685.911 4119.088 -2696.537 4124.053 -2707.188 4128.966 C-2714.031 4132.13 -2720.841 4135.355 -2727.637 4138.621 C-2730.126 4139.813 -2732.615 4141.004 -2735.105 4142.195 C-2736.736 4142.978 -2738.365 4143.764 -2739.992 4144.555 C-2742.263 4145.657 -2744.539 4146.748 -2746.816 4147.836 C-2747.499 4148.172 -2748.182 4148.507 -2748.886 4148.853 C-2753.659 4151.114 -2753.659 4151.114 -2757 4150 C-2749.575 4146.276 -2742.15 4142.554 -2734.723 4138.835 C-2731.271 4137.107 -2727.82 4135.378 -2724.37 4133.647 C-2710.502 4126.691 -2696.623 4119.773 -2682.604 4113.125 C-2674.981 4109.498 -2667.421 4105.751 -2659.875 4101.969 C-2659.268 4101.665 -2658.661 4101.36 -2658.036 4101.047 C-2653.689 4098.867 -2649.344 4096.684 -2645 4094.5 C-2640.043 4092.008 -2635.085 4089.517 -2630.125 4087.031 C-2629.82 4086.878 -2629.82 4086.878 -2628.278 4086.105 C-2620.536 4082.228 -2612.763 4078.425 -2604.938 4074.719 C-2595.164 4070.086 -2585.482 4065.282 -2575.812 4060.438 C-2575.052 4060.056 -2574.291 4059.675 -2573.508 4059.283 C-2568.004 4056.525 -2562.502 4053.763 -2557 4051 C-2551.482 4048.229 -2545.964 4045.46 -2540.444 4042.694 C-2538.293 4041.615 -2536.143 4040.534 -2533.993 4039.453 C-2525.981 4035.432 -2517.923 4031.516 -2509.828 4027.664 C-2499.32 4022.66 -2488.893 4017.507 -2478.492 4012.284 C-2475.452 4010.757 -2472.411 4009.233 -2469.369 4007.71 C-2462.912 4004.476 -2456.456 4001.238 -2450 3998 C-2442.5 3994.238 -2434.999 3990.477 -2427.496 3986.72 C-2424.547 3985.243 -2421.6 3983.763 -2418.653 3982.282 C-2409.537 3977.713 -2400.396 3973.214 -2391.184 3968.842 C-2376.665 3961.942 -2362.312 3954.711 -2347.944 3947.506 C-2343.986 3945.522 -2340.028 3943.541 -2336.069 3941.56 C-2326.045 3936.542 -2316.022 3931.521 -2306 3926.5 C-2295.17 3921.074 -2284.34 3915.648 -2273.507 3910.227 C-2268.841 3907.891 -2264.175 3905.553 -2259.51 3903.214 C-2256.579 3901.745 -2253.647 3900.277 -2250.715 3898.81 C-2249.386 3898.145 -2248.057 3897.479 -2246.729 3896.812 C-2239.869 3893.367 -2232.985 3889.983 -2226.045 3886.702 C-2208.817 3878.538 -2191.791 3869.966 -2174.742 3861.435 C-2169.972 3859.049 -2165.2 3856.664 -2160.428 3854.28 C-2152.085 3850.11 -2143.742 3845.939 -2135.4 3841.766 C-2122.995 3835.562 -2110.589 3829.36 -2098.182 3823.158 C-2077.303 3812.721 -2056.424 3802.282 -2035.546 3791.841 C-2034.912 3791.524 -2034.278 3791.207 -2033.624 3790.88 C-2032.989 3790.562 -2032.353 3790.245 -2031.699 3789.917 C-2012.307 3780.22 -1992.916 3770.524 -1973.524 3760.829 C-1972.223 3760.179 -1970.923 3759.528 -1969.622 3758.878 C-1964.394 3756.264 -1959.166 3753.651 -1953.939 3751.037 C-1939.327 3743.732 -1924.716 3736.426 -1910.105 3729.121 C-1909.44 3728.788 -1908.774 3728.456 -1908.089 3728.113 C-1886.906 3717.522 -1865.724 3706.93 -1844.542 3696.338 C-1843.856 3695.995 -1843.169 3695.651 -1842.462 3695.298 C-1831.314 3689.723 -1820.166 3684.149 -1809.018 3678.574 C-1764.801 3656.463 -1720.583 3634.354 -1676.363 3612.247 C-1665.216 3606.674 -1654.069 3601.101 -1642.922 3595.528 C-1642.579 3595.356 -1642.579 3595.356 -1640.842 3594.488 C-1619.677 3583.907 -1598.512 3573.325 -1577.348 3562.742 C-1577.016 3562.576 -1577.016 3562.576 -1575.334 3561.735 C-1560.741 3554.439 -1546.148 3547.142 -1531.555 3539.845 C-1526.334 3537.234 -1521.112 3534.623 -1515.89 3532.012 C-1514.591 3531.363 -1513.293 3530.713 -1511.994 3530.064 C-1492.607 3520.37 -1473.219 3510.676 -1453.832 3500.984 C-1453.514 3500.825 -1453.514 3500.825 -1451.908 3500.022 C-1451.275 3499.706 -1450.641 3499.389 -1449.989 3499.063 C-1428.591 3488.365 -1407.194 3477.666 -1385.797 3466.965 C-1373.471 3460.801 -1361.144 3454.637 -1348.816 3448.475 C-1340.575 3444.356 -1332.335 3440.235 -1324.096 3436.113 C-1319.406 3433.767 -1314.715 3431.421 -1310.024 3429.077 C-1277.534 3412.844 -1277.534 3412.844 -1265.158 3406.259 C-1256.893 3401.861 -1248.516 3397.692 -1240.139 3393.513 C-1238.321 3392.604 -1236.503 3391.695 -1234.686 3390.786 C-1229.749 3388.318 -1224.812 3385.852 -1219.874 3383.386 C-1214.527 3380.716 -1209.18 3378.043 -1203.833 3375.37 C-1194.585 3370.747 -1185.335 3366.126 -1176.086 3361.505 C-1162.692 3354.815 -1149.299 3348.121 -1135.906 3341.427 C-1129.649 3338.299 -1123.392 3335.172 -1117.134 3332.044 C-1116.508 3331.732 -1115.882 3331.419 -1115.237 3331.096 C-1100.366 3323.663 -1085.494 3316.232 -1070.622 3308.801 C-1069.972 3308.476 -1069.322 3308.151 -1068.653 3307.817 C-1058.108 3302.548 -1047.564 3297.279 -1037.02 3292.01 C-1027.139 3287.073 -1017.258 3282.136 -1007.378 3277.199 C-1006.728 3276.875 -1006.079 3276.55 -1005.41 3276.216 C-990.561 3268.796 -975.713 3261.376 -960.866 3253.956 C-960.553 3253.799 -960.553 3253.799 -958.971 3253.009 C-952.727 3249.888 -946.483 3246.767 -940.24 3243.646 C-926.867 3236.962 -913.494 3230.279 -900.119 3223.598 C-890.369 3218.728 -880.62 3213.856 -870.871 3208.983 C-865.599 3206.347 -860.327 3203.713 -855.054 3201.08 C-850.215 3198.664 -845.377 3196.246 -840.539 3193.826 C-838.801 3192.957 -837.063 3192.089 -835.325 3191.222 C-825.795 3186.467 -816.325 3181.617 -806.911 3176.636 C-799.368 3172.651 -791.759 3168.809 -784.127 3165 C-782.634 3164.253 -781.141 3163.505 -779.647 3162.758 C-775.608 3160.736 -771.568 3158.717 -767.527 3156.698 C-763.145 3154.508 -758.763 3152.316 -754.382 3150.124 C-745.822 3145.842 -737.262 3141.562 -728.701 3137.283 C-721.734 3133.801 -714.769 3130.318 -707.803 3126.835 C-706.808 3126.337 -705.812 3125.839 -704.786 3125.326 C-702.763 3124.314 -700.74 3123.303 -698.717 3122.291 C-679.792 3112.827 -660.865 3103.365 -641.937 3093.904 C-625.742 3085.809 -609.548 3077.711 -593.354 3069.612 C-574.498 3060.181 -555.64 3050.751 -536.781 3041.323 C-534.765 3040.315 -532.749 3039.307 -530.732 3038.299 C-529.74 3037.803 -528.749 3037.308 -527.727 3036.797 C-520.782 3033.325 -513.837 3029.851 -506.892 3026.378 C-498.411 3022.136 -489.929 3017.895 -481.446 3013.657 C-477.129 3011.499 -472.812 3009.341 -468.496 3007.182 C-453.438 2999.647 -438.382 2992.123 -423.169 2984.905 C-411.721 2979.464 -400.402 2973.763 -389.07 2968.084 C-386.563 2966.829 -384.055 2965.574 -381.547 2964.32 C-376.194 2961.642 -370.842 2958.963 -365.491 2956.283 C-357.729 2952.396 -349.966 2948.511 -342.203 2944.628 C-329.567 2938.306 -316.933 2931.984 -304.299 2925.66 C-303.546 2925.283 -302.794 2924.906 -302.018 2924.518 C-296.679 2921.846 -291.339 2919.173 -286 2916.5 C-279.9 2913.447 -273.801 2910.394 -267.701 2907.34 C-266.95 2906.964 -266.198 2906.588 -265.424 2906.2 C-252.829 2899.896 -240.235 2893.594 -227.639 2887.293 C-219.908 2883.425 -212.178 2879.556 -204.448 2875.685 C-199.143 2873.028 -193.837 2870.372 -188.53 2867.718 C-185.484 2866.195 -182.439 2864.67 -179.395 2863.145 C-166.926 2856.896 -154.427 2850.729 -141.833 2844.736 C-134.639 2841.313 -127.49 2837.812 -120.371 2834.234 C-118.566 2833.331 -116.761 2832.427 -114.956 2831.524 C-113.073 2830.58 -111.19 2829.636 -109.307 2828.691 C-105.326 2826.694 -101.344 2824.7 -97.361 2822.706 C-88.906 2818.473 -80.453 2814.237 -72 2810 C-62.864 2805.421 -53.727 2800.842 -44.589 2796.268 C-41.29 2794.616 -37.991 2792.964 -34.693 2791.309 C-21.565 2784.722 -8.414 2778.198 4.853 2771.894 C13.509 2767.775 22.09 2763.514 30.656 2759.21 C33.36 2757.851 36.065 2756.495 38.771 2755.14 C44.515 2752.262 50.258 2749.382 56 2746.5 C63.582 2742.695 71.165 2738.892 78.75 2735.094 C79.664 2734.636 80.578 2734.178 81.52 2733.707 C92.205 2728.358 102.91 2723.069 113.714 2717.964 C121.824 2714.119 129.851 2710.114 137.875 2706.094 C138.571 2705.745 139.267 2705.396 139.984 2705.037 C144.991 2702.528 149.996 2700.014 155 2697.5 C160.707 2694.633 166.415 2691.767 172.125 2688.906 C172.817 2688.559 173.509 2688.213 174.223 2687.855 C183.752 2683.083 193.324 2678.412 202.953 2673.844 C212.11 2669.495 221.168 2664.956 230.222 2660.398 C243.268 2653.832 256.316 2647.287 269.527 2641.059 C279.225 2636.465 288.796 2631.617 298.385 2626.802 C308.25 2621.851 318.141 2616.977 328.121 2612.262 C337.148 2607.975 346.07 2603.484 355 2599 C365.659 2593.648 376.336 2588.357 387.121 2583.262 C396.148 2578.975 405.07 2574.484 414 2570 C423.753 2565.103 433.506 2560.222 443.375 2555.562 C453.665 2550.703 463.831 2545.605 474 2540.5 C485.026 2534.964 496.065 2529.479 507.223 2524.211 C517.017 2519.562 526.69 2514.671 536.378 2509.806 C546.37 2504.79 556.386 2499.847 566.497 2495.075 C572.032 2492.451 577.524 2489.752 582.996 2487 C583.685 2486.654 584.374 2486.307 585.084 2485.951 C588.502 2484.231 591.918 2482.506 595.33 2480.773 C596.57 2480.147 597.81 2479.521 599.051 2478.895 C600.151 2478.336 601.251 2477.778 602.384 2477.202 C605 2476 605 2476 607 2476 C606.821 2475.474 606.821 2475.474 605.915 2472.815 C601.855 2460.819 598.149 2448.736 594.539 2436.598 C593.918 2434.518 593.297 2432.439 592.676 2430.36 C591.35 2425.918 590.025 2421.475 588.701 2417.031 C586.588 2409.935 584.47 2402.84 582.352 2395.746 C579.761 2387.068 577.172 2378.39 574.583 2369.711 C569.923 2354.088 565.255 2338.467 560.582 2322.848 C560.242 2321.711 559.902 2320.575 559.552 2319.405 C558.191 2314.855 556.83 2310.305 555.468 2305.755 C551.794 2293.475 548.121 2281.195 544.449 2268.914 C544.289 2268.379 544.289 2268.379 543.479 2265.669 C534.724 2236.392 525.977 2207.112 517.234 2177.832 C515.32 2171.421 513.406 2165.011 511.491 2158.601 C500.937 2123.269 490.405 2087.931 479.89 2052.588 C473.078 2029.692 466.257 2006.798 459.42 1983.91 C451.444 1957.208 443.494 1930.498 435.555 1903.784 C434.623 1900.646 433.69 1897.509 432.758 1894.371 C432.525 1893.587 432.292 1892.802 432.051 1891.994 C426.531 1873.416 421.003 1854.841 415.474 1836.266 C414.687 1833.623 413.9 1830.979 413.113 1828.336 C409.409 1815.891 405.705 1803.445 402 1791 C387.897 1743.62 373.797 1696.239 359.713 1648.853 C356.563 1638.258 353.413 1627.663 350.261 1617.069 C339.982 1582.511 329.721 1547.948 319.483 1513.378 C312.275 1489.039 305.051 1464.705 297.812 1440.375 C290.468 1415.688 283.148 1390.995 275.848 1366.295 C269.151 1343.633 262.431 1320.977 255.692 1298.327 C248.255 1273.328 240.832 1248.325 233.438 1223.312 C233.221 1222.581 233.005 1221.85 232.783 1221.097 C230.386 1212.992 227.991 1204.888 225.596 1196.783 C221.511 1182.961 217.424 1169.14 213.336 1155.319 C212.687 1153.125 212.038 1150.93 211.389 1148.736 C204.268 1124.655 197.135 1100.577 190 1076.5 C180.276 1043.689 170.564 1010.873 160.861 978.056 C156.733 964.096 152.604 950.137 148.475 936.177 C146.938 930.98 145.4 925.783 143.863 920.585 C139.762 906.719 135.661 892.853 131.559 878.987 C127.441 865.068 123.324 851.15 119.208 837.231 C116.8 829.085 114.391 820.94 111.981 812.795 C99.492 770.58 87.038 728.354 74.652 686.108 C66.136 657.062 57.586 628.026 49 599 C37.48 560.055 26.035 521.088 14.607 482.115 C8.853 462.49 3.085 442.87 -2.688 423.25 C-3.125 421.764 -3.562 420.278 -3.999 418.791 C-6.332 410.861 -8.666 402.93 -11 395 C-12.71 397.564 -13.639 399.467 -14.654 402.317 C-14.97 403.2 -15.287 404.082 -15.613 404.991 C-15.784 405.474 -15.784 405.474 -16.648 407.918 C-16.831 408.427 -16.831 408.427 -17.752 411.006 C-18.964 414.398 -20.169 417.793 -21.375 421.188 C-22.229 423.582 -23.083 425.975 -23.938 428.369 C-25.728 433.388 -27.517 438.407 -29.304 443.427 C-31.877 450.658 -34.457 457.886 -37.039 465.113 C-37.449 466.26 -37.858 467.407 -38.28 468.588 C-39.106 470.9 -39.932 473.212 -40.758 475.523 C-42.01 479.028 -43.262 482.534 -44.513 486.039 C-52.534 508.508 -60.586 530.966 -68.641 553.423 C-72.199 563.343 -75.755 573.264 -79.311 583.184 C-81.291 588.706 -83.27 594.228 -85.25 599.75 C-86.042 601.958 -86.833 604.167 -87.625 606.375 C-187.375 884.625 -187.375 884.625 -188.563 887.938 C-189.354 890.145 -190.145 892.353 -190.937 894.561 C-192.919 900.09 -194.901 905.62 -196.884 911.149 C-200.41 920.984 -203.935 930.819 -207.46 940.655 C-216.952 967.145 -226.458 993.63 -235.977 1020.11 C-242.494 1038.237 -249.002 1056.366 -255.5 1074.5 C-264.845 1100.579 -274.213 1126.649 -283.585 1152.718 C-286.979 1162.159 -290.373 1171.601 -293.766 1181.043 C-294.002 1181.702 -294.239 1182.36 -294.483 1183.039 C-295.677 1186.363 -296.872 1189.687 -298.067 1193.011 C-300.221 1199.007 -302.376 1205.003 -304.531 1210.999 C-305.729 1214.333 -306.927 1217.666 -308.125 1221 C-308.604 1222.333 -309.083 1223.667 -309.562 1225 C-309.8 1225.66 -310.037 1226.32 -310.281 1227 C-318.667 1250.333 -327.052 1273.667 -335.438 1297 C-335.675 1297.66 -335.912 1298.32 -336.156 1299 C-336.635 1300.333 -337.115 1301.667 -337.594 1303 C-338.792 1306.334 -339.99 1309.668 -341.188 1313.002 C-343.342 1318.994 -345.495 1324.986 -347.648 1330.978 C-348.842 1334.3 -350.036 1337.623 -351.23 1340.945 C-351.467 1341.604 -351.704 1342.262 -351.947 1342.94 C-355.36 1352.436 -358.772 1361.931 -362.184 1371.427 C-371.474 1397.282 -380.766 1423.137 -390.075 1448.985 C-396.31 1466.298 -402.534 1483.613 -408.756 1500.93 C-417.752 1525.968 -426.757 1551.003 -435.771 1576.034 C-438.295 1583.042 -440.818 1590.05 -443.34 1597.059 C-458.368 1638.818 -473.409 1680.572 -488.515 1722.303 C-492.764 1734.043 -497.006 1745.785 -501.238 1757.531 C-501.696 1758.802 -502.154 1760.073 -502.612 1761.344 C-502.841 1761.978 -503.069 1762.613 -503.305 1763.266 C-504.474 1766.511 -505.643 1769.755 -506.812 1773 C-507.045 1773.645 -507.277 1774.289 -507.516 1774.953 C-514.396 1794.043 -521.307 1813.121 -528.25 1832.188 C-534.489 1849.322 -540.704 1866.466 -546.875 1883.625 C-547.056 1884.129 -547.056 1884.129 -547.973 1886.677 C-549.464 1890.825 -550.956 1894.973 -552.447 1899.12 C-557.25 1912.478 -562.061 1925.834 -566.875 1939.188 C-567.106 1939.829 -567.338 1940.471 -567.576 1941.132 C-574.848 1961.303 -582.159 1981.46 -589.495 2001.608 C-596.182 2019.971 -602.82 2038.351 -609.432 2056.742 C-614.696 2071.383 -619.98 2086.018 -625.276 2100.648 C-629.486 2112.273 -633.687 2123.901 -637.876 2135.534 C-638.607 2137.564 -639.338 2139.593 -640.07 2141.623 C-640.558 2142.98 -641.047 2144.337 -641.536 2145.694 C-641.778 2146.366 -642.02 2147.038 -642.27 2147.73 C-643.453 2151.014 -644.635 2154.299 -645.816 2157.583 C-652.114 2175.092 -658.505 2192.563 -665 2210 C-667.551 2207.493 -669.708 2205.164 -671.594 2202.121 C-672.06 2201.375 -672.527 2200.629 -673.007 2199.86 C-673.5 2199.061 -673.992 2198.261 -674.5 2197.438 C-675.575 2195.713 -676.651 2193.99 -677.727 2192.266 C-677.999 2191.826 -677.999 2191.826 -679.38 2189.604 C-681.859 2185.619 -684.367 2181.653 -686.875 2177.688 C-687.364 2176.913 -687.853 2176.138 -688.357 2175.34 C-692.224 2169.217 -696.11 2163.107 -700 2157 C-706.849 2146.247 -713.658 2135.47 -720.459 2124.687 C-726.879 2114.507 -733.323 2104.343 -739.789 2094.192 C-744.029 2087.533 -748.249 2080.861 -752.461 2074.184 C-756.292 2068.113 -760.143 2062.055 -764 2056 C-768.838 2048.405 -773.657 2040.8 -778.461 2033.184 C-782.292 2027.113 -786.143 2021.055 -790 2015 C-796.849 2004.247 -803.658 1993.47 -810.459 1982.687 C-816.287 1973.446 -822.131 1964.215 -828 1955 C-833.866 1945.79 -839.707 1936.563 -845.532 1927.327 C-848.02 1923.383 -850.51 1919.442 -853 1915.5 C-855.978 1910.786 -858.955 1906.072 -861.93 1901.355 C-867.269 1892.892 -872.624 1884.44 -878 1876 C-883.866 1866.79 -889.707 1857.563 -895.532 1848.327 C-898.02 1844.383 -900.51 1840.442 -903 1836.5 C-904 1834.917 -905 1833.333 -906 1831.75 C-906.495 1830.966 -906.99 1830.182 -907.5 1829.375 C-936 1784.25 -936 1784.25 -937.5 1781.876 C-938.501 1780.29 -939.503 1778.704 -940.504 1777.118 C-942.981 1773.198 -945.456 1769.277 -947.93 1765.355 C-953.269 1756.892 -958.624 1748.44 -964 1740 C-969.866 1730.79 -975.707 1721.563 -981.532 1712.327 C-984.02 1708.383 -986.51 1704.442 -989 1700.5 C-990 1698.917 -991 1697.333 -992 1695.75 C-992.495 1694.966 -992.99 1694.182 -993.5 1693.375 C-1023 1646.667 -1052.5 1599.958 -1082 1553.25 C-1082.495 1552.467 -1082.99 1551.683 -1083.499 1550.876 C-1084.502 1549.289 -1085.504 1547.701 -1086.507 1546.114 C-1088.968 1542.217 -1091.43 1538.32 -1093.895 1534.426 C-1099.417 1525.697 -1104.908 1516.951 -1110.375 1508.188 C-1116.417 1498.505 -1122.523 1488.865 -1128.66 1479.242 C-1133.309 1471.952 -1137.92 1464.639 -1142.532 1457.327 C-1144.519 1454.178 -1146.507 1451.03 -1148.495 1447.883 C-1149.499 1446.293 -1150.503 1444.703 -1151.507 1443.113 C-1153.968 1439.216 -1156.43 1435.32 -1158.895 1431.426 C-1164.417 1422.697 -1169.908 1413.951 -1175.375 1405.188 C-1181.421 1395.498 -1187.532 1385.852 -1193.672 1376.223 C-1201.305 1364.252 -1208.86 1352.233 -1216.375 1340.188 C-1221.78 1331.525 -1227.236 1322.896 -1232.73 1314.29 C-1237.668 1306.544 -1242.535 1298.756 -1247.395 1290.961 C-1251.561 1284.284 -1255.766 1277.634 -1260 1271 C-1265.519 1262.354 -1270.968 1253.666 -1276.395 1244.961 C-1280.561 1238.284 -1284.766 1231.634 -1289 1225 C-1294.519 1216.354 -1299.968 1207.666 -1305.395 1198.961 C-1309.561 1192.284 -1313.766 1185.634 -1318 1179 C-1323.562 1170.286 -1329.057 1161.532 -1334.529 1152.761 C-1339.837 1144.252 -1345.185 1135.769 -1350.548 1127.294 C-1353.035 1123.365 -1355.517 1119.432 -1358 1115.5 C-1359 1113.917 -1360 1112.333 -1361 1110.75 C-1363 1107.583 -1365 1104.417 -1367 1101.25 C-1367.495 1100.467 -1367.99 1099.683 -1368.499 1098.876 C-1369.502 1097.289 -1370.504 1095.701 -1371.507 1094.114 C-1373.968 1090.217 -1376.43 1086.32 -1378.895 1082.426 C-1385.105 1072.609 -1391.275 1062.768 -1397.426 1052.915 C-1402.772 1044.356 -1408.152 1035.821 -1413.548 1027.294 C-1416.538 1022.569 -1419.522 1017.841 -1422.507 1013.113 C-1424.968 1009.216 -1427.43 1005.32 -1429.895 1001.426 C-1436.105 991.609 -1442.275 981.768 -1448.426 971.915 C-1453.772 963.356 -1459.152 954.821 -1464.548 946.294 C-1467.538 941.569 -1470.522 936.841 -1473.507 932.113 C-1475.968 928.216 -1478.43 924.32 -1480.895 920.426 C-1487.105 910.609 -1493.275 900.768 -1499.426 890.915 C-1504.772 882.356 -1510.152 873.821 -1515.548 865.294 C-1518.538 860.569 -1521.522 855.841 -1524.507 851.113 C-1526.968 847.216 -1529.43 843.32 -1531.895 839.426 C-1538.105 829.609 -1544.275 819.768 -1550.426 809.915 C-1556.251 800.589 -1562.119 791.291 -1568 782 C-1575.178 770.66 -1582.319 759.299 -1589.426 747.915 C-1594.286 740.134 -1599.171 732.371 -1604.078 724.621 C-1606.138 721.368 -1608.188 718.109 -1610.234 714.848 C-1610.77 713.995 -1611.306 713.142 -1611.859 712.263 C-1612.876 710.644 -1613.891 709.024 -1614.905 707.403 C-1615.137 707.035 -1615.137 707.035 -1616.309 705.172 C-1616.709 704.533 -1617.109 703.895 -1617.521 703.237 C-1618.838 701.244 -1620.201 699.302 -1621.592 697.36 C-1622.043 696.731 -1622.494 696.101 -1622.958 695.453 C-1623.302 694.973 -1623.646 694.494 -1624 694 C-1630.279 712.814 -1636.557 731.629 -1642.832 750.445 C-1645.748 759.187 -1648.664 767.928 -1651.582 776.669 C-1654.133 784.312 -1656.682 791.955 -1659.231 799.599 C-1660.573 803.625 -1661.916 807.65 -1663.26 811.674 C-1669.126 829.241 -1674.931 846.826 -1680.648 864.442 C-1688.541 888.757 -1696.621 913.01 -1704.709 937.261 C-1705.957 941.005 -1707.206 944.749 -1708.453 948.494 C-1708.559 948.81 -1708.559 948.81 -1709.091 950.408 C-1709.52 951.694 -1709.948 952.979 -1710.376 954.265 C-1714.344 966.171 -1718.314 978.076 -1722.284 989.982 C-1725.653 1000.085 -1729.021 1010.189 -1732.388 1020.293 C-1736.346 1032.175 -1740.306 1044.057 -1744.268 1055.937 C-1744.694 1057.216 -1745.12 1058.495 -1745.547 1059.774 C-1745.756 1060.402 -1745.966 1061.03 -1746.182 1061.678 C-1747.622 1066 -1749.063 1070.322 -1750.502 1074.644 C-1758.656 1099.116 -1766.847 1123.574 -1775.207 1147.977 C-1780.094 1162.245 -1784.887 1176.543 -1789.641 1190.856 C-1790.764 1194.233 -1791.888 1197.61 -1793.013 1200.987 C-1795.844 1209.491 -1798.672 1217.995 -1801.5 1226.5 C-1805.238 1237.74 -1808.976 1248.98 -1812.719 1260.219 C-1812.832 1260.558 -1812.832 1260.558 -1813.404 1262.277 C-1819.627 1280.967 -1825.911 1299.634 -1832.303 1318.267 C-1837.32 1332.894 -1842.215 1347.56 -1847.085 1362.236 C-1849.553 1369.674 -1852.028 1377.109 -1854.504 1384.543 C-1854.746 1385.27 -1854.989 1385.998 -1855.238 1386.748 C-1859.515 1399.583 -1863.859 1412.395 -1868.254 1425.19 C-1873.536 1440.567 -1878.686 1455.986 -1883.795 1471.421 C-1887.945 1483.939 -1892.187 1496.425 -1896.457 1508.902 C-1901.725 1524.297 -1906.949 1539.707 -1912.137 1555.129 C-1912.482 1556.154 -1912.827 1557.18 -1913.182 1558.237 C-1914.955 1563.509 -1916.728 1568.781 -1918.5 1574.054 C-1922.248 1585.207 -1926.001 1596.36 -1929.754 1607.512 C-1930.121 1608.601 -1930.487 1609.691 -1930.865 1610.814 C-1936.595 1627.842 -1942.343 1644.864 -1948.125 1661.875 C-1948.482 1662.927 -1948.84 1663.978 -1949.208 1665.062 C-1949.565 1666.111 -1949.921 1667.159 -1950.288 1668.24 C-1951.01 1670.363 -1951.732 1672.486 -1952.453 1674.609 C-1952.81 1675.658 -1953.166 1676.707 -1953.534 1677.788 C-1958.406 1692.131 -1963.252 1706.483 -1968.101 1720.834 C-1970.402 1727.643 -1972.703 1734.452 -1975.004 1741.262 C-1975.256 1742.006 -1975.507 1742.751 -1975.767 1743.519 C-1989.642 1784.575 -2003.561 1825.616 -2017.489 1866.654 C-2021.43 1878.267 -2025.371 1889.882 -2029.311 1901.496 C-2030.498 1904.993 -2031.684 1908.491 -2032.871 1911.988 C-2036.452 1922.543 -2040.034 1933.099 -2043.614 1943.654 C-2051.915 1968.126 -2060.22 1992.597 -2068.542 2017.062 C-2074.224 2033.768 -2079.895 2050.477 -2085.562 2067.188 C-2092.383 2087.297 -2099.218 2107.402 -2106.064 2127.503 C-2106.387 2128.452 -2106.71 2129.401 -2107.043 2130.379 C-2107.204 2130.853 -2107.204 2130.853 -2108.022 2133.253 C-2111.831 2144.438 -2115.634 2155.625 -2119.438 2166.812 C-2119.79 2167.85 -2120.143 2168.887 -2120.506 2169.955 C-2122.29 2175.204 -2124.075 2180.453 -2125.859 2185.702 C-2129.759 2197.175 -2133.66 2208.648 -2137.561 2220.121 C-2138.623 2223.244 -2139.684 2226.366 -2140.746 2229.488 C-2141.097 2230.519 -2141.447 2231.55 -2141.808 2232.611 C-2143.943 2238.892 -2146.078 2245.172 -2148.213 2251.452 C-2157.474 2278.695 -2166.742 2305.935 -2176.016 2333.173 C-2178.01 2339.028 -2180.003 2344.883 -2181.996 2350.738 C-2182.326 2351.708 -2182.656 2352.678 -2182.997 2353.678 C-2183.998 2356.618 -2184.999 2359.559 -2186 2362.5 C-2193.339 2384.059 -2193.339 2384.059 -2196.974 2394.736 C-2204.154 2415.822 -2211.331 2436.91 -2218.5 2458 C-2225.999 2480.06 -2233.506 2502.117 -2241.016 2524.173 C-2244.011 2532.969 -2247.005 2541.764 -2249.999 2550.559 C-2251.666 2555.456 -2253.333 2560.353 -2255 2565.25 C-2255.667 2567.208 -2256.333 2569.167 -2257 2571.125 C-2274.333 2622.042 -2291.667 2672.958 -2309 2723.875 C-2309.33 2724.844 -2309.66 2725.814 -2310 2726.813 C-2310.667 2728.771 -2311.333 2730.729 -2312 2732.687 C-2313.667 2737.585 -2315.335 2742.483 -2317.002 2747.382 C-2319.993 2756.166 -2322.983 2764.951 -2325.974 2773.736 C-2335.277 2801.055 -2344.57 2828.377 -2353.859 2855.702 C-2357.052 2865.094 -2360.245 2874.486 -2363.439 2883.878 C-2365.209 2889.085 -2366.98 2894.293 -2368.75 2899.5 C-2369.458 2901.583 -2370.167 2903.667 -2370.875 2905.75 C-2371.226 2906.781 -2371.576 2907.812 -2371.938 2908.875 C-2373 2912 -2374.063 2915.125 -2375.125 2918.25 C-2375.476 2919.281 -2375.826 2920.313 -2376.188 2921.375 C-2376.896 2923.458 -2377.604 2925.541 -2378.312 2927.624 C-2380.085 2932.837 -2381.857 2938.05 -2383.629 2943.263 C-2386.798 2952.583 -2389.967 2961.902 -2393.136 2971.221 C-2401.337 2995.333 -2409.529 3019.447 -2417.709 3043.566 C-2423.257 3059.922 -2428.812 3076.274 -2434.375 3092.625 C-2440.993 3112.078 -2447.588 3131.538 -2454.177 3151 C-2460.251 3168.942 -2466.335 3186.88 -2472.438 3204.812 C-2481.024 3230.045 -2489.566 3255.292 -2498.107 3280.54 C-2501.478 3290.504 -2504.851 3300.467 -2508.227 3310.43 C-2508.439 3311.057 -2508.652 3311.684 -2508.871 3312.331 C-2509.728 3314.862 -2510.586 3317.394 -2511.444 3319.925 C-2521.87 3350.698 -2532.278 3381.477 -2542.68 3412.259 C-2546.156 3422.544 -2549.632 3432.828 -2553.11 3443.113 C-2566.892 3483.864 -2580.648 3524.625 -2594.389 3565.39 C-2598.897 3578.765 -2603.408 3592.139 -2607.921 3605.513 C-2610.864 3614.238 -2613.807 3622.962 -2616.75 3631.688 C-2617.069 3632.632 -2617.387 3633.577 -2617.715 3634.55 C-2625.944 3658.949 -2634.164 3683.35 -2642.253 3707.796 C-2645.063 3716.275 -2647.905 3724.742 -2650.805 3733.191 C-2658.14 3754.573 -2665.359 3775.991 -2672.5 3797.438 C-2672.732 3798.133 -2672.963 3798.828 -2673.202 3799.545 C-2676.804 3810.362 -2680.402 3821.181 -2684 3832 C-2687.137 3841.433 -2690.274 3850.866 -2693.415 3860.298 C-2694.544 3863.689 -2695.672 3867.08 -2696.799 3870.472 C-2702.034 3886.231 -2707.344 3901.962 -2712.723 3917.672 C-2719.905 3938.65 -2726.937 3959.677 -2733.939 3980.716 C-2735.638 3985.82 -2737.339 3990.923 -2739.04 3996.026 C-2742.235 4005.615 -2745.429 4015.204 -2748.622 4024.794 C-2752.268 4035.743 -2755.916 4046.692 -2759.564 4057.64 C-2767.044 4080.093 -2774.523 4102.546 -2782 4125 C-2782.994 4121.504 -2782.857 4119.672 -2781.731 4116.186 C-2781.425 4115.221 -2781.118 4114.255 -2780.803 4113.26 C-2780.63 4112.734 -2780.63 4112.734 -2779.758 4110.074 C-2779.404 4108.966 -2779.049 4107.857 -2778.684 4106.716 C-2777.913 4104.306 -2777.137 4101.898 -2776.358 4099.492 C-2775.106 4095.63 -2773.867 4091.764 -2772.632 4087.896 C-2772.423 4087.243 -2772.214 4086.589 -2771.999 4085.916 C-2771.574 4084.586 -2771.149 4083.255 -2770.725 4081.925 C-2770.078 4079.9 -2769.429 4077.876 -2768.781 4075.851 C-2764.702 4063.116 -2760.744 4050.344 -2756.812 4037.562 C-2755.407 4033.001 -2754 4028.44 -2752.594 4023.879 C-2752.232 4022.705 -2751.87 4021.53 -2751.497 4020.32 C-2746.87 4005.325 -2742.207 3990.342 -2737.546 3975.358 C-2735.336 3968.253 -2733.127 3961.148 -2730.918 3954.043 C-2730.673 3953.256 -2730.428 3952.468 -2730.176 3951.657 C-2715.772 3905.324 -2701.434 3858.971 -2687.115 3812.611 C-2685.955 3808.854 -2684.794 3805.096 -2683.633 3801.338 C-2680.205 3790.24 -2676.777 3779.142 -2673.35 3768.043 C-2672.675 3765.855 -2672 3763.667 -2671.324 3761.48 C-2670.867 3759.999 -2670.41 3758.518 -2669.953 3757.038 C-2667.062 3747.675 -2664.169 3738.312 -2661.274 3728.951 C-2658.431 3719.759 -2655.59 3710.567 -2652.75 3701.375 C-2652.489 3700.53 -2652.228 3699.686 -2651.959 3698.815 C-2643.523 3671.509 -2635.168 3644.179 -2626.853 3616.836 C-2618.351 3588.882 -2609.74 3560.963 -2601.062 3533.062 C-2592.946 3506.964 -2584.868 3480.857 -2576.915 3454.708 C-2576.199 3452.352 -2575.482 3449.996 -2574.766 3447.641 C-2574.402 3446.444 -2574.037 3445.247 -2573.662 3444.014 C-2568.349 3426.558 -2562.985 3409.119 -2557.629 3391.676 C-2548.984 3363.519 -2540.351 3335.358 -2531.75 3307.188 C-2524.591 3283.741 -2517.416 3260.3 -2510.225 3236.864 C-2502.429 3211.455 -2494.642 3186.043 -2486.875 3160.625 C-2486.648 3159.883 -2486.421 3159.14 -2486.188 3158.375 C-2478.84 3134.326 -2471.514 3110.271 -2464.196 3086.214 C-2457.5 3064.2 -2450.788 3042.192 -2444.062 3020.188 C-2443.835 3019.443 -2443.607 3018.698 -2443.373 3017.931 C-2439.685 3005.865 -2435.996 2993.8 -2432.307 2981.734 C-2428.85 2970.427 -2425.393 2959.12 -2421.938 2947.812 C-2421.71 2947.068 -2421.482 2946.324 -2421.248 2945.557 C-2412.113 2915.665 -2403.007 2885.764 -2393.912 2855.861 C-2390.86 2845.827 -2387.807 2835.794 -2384.754 2825.762 C-2384.537 2825.05 -2384.321 2824.338 -2384.097 2823.605 C-2382.346 2817.85 -2380.595 2812.096 -2378.843 2806.342 C-2377.311 2801.307 -2375.778 2796.273 -2374.246 2791.238 C-2374.029 2790.526 -2373.813 2789.814 -2373.589 2789.081 C-2370.538 2779.053 -2367.487 2769.026 -2364.437 2758.998 C-2362.479 2752.561 -2360.521 2746.124 -2358.562 2739.688 C-2358.346 2738.977 -2358.13 2738.267 -2357.908 2737.535 C-2351.246 2715.639 -2344.564 2693.749 -2337.872 2671.863 C-2337.759 2671.493 -2337.759 2671.493 -2337.188 2669.625 C-2337.075 2669.256 -2337.075 2669.256 -2336.503 2667.387 C-2328.956 2642.704 -2321.437 2618.011 -2313.938 2593.312 C-2313.686 2592.485 -2313.435 2591.657 -2313.176 2590.805 C-2311.16 2584.166 -2309.144 2577.528 -2307.129 2570.889 C-2301.883 2553.612 -2296.632 2536.336 -2291.375 2519.062 C-2291.161 2518.36 -2290.948 2517.658 -2290.728 2516.935 C-2285.71 2500.445 -2280.684 2483.957 -2275.645 2467.473 C-2275.421 2466.741 -2275.197 2466.01 -2274.967 2465.257 C-2273.146 2459.299 -2271.324 2453.341 -2269.502 2447.384 C-2261.974 2422.764 -2254.478 2398.135 -2247 2373.5 C-2239.295 2348.117 -2231.57 2322.742 -2223.812 2297.375 C-2221.997 2291.439 -2220.182 2285.503 -2218.367 2279.566 C-2218.256 2279.202 -2218.256 2279.202 -2217.692 2277.359 C-2212.594 2260.681 -2207.514 2243.997 -2202.438 2227.312 C-2202.221 2226.602 -2202.005 2225.892 -2201.783 2225.161 C-2198.521 2214.441 -2195.26 2203.72 -2192 2193 C-2179.079 2150.517 -2166.133 2108.041 -2153.151 2065.577 C-2149.932 2055.048 -2146.713 2044.518 -2143.496 2033.988 C-2143.269 2033.246 -2143.043 2032.504 -2142.809 2031.739 C-2141.664 2027.992 -2140.519 2024.244 -2139.374 2020.497 C-2137.312 2013.748 -2135.25 2006.999 -2133.188 2000.25 C-2132.042 1996.5 -2130.896 1992.75 -2129.75 1989 C-2129.292 1987.5 -2128.833 1986 -2128.375 1984.5 C-2128.148 1983.757 -2127.921 1983.015 -2127.688 1982.25 C-2127 1980 -2126.312 1977.75 -2125.625 1975.5 C-2125.512 1975.129 -2125.512 1975.129 -2124.938 1973.25 C-2124.479 1971.75 -2124.021 1970.25 -2123.562 1968.75 C-2122.417 1965 -2121.271 1961.25 -2120.125 1957.5 C-2118.062 1950.749 -2115.999 1943.997 -2113.936 1937.245 C-2112.789 1933.493 -2111.643 1929.741 -2110.496 1925.988 C-2110.269 1925.245 -2110.042 1924.503 -2109.808 1923.737 C-2106.611 1913.272 -2103.414 1902.807 -2100.218 1892.341 C-2090.182 1859.478 -2080.128 1826.62 -2070.048 1793.769 C-2063.55 1772.589 -2057.064 1751.404 -2050.594 1730.214 C-2041.977 1701.992 -2033.341 1673.774 -2024.688 1645.562 C-2024.404 1644.637 -2024.12 1643.712 -2023.827 1642.758 C-2017.438 1621.928 -2011.038 1601.102 -2004.605 1580.285 C-2004.347 1579.447 -2004.088 1578.609 -2003.821 1577.746 C-2001.747 1571.035 -1999.673 1564.324 -1997.599 1557.614 C-1989.805 1532.403 -1982.079 1507.173 -1974.401 1481.927 C-1962.951 1444.278 -1951.315 1406.689 -1939.629 1369.113 C-1934.24 1351.787 -1928.878 1334.454 -1923.528 1317.116 C-1922.876 1315.005 -1922.225 1312.893 -1921.573 1310.782 C-1919.895 1305.346 -1918.218 1299.91 -1916.541 1294.474 C-1897.506 1232.781 -1878.388 1171.115 -1859.245 1109.455 C-1856.737 1101.377 -1854.232 1093.298 -1851.727 1085.219 C-1840.998 1050.62 -1830.226 1016.034 -1819.441 981.453 C-1815.846 969.923 -1812.253 958.393 -1808.664 946.862 C-1797.709 911.677 -1786.717 876.505 -1775.658 841.353 C-1774.762 838.503 -1773.865 835.654 -1772.969 832.805 C-1772.752 832.115 -1772.535 831.425 -1772.311 830.714 C-1768.338 818.085 -1764.383 805.45 -1760.438 792.812 C-1741.385 731.789 -1722.212 670.804 -1702.949 609.848 C-1702.442 608.243 -1701.935 606.639 -1701.428 605.034 C-1701.177 604.24 -1700.926 603.446 -1700.668 602.628 C-1699.404 598.627 -1698.139 594.626 -1696.875 590.625 C-1696.751 590.232 -1696.751 590.232 -1696.122 588.242 C-1688.799 565.065 -1681.498 541.881 -1674.228 518.687 C-1673.579 516.615 -1672.929 514.542 -1672.279 512.47 C-1666.487 493.99 -1660.731 475.499 -1655 457 C-1652.569 459.395 -1650.42 461.627 -1648.59 464.512 C-1648.163 465.178 -1647.736 465.845 -1647.297 466.531 C-1646.848 467.243 -1646.4 467.954 -1645.938 468.688 C-1644.957 470.223 -1643.977 471.758 -1642.996 473.293 C-1642.498 474.076 -1642.001 474.859 -1641.488 475.666 C-1639.178 479.29 -1636.838 482.894 -1634.5 486.5 C-1633.577 487.927 -1632.654 489.354 -1631.73 490.781 C-1629.964 493.512 -1628.196 496.241 -1626.426 498.969 C-1621.002 507.334 -1615.617 515.723 -1610.25 524.125 C-1603.714 534.354 -1597.107 544.535 -1590.465 554.695 C-1586.049 561.451 -1581.667 568.228 -1577.289 575.007 C-1576.008 576.988 -1574.725 578.967 -1573.441 580.945 C-1568.012 589.318 -1562.622 597.715 -1557.25 606.125 C-1550.714 616.354 -1544.107 626.535 -1537.465 636.695 C-1533.057 643.439 -1528.682 650.204 -1524.311 656.972 C-1522.503 659.769 -1520.694 662.564 -1518.885 665.36 C-1517.961 666.788 -1517.037 668.216 -1516.113 669.644 C-1513.886 673.087 -1511.657 676.529 -1509.426 679.969 C-1504.002 688.334 -1498.617 696.723 -1493.25 705.125 C-1486.714 715.354 -1480.107 725.535 -1473.465 735.695 C-1469.049 742.451 -1464.667 749.228 -1460.289 756.007 C-1459.008 757.988 -1457.725 759.967 -1456.441 761.945 C-1451.012 770.318 -1445.622 778.715 -1440.25 787.125 C-1433.714 797.354 -1427.107 807.535 -1420.465 817.695 C-1416.049 824.451 -1411.667 831.228 -1407.289 838.007 C-1406.008 839.988 -1404.725 841.967 -1403.441 843.945 C-1398.012 852.318 -1392.622 860.715 -1387.25 869.125 C-1380.714 879.354 -1374.107 889.535 -1367.465 899.695 C-1363.049 906.451 -1358.667 913.228 -1354.289 920.007 C-1353.008 921.988 -1351.725 923.967 -1350.441 925.945 C-1345.012 934.318 -1339.622 942.715 -1334.25 951.125 C-1327.123 962.278 -1319.907 973.371 -1312.665 984.45 C-1305.797 994.968 -1299.013 1005.539 -1292.25 1016.125 C-1286.433 1025.229 -1280.56 1034.294 -1274.646 1043.334 C-1269.369 1051.41 -1264.17 1059.533 -1258.98 1067.664 C-1254.526 1074.635 -1250.029 1081.577 -1245.5 1088.5 C-1239.6 1097.517 -1233.778 1106.581 -1227.98 1115.664 C-1223.526 1122.635 -1219.029 1129.577 -1214.5 1136.5 C-1208.6 1145.517 -1202.778 1154.581 -1196.98 1163.664 C-1192.526 1170.635 -1188.029 1177.577 -1183.5 1184.5 C-1177.6 1193.517 -1171.778 1202.581 -1165.98 1211.664 C-1161.526 1218.635 -1157.029 1225.577 -1152.5 1232.5 C-1146.558 1241.582 -1140.692 1250.71 -1134.851 1259.857 C-1129.105 1268.851 -1123.295 1277.803 -1117.469 1286.745 C-1110.637 1297.235 -1103.867 1307.764 -1097.125 1318.312 C-1090.621 1328.488 -1084.062 1338.626 -1077.469 1348.745 C-1070.637 1359.235 -1063.867 1369.764 -1057.125 1380.312 C-1050.621 1390.488 -1044.062 1400.626 -1037.469 1410.745 C-1029.934 1422.315 -1022.479 1433.935 -1015.044 1445.569 C-1010.374 1452.869 -1005.667 1460.143 -1000.934 1467.402 C-995.891 1475.146 -990.917 1482.934 -985.941 1490.723 C-981.822 1497.167 -977.677 1503.593 -973.5 1510 C-967.884 1518.613 -962.337 1527.269 -956.801 1535.934 C-953.051 1541.8 -949.29 1547.659 -945.5 1553.5 C-940.264 1561.57 -935.084 1569.676 -929.902 1577.781 C-926.118 1583.698 -922.323 1589.608 -918.5 1595.5 C-913.264 1603.57 -908.084 1611.676 -902.902 1619.781 C-899.118 1625.698 -895.323 1631.608 -891.5 1637.5 C-886.264 1645.57 -881.084 1653.676 -875.902 1661.781 C-872.118 1667.698 -868.323 1673.608 -864.5 1679.5 C-859.264 1687.57 -854.084 1695.676 -848.902 1703.781 C-845.118 1709.698 -841.323 1715.608 -837.5 1721.5 C-832.264 1729.57 -827.084 1737.676 -821.902 1745.781 C-818.118 1751.698 -814.323 1757.608 -810.5 1763.5 C-802.572 1775.724 -794.745 1788.013 -786.897 1800.289 C-780.029 1811.032 -773.161 1821.774 -766.221 1832.471 C-761.415 1839.886 -756.662 1847.336 -751.902 1854.781 C-748.118 1860.698 -744.323 1866.608 -740.5 1872.5 C-735.267 1880.566 -730.089 1888.667 -724.911 1896.768 C-721.043 1902.816 -717.16 1908.854 -713.25 1914.875 C-707.415 1923.863 -701.708 1932.931 -696 1942 C-690.138 1926.58 -684.502 1911.094 -679.061 1895.52 C-676.988 1889.587 -674.906 1883.657 -672.824 1877.727 C-672.409 1876.543 -671.994 1875.36 -671.566 1874.141 C-667.976 1863.914 -664.343 1853.703 -660.688 1843.5 C-656.39 1831.5 -652.106 1819.495 -647.848 1807.48 C-647.735 1807.162 -647.735 1807.162 -647.164 1805.552 C-646 1802.268 -644.836 1798.985 -643.673 1795.701 C-636.341 1775.016 -628.984 1754.341 -621.562 1733.688 C-614.421 1713.812 -607.351 1693.912 -600.312 1674 C-600.189 1673.652 -600.189 1673.652 -599.567 1671.89 C-597.618 1666.378 -595.67 1660.865 -593.721 1655.352 C-581.51 1620.801 -569.184 1586.291 -556.853 1551.782 C-552.649 1540.018 -548.447 1528.254 -544.246 1516.489 C-542.164 1510.659 -540.082 1504.83 -538 1499 C-537.167 1496.667 -536.333 1494.333 -535.5 1492 C-510.5 1422 -510.5 1422 -509.25 1418.5 C-508.417 1416.167 -507.583 1413.833 -506.75 1411.5 C-504.667 1405.669 -502.585 1399.838 -500.502 1394.007 C-496.742 1383.479 -492.982 1372.951 -489.224 1362.423 C-480.274 1337.347 -471.311 1312.276 -462.321 1287.214 C-456.222 1270.21 -450.137 1253.201 -444.062 1236.188 C-443.649 1235.028 -443.235 1233.869 -442.808 1232.674 C-439.872 1224.45 -436.936 1216.225 -434 1208 C-430.646 1198.604 -427.292 1189.208 -423.938 1179.812 C-423.523 1178.653 -423.109 1177.493 -422.683 1176.299 C-416.244 1158.266 -409.788 1140.24 -403.322 1122.217 C-397.2 1105.15 -391.095 1088.077 -385 1071 C-378.491 1052.766 -371.973 1034.537 -365.438 1016.312 C-365.047 1015.224 -364.657 1014.135 -364.254 1013.013 C-361.111 1004.248 -357.967 995.483 -354.823 986.719 C-352.069 979.042 -349.315 971.365 -346.562 963.688 C-346.172 962.599 -345.782 961.51 -345.38 960.389 C-339.239 943.264 -333.116 926.133 -327 909 C-318.142 884.184 -309.256 859.379 -300.359 834.577 C-296.801 824.657 -293.245 814.736 -289.689 804.816 C-287.709 799.294 -285.73 793.772 -283.75 788.25 C-282.958 786.042 -282.167 783.833 -281.375 781.625 C-257.625 715.375 -257.625 715.375 -256.437 712.062 C-255.646 709.855 -254.855 707.647 -254.063 705.439 C-252.081 699.91 -250.099 694.38 -248.116 688.851 C-244.59 679.016 -241.065 669.181 -237.54 659.345 C-228.048 632.855 -218.542 606.37 -209.023 579.89 C-202.506 561.763 -195.997 543.634 -189.5 525.5 C-182.266 505.312 -175.018 485.13 -167.763 464.949 C-160.895 445.845 -154.035 426.737 -147.188 407.625 C-140.491 388.937 -133.777 370.255 -127.05 351.579 C-121.106 335.077 -115.172 318.571 -109.242 302.065 C-102.063 282.083 -94.88 262.102 -87.688 242.125 C-87.505 241.619 -87.505 241.619 -86.584 239.061 C-83.699 231.047 -80.813 223.034 -77.927 215.02 C-66.098 182.176 -54.286 149.326 -42.482 116.472 C-39.213 107.374 -35.943 98.277 -32.673 89.179 C-31.916 87.073 -31.16 84.967 -30.403 82.861 C-28.188 76.699 -25.974 70.537 -23.758 64.376 C-22.585 61.113 -21.411 57.849 -20.238 54.586 C-20.012 53.957 -19.786 53.328 -19.553 52.681 C-16.52 44.241 -13.496 35.798 -10.48 27.352 C-9.498 24.603 -8.515 21.854 -7.533 19.105 C-6.651 16.636 -5.773 14.165 -4.894 11.695 C-4.38 10.256 -3.866 8.818 -3.352 7.379 C-2.917 6.158 -2.482 4.936 -2.034 3.678 C-1 1 -1 1 0 0 Z " fill="#000000" transform="translate(3009,67)"/>
<path d="M0 0 C1.806 2.71 2.635 4.601 3.594 7.653 C3.897 8.609 4.2 9.565 4.512 10.55 C4.838 11.597 5.164 12.644 5.5 13.723 C5.847 14.824 6.194 15.926 6.552 17.06 C7.706 20.726 8.853 24.394 10 28.062 C10.609 30.002 11.218 31.941 11.827 33.88 C18.597 55.42 25.291 76.985 31.972 98.553 C37.581 116.664 43.219 134.767 48.863 152.867 C49.626 155.317 50.39 157.766 51.154 160.216 C55.787 175.079 60.422 189.942 65.059 204.805 C68.081 214.495 71.103 224.185 74.125 233.875 C74.374 234.673 74.623 235.472 74.879 236.294 C82.485 260.686 90.059 285.088 97.613 309.496 C105.162 333.885 112.755 358.259 120.375 382.625 C120.636 383.459 120.896 384.292 121.165 385.152 C122.483 389.364 123.8 393.577 125.118 397.79 C125.379 398.625 125.64 399.459 125.908 400.319 C126.436 402.005 126.963 403.691 127.491 405.378 C133.399 424.27 139.296 443.165 145.188 462.062 C145.436 462.859 145.684 463.656 145.94 464.477 C153.525 488.808 161.078 513.15 168.614 537.497 C176.162 561.885 183.755 586.259 191.375 610.625 C191.636 611.459 191.896 612.292 192.165 613.152 C193.483 617.364 194.8 621.577 196.118 625.79 C196.379 626.625 196.64 627.459 196.908 628.319 C197.436 630.005 197.963 631.691 198.491 633.378 C204.399 652.27 210.296 671.165 216.188 690.062 C216.436 690.859 216.684 691.656 216.94 692.477 C224.525 716.808 232.078 741.15 239.614 765.497 C247.162 789.885 254.755 814.259 262.375 838.625 C262.898 840.297 263.42 841.968 263.943 843.64 C265.775 849.498 267.607 855.357 269.439 861.215 C274.832 878.46 280.221 895.705 285.602 912.953 C286.874 917.029 288.146 921.105 289.419 925.181 C296.055 946.422 302.582 967.693 309 989 C295.565 996.468 282.009 1003.6 268.224 1010.395 C260.53 1014.198 252.914 1018.126 245.327 1022.139 C237.439 1026.308 229.504 1030.382 221.559 1034.443 C217.309 1036.616 213.061 1038.792 208.812 1040.969 C207.968 1041.401 207.124 1041.833 206.255 1042.279 C198.869 1046.064 191.494 1049.87 184.125 1053.688 C174.006 1058.929 163.881 1064.158 153.75 1069.375 C153.407 1069.552 153.407 1069.552 151.668 1070.447 C146.078 1073.326 140.487 1076.205 134.896 1079.083 C130.014 1081.597 125.132 1084.111 120.25 1086.625 C119.563 1086.979 118.877 1087.332 118.169 1087.697 C108.608 1092.621 99.052 1097.556 89.5 1102.5 C79.256 1107.802 69.005 1113.093 58.75 1118.375 C58.064 1118.729 57.377 1119.082 56.67 1119.446 C51.079 1122.326 45.487 1125.204 39.896 1128.083 C35.014 1130.597 30.132 1133.111 25.25 1135.625 C24.906 1135.802 24.906 1135.802 23.167 1136.698 C13.648 1141.601 4.134 1146.515 -5.375 1151.438 C-16.822 1157.364 -28.283 1163.264 -39.748 1169.155 C-49.673 1174.256 -59.591 1179.369 -69.5 1184.5 C-80.157 1190.018 -90.826 1195.515 -101.5 1201 C-112.216 1206.507 -122.926 1212.024 -133.625 1217.562 C-143.828 1222.844 -154.036 1228.115 -164.25 1233.375 C-164.937 1233.729 -165.623 1234.082 -166.331 1234.447 C-171.921 1237.326 -177.513 1240.205 -183.104 1243.083 C-187.986 1245.597 -192.868 1248.111 -197.75 1250.625 C-198.094 1250.802 -198.094 1250.802 -199.833 1251.698 C-209.352 1256.601 -218.866 1261.515 -228.375 1266.438 C-239.822 1272.364 -251.283 1278.264 -262.748 1284.155 C-272.673 1289.256 -282.591 1294.369 -292.5 1299.5 C-303.906 1305.406 -315.325 1311.285 -326.749 1317.156 C-336.673 1322.256 -346.591 1327.369 -356.5 1332.5 C-367.157 1338.018 -377.826 1343.515 -388.5 1349 C-399.216 1354.507 -409.926 1360.024 -420.625 1365.562 C-430.471 1370.659 -440.319 1375.752 -450.172 1380.833 C-451.565 1381.552 -452.958 1382.271 -454.351 1382.991 C-464.194 1388.074 -474.081 1393.066 -484 1398 C-481.861 1389.668 -479.237 1381.563 -476.422 1373.438 C-475.974 1372.137 -475.526 1370.836 -475.079 1369.535 C-473.887 1366.072 -472.691 1362.612 -471.494 1359.151 C-470.491 1356.252 -469.492 1353.353 -468.492 1350.453 C-462.219 1332.254 -455.906 1314.068 -449.549 1295.897 C-444.538 1281.569 -439.577 1267.224 -434.625 1252.875 C-428.23 1234.346 -421.822 1215.822 -415.393 1197.305 C-411.412 1185.836 -407.433 1174.367 -403.465 1162.895 C-403.086 1161.8 -402.708 1160.706 -402.318 1159.579 C-401.553 1157.367 -400.788 1155.154 -400.022 1152.942 C-394.225 1136.182 -388.413 1119.429 -382.562 1102.688 C-376.061 1084.08 -369.621 1065.452 -363.19 1046.82 C-357.606 1030.643 -352.006 1014.472 -346.393 998.305 C-342.412 986.836 -338.433 975.367 -334.465 963.895 C-334.276 963.347 -334.276 963.347 -333.318 960.579 C-332.553 958.367 -331.788 956.154 -331.022 953.942 C-325.225 937.182 -319.413 920.429 -313.562 903.688 C-307.061 885.08 -300.621 866.452 -294.19 847.82 C-288.606 831.643 -283.006 815.472 -277.393 799.305 C-273.412 787.836 -269.433 776.367 -265.465 764.895 C-265.276 764.347 -265.276 764.347 -264.318 761.579 C-263.553 759.367 -262.788 757.154 -262.022 754.942 C-256.225 738.182 -250.413 721.429 -244.562 704.688 C-238.061 686.08 -231.621 667.452 -225.19 648.82 C-219.606 632.643 -214.006 616.472 -208.393 600.305 C-204.412 588.836 -200.433 577.367 -196.465 565.895 C-196.276 565.347 -196.276 565.347 -195.318 562.579 C-194.553 560.367 -193.788 558.154 -193.022 555.942 C-187.225 539.182 -181.412 522.429 -175.562 505.688 C-169.903 489.491 -164.286 473.28 -158.688 457.062 C-158.288 455.906 -157.889 454.75 -157.478 453.559 C-155.86 448.871 -154.242 444.184 -152.624 439.496 C-148.338 427.079 -144.046 414.664 -139.75 402.25 C-139.376 401.168 -139.001 400.086 -138.616 398.972 C-133.32 383.672 -127.998 368.382 -122.658 353.098 C-116.459 335.353 -110.322 317.587 -104.19 299.82 C-98.606 283.643 -93.006 267.472 -87.393 251.305 C-83.412 239.836 -79.433 228.367 -75.465 216.895 C-75.276 216.347 -75.276 216.347 -74.318 213.579 C-73.553 211.367 -72.788 209.154 -72.022 206.942 C-66.225 190.182 -60.413 173.429 -54.562 156.688 C-48.881 140.429 -43.244 124.155 -37.625 107.875 C-10.932 30.553 -10.932 30.553 0 0 Z " fill="#000000" transform="translate(2981,1327)"/>
<path d="M0 0 C3.013 2.82 5.191 5.64 7.328 9.164 C7.955 10.19 8.581 11.217 9.227 12.274 C9.561 12.827 9.561 12.827 11.25 15.625 C11.959 16.79 12.668 17.954 13.378 19.118 C14.854 21.538 16.327 23.96 17.798 26.382 C21.213 32.001 24.673 37.592 28.125 43.188 C33.755 52.329 39.349 61.492 44.922 70.669 C49.278 77.833 53.684 84.964 58.106 92.087 C62.106 98.537 66.061 105.013 70 111.5 C74.951 119.651 79.941 127.775 84.967 135.879 C94.438 151.151 103.857 166.454 113.188 181.812 C118.076 189.859 123.005 197.879 127.968 205.881 C137.439 221.152 146.857 236.455 156.188 251.812 C161.076 259.859 166.005 267.879 170.968 275.881 C180.439 291.152 189.857 306.455 199.188 321.812 C204.076 329.859 209.005 337.879 213.968 345.881 C224.026 362.098 234.015 378.357 243.922 394.667 C248.278 401.832 252.684 408.964 257.106 416.087 C261.106 422.537 265.061 429.013 269 435.5 C273.951 443.651 278.941 451.775 283.967 459.879 C293.438 475.151 302.857 490.454 312.188 505.812 C317.076 513.859 322.005 521.879 326.968 529.881 C336.439 545.152 345.857 560.455 355.188 575.812 C360.076 583.859 365.005 591.879 369.968 599.881 C379.439 615.152 388.857 630.455 398.188 645.812 C403.076 653.859 408.005 661.879 412.968 669.881 C423.026 686.098 433.015 702.357 442.922 718.667 C447.278 725.832 451.684 732.964 456.106 740.087 C460.106 746.537 464.061 753.013 468 759.5 C472.951 767.651 477.941 775.775 482.967 783.879 C492.438 799.151 501.857 814.454 511.188 829.812 C516.076 837.859 521.005 845.879 525.968 853.881 C535.439 869.152 544.857 884.455 554.188 899.812 C559.076 907.859 564.005 915.879 568.968 923.881 C578.439 939.152 587.857 954.455 597.188 969.812 C602.076 977.859 607.005 985.879 611.968 993.881 C622.026 1010.098 632.015 1026.357 641.922 1042.667 C646.278 1049.832 650.684 1056.964 655.106 1064.087 C659.106 1070.537 663.061 1077.013 667 1083.5 C671.951 1091.651 676.941 1099.775 681.967 1107.879 C691.438 1123.151 700.857 1138.454 710.188 1153.812 C715.076 1161.859 720.005 1169.879 724.968 1177.881 C731.333 1188.144 737.667 1198.427 743.985 1208.719 C745.336 1210.919 746.689 1213.118 748.042 1215.316 C749.99 1218.479 751.933 1221.645 753.875 1224.812 C754.464 1225.767 755.053 1226.721 755.66 1227.705 C756.203 1228.592 756.745 1229.48 757.305 1230.395 C757.779 1231.166 758.253 1231.938 758.742 1232.734 C760.053 1235.095 761.051 1237.474 762 1240 C750.226 1246.226 738.419 1252.381 726.559 1258.443 C722.309 1260.616 718.061 1262.792 713.812 1264.969 C712.968 1265.401 712.124 1265.833 711.255 1266.279 C703.869 1270.064 696.494 1273.87 689.125 1277.688 C679.006 1282.929 668.881 1288.158 658.75 1293.375 C658.063 1293.729 657.376 1294.083 656.668 1294.447 C651.078 1297.326 645.487 1300.205 639.896 1303.083 C635.014 1305.597 630.132 1308.111 625.25 1310.625 C624.906 1310.802 624.906 1310.802 623.167 1311.698 C613.648 1316.601 604.134 1321.515 594.625 1326.438 C583.178 1332.363 571.718 1338.263 560.254 1344.154 C550.287 1349.277 540.326 1354.411 530.375 1359.562 C520.172 1364.844 509.964 1370.115 499.75 1375.375 C499.063 1375.729 498.377 1376.082 497.669 1376.447 C492.079 1379.326 486.487 1382.205 480.896 1385.083 C476.014 1387.597 471.132 1390.111 466.25 1392.625 C465.906 1392.802 465.906 1392.802 464.167 1393.698 C454.648 1398.601 445.134 1403.515 435.625 1408.438 C424.178 1414.364 412.717 1420.264 401.252 1426.155 C391.327 1431.256 381.409 1436.369 371.5 1441.5 C360.094 1447.406 348.675 1453.285 337.251 1459.156 C327.327 1464.256 317.409 1469.369 307.5 1474.5 C296.843 1480.018 286.174 1485.515 275.5 1491 C264.784 1496.507 254.074 1502.024 243.375 1507.562 C233.172 1512.844 222.964 1518.115 212.75 1523.375 C212.063 1523.729 211.377 1524.082 210.669 1524.447 C205.079 1527.326 199.487 1530.205 193.896 1533.083 C189.014 1535.597 184.132 1538.111 179.25 1540.625 C178.906 1540.802 178.906 1540.802 177.167 1541.698 C167.648 1546.601 158.134 1551.515 148.625 1556.438 C137.178 1562.364 125.717 1568.264 114.252 1574.155 C104.327 1579.256 94.409 1584.369 84.5 1589.5 C73.843 1595.018 63.174 1600.515 52.5 1606 C41.784 1611.507 31.074 1617.024 20.375 1622.562 C10.172 1627.844 -0.036 1633.115 -10.25 1638.375 C-10.937 1638.729 -11.623 1639.082 -12.331 1639.447 C-17.921 1642.326 -23.513 1645.205 -29.104 1648.083 C-33.986 1650.597 -38.868 1653.111 -43.75 1655.625 C-44.094 1655.802 -44.094 1655.802 -45.833 1656.698 C-55.352 1661.601 -64.866 1666.515 -74.375 1671.438 C-85.822 1677.364 -97.283 1683.264 -108.748 1689.155 C-118.673 1694.256 -128.591 1699.369 -138.5 1704.5 C-149.906 1710.406 -161.325 1716.285 -172.749 1722.156 C-182.673 1727.256 -192.591 1732.369 -202.5 1737.5 C-213.157 1743.018 -223.826 1748.515 -234.5 1754 C-245.216 1759.507 -255.926 1765.024 -266.625 1770.562 C-276.828 1775.844 -287.036 1781.115 -297.25 1786.375 C-297.937 1786.729 -298.623 1787.082 -299.331 1787.447 C-304.921 1790.326 -310.513 1793.205 -316.104 1796.083 C-320.986 1798.597 -325.868 1801.111 -330.75 1803.625 C-331.094 1803.802 -331.094 1803.802 -332.833 1804.698 C-342.352 1809.601 -351.866 1814.515 -361.375 1819.438 C-372.822 1825.364 -384.283 1831.264 -395.748 1837.155 C-405.673 1842.256 -415.591 1847.369 -425.5 1852.5 C-436.157 1858.018 -446.826 1863.515 -457.5 1869 C-468.216 1874.507 -478.926 1880.024 -489.625 1885.562 C-499.828 1890.844 -510.036 1896.115 -520.25 1901.375 C-520.937 1901.729 -521.623 1902.082 -522.331 1902.447 C-527.921 1905.326 -533.513 1908.205 -539.104 1911.083 C-543.986 1913.597 -548.868 1916.111 -553.75 1918.625 C-554.094 1918.802 -554.094 1918.802 -555.833 1919.698 C-566.524 1925.204 -577.206 1930.726 -587.885 1936.255 C-594.559 1939.709 -601.238 1943.153 -607.922 1946.586 C-608.681 1946.976 -609.44 1947.366 -610.223 1947.768 C-614.022 1949.72 -617.823 1951.67 -621.625 1953.618 C-627.888 1956.831 -634.142 1960.053 -640.336 1963.398 C-641.23 1963.88 -642.125 1964.362 -643.046 1964.858 C-644.623 1965.713 -646.196 1966.575 -647.762 1967.448 C-649.47 1968.374 -651.231 1969.199 -653 1970 C-653.99 1969.67 -654.98 1969.34 -656 1969 C-655.797 1968.392 -655.595 1967.784 -655.386 1967.158 C-633.288 1900.881 -611.19 1834.603 -589.094 1768.325 C-588.764 1767.333 -588.433 1766.341 -588.092 1765.319 C-580.901 1743.749 -573.711 1722.18 -566.52 1700.611 C-562.993 1690.031 -559.466 1679.451 -555.939 1668.872 C-555.588 1667.819 -555.237 1666.766 -554.875 1665.682 C-543.528 1631.643 -532.179 1597.604 -520.83 1563.566 C-509.154 1528.547 -497.479 1493.528 -485.805 1458.509 C-484.151 1453.548 -482.497 1448.586 -480.843 1443.625 C-480.518 1442.648 -480.192 1441.672 -479.857 1440.666 C-474.646 1425.034 -469.434 1409.403 -464.222 1393.772 C-458.964 1378.006 -453.708 1362.239 -448.453 1346.472 C-445.613 1337.951 -442.772 1329.429 -439.929 1320.908 C-420.488 1262.618 -420.488 1262.618 -413.078 1239.733 C-403.627 1210.543 -393.862 1181.457 -384.152 1152.352 C-381.12 1143.263 -378.09 1134.174 -375.059 1125.084 C-369.467 1108.309 -363.873 1091.534 -358.278 1074.76 C-350.63 1051.828 -342.984 1028.895 -335.338 1005.962 C-331.761 995.234 -328.185 984.506 -324.608 973.778 C-324.25 972.705 -323.892 971.631 -323.523 970.526 C-315.032 945.057 -306.539 919.588 -298.047 894.12 C-297.676 893.008 -297.305 891.895 -296.923 890.749 C-290.905 872.703 -284.888 854.657 -278.87 836.611 C-273.231 819.7 -267.592 802.79 -261.953 785.88 C-261.582 784.768 -261.212 783.657 -260.83 782.511 C-252.35 757.082 -243.871 731.652 -235.392 706.222 C-235.035 705.15 -234.677 704.078 -234.309 702.974 C-230.74 692.269 -227.171 681.564 -223.602 670.859 C-215.969 647.963 -208.335 625.068 -200.699 602.174 C-195.132 585.482 -189.566 568.79 -184.001 552.097 C-180.995 543.079 -177.987 534.061 -174.979 525.043 C-153.991 462.13 -153.991 462.13 -144.728 433.547 C-138.801 415.259 -132.721 397.021 -126.638 378.784 C-124.943 373.702 -123.25 368.619 -121.557 363.537 C-118.266 353.659 -114.973 343.781 -111.68 333.904 C-109.005 325.882 -106.331 317.86 -103.657 309.838 C-103.274 308.687 -102.89 307.536 -102.495 306.351 C-101.715 304.012 -100.936 301.672 -100.156 299.333 C-92.898 277.555 -85.638 255.778 -78.377 234.001 C-72.148 215.318 -65.92 196.634 -59.694 177.95 C-52.437 156.175 -45.179 134.4 -37.92 112.626 C-37.148 110.309 -36.375 107.992 -35.603 105.675 C-35.223 104.536 -34.843 103.396 -34.452 102.222 C-31.774 94.189 -29.097 86.157 -26.42 78.124 C-23.169 68.367 -19.916 58.611 -16.663 48.855 C-15.003 43.879 -13.344 38.902 -11.686 33.925 C-10.171 29.377 -8.655 24.83 -7.137 20.283 C-6.587 18.633 -6.037 16.982 -5.487 15.331 C-4.744 13.1 -4 10.869 -3.255 8.638 C-2.84 7.396 -2.426 6.153 -1.999 4.873 C-1 2 -1 2 0 0 Z " fill="#000000" transform="translate(1477,1606)"/>
</svg>
