<svg xmlns="http://www.w3.org/2000/svg" xml:space="preserve" id="crepe" x="0" y="0" style="enable-background:new 0 0 100 100" version="1.1" viewBox="0 0 100 100">
  <path d="M88.31,47.81c-0.77-0.95-1.68-1.76-2.56-2.54c-1.29-1.14-2.5-2.22-3.18-3.63c-0.68-1.42-0.79-3.11-0.91-4.89
	c-0.16-2.41-0.32-4.91-1.98-6.86c-1.35-1.58-3.24-2.24-5.06-2.88c-1.3-0.45-2.52-0.88-3.51-1.61c-1.7-1.26-2.63-3.33-3.6-5.52
	c-1.1-2.46-2.23-5-4.59-6.52c-2.99-1.93-6.45-1.33-9.79-0.75c-2.46,0.42-4.99,0.86-7.21,0.23c-1.13-0.32-2.17-0.92-3.28-1.55
	c-0.72-0.41-1.47-0.84-2.26-1.19c-5.07-2.28-11.8-0.86-15.87,3.27c-1.49-0.14-2.99-0.24-4.49-0.28c-1.58-0.06-3.04,1.19-3.23,2.82
	L9.01,81.88c0,0,0,0,0,0c0,0,0,0,0,0c-0.02,0.14,0,0.28,0.04,0.41c0.01,0.03,0.03,0.06,0.05,0.09c0.04,0.1,0.09,0.19,0.16,0.26
	c0.01,0.01,0.01,0.02,0.02,0.03c0.03,0.03,0.07,0.05,0.11,0.08c0.06,0.05,0.11,0.09,0.18,0.13c0.06,0.03,0.12,0.04,0.18,0.06
	c0.05,0.01,0.1,0.04,0.15,0.05l71.57,7.79c0.12,0.01,0.23,0.02,0.34,0.02c0.78,0,1.54-0.29,2.13-0.81c0.67-0.6,1.06-1.47,1.06-2.37
	v-8.68l0.71-0.04c0.89-0.05,1.7-0.45,2.27-1.14c0.57-0.69,0.83-1.59,0.72-2.48c-0.28-2.23-0.68-4.43-1.17-6.61
	c1.57-3.24,3.21-7.02,3.54-10.53C91.44,54.19,90.43,50.42,88.31,47.81z M83,87.61c0,0.34-0.14,0.66-0.4,0.89
	c-0.25,0.23-0.59,0.33-0.92,0.3l-59.37-6.46L83,79.04V87.61z M86.45,76.48c-0.21,0.25-0.51,0.4-0.84,0.42l-74.48,4.04l7.63-64.81
	c0.07-0.6,0.58-1.05,1.16-1.05c0.01,0,0.02,0,0.03,0c34.34,0.95,62.42,26.38,66.77,60.45C86.76,75.88,86.67,76.21,86.45,76.48z
	 M89.08,57.95c-0.23,2.45-1.2,5.12-2.31,7.63C83.2,52.53,75.98,40.67,65.85,31.5c-10.81-9.79-24.33-15.98-38.67-17.84
	c3.51-2.65,8.58-3.44,12.36-1.74c0.7,0.32,1.38,0.7,2.09,1.11c1.16,0.66,2.36,1.34,3.72,1.73c2.65,0.76,5.42,0.28,8.1-0.18
	c3.1-0.54,6.04-1.04,8.37,0.46c1.86,1.2,2.82,3.36,3.84,5.65c1.04,2.33,2.12,4.75,4.24,6.32c1.23,0.91,2.66,1.41,4.04,1.89
	c1.64,0.58,3.2,1.12,4.2,2.29c1.23,1.44,1.36,3.5,1.5,5.69c0.12,1.9,0.25,3.86,1.1,5.63c0.85,1.77,2.28,3.04,3.66,4.26
	c0.86,0.76,1.67,1.48,2.34,2.3C88.55,51.28,89.4,54.52,89.08,57.95z M31.17,42.54c-1.46,1.14-1.17,3.38-0.29,4.98
	c1.89,3.42,3.16,4.43,6.53,6.85c4.12,2.95,7.76,6.38,10.84,10.21c1.7,2.12,1.99,4.09,0.79,5.41c-1.33,1.46-3.64,1.53-5.36,0.96
	c-4.74-1.58-8.67-4.57-11.14-6.79c-0.71-0.65-1.36-1.29-1.99-1.91c-2.13-2.11-3.81-3.78-6.92-4.39c-1.08-0.21-2.41-0.04-2.74,0.6
	c-0.3,0.57,0.28,1.49,1.72,2.72c2.29,1.96,3.45,3.29,5.34,5.73c0.6,0.77,1.25,1.69,1.39,2.8c0.18,1.42-0.67,2.79-1.97,3.18
	c-1.13,0.34-2.43-0.05-3.56-1.08c-0.22-0.2-0.43-0.41-0.63-0.63c-0.4-0.42-0.78-0.81-1.23-1.03c-0.93-0.47-2.34-0.1-2.8,0.72
	c-0.18,0.33-0.2,0.74-0.06,1.14c0.17,0.48,0.55,0.87,1.02,1.06c0.52,0.2,0.77,0.78,0.57,1.29c-0.15,0.4-0.53,0.64-0.93,0.64
	c-0.12,0-0.24-0.02-0.36-0.07c-1.01-0.39-1.81-1.21-2.18-2.24c-0.34-0.95-0.27-1.97,0.19-2.8c0.97-1.75,3.57-2.48,5.45-1.53
	c0.75,0.38,1.29,0.93,1.76,1.43c0.18,0.18,0.36,0.37,0.54,0.54c0.43,0.39,1.12,0.8,1.64,0.64c0.41-0.12,0.61-0.62,0.56-1.01
	c-0.08-0.6-0.53-1.23-0.99-1.82c-1.74-2.24-2.81-3.51-5.06-5.44c-0.92-0.79-3.38-2.89-2.19-5.16c0.85-1.62,3.07-1.99,4.9-1.64
	c3.71,0.72,5.77,2.77,7.95,4.93c0.6,0.6,1.23,1.22,1.92,1.84c2.32,2.09,6.02,4.9,10.43,6.38c1.09,0.36,2.56,0.34,3.24-0.41
	c0.68-0.75-0.49-2.34-0.87-2.81c-2.96-3.69-6.48-7-10.45-9.84c-3.5-2.5-5-3.67-7.12-7.51c-1.28-2.31-1.57-5.65,0.81-7.52
	c2.55-2,6.28-0.88,7.76-0.31c5.31,2.05,8.15,4.86,10.88,7.58c2.69,2.67,5.23,5.19,10.08,7.11c1.53,0.61,3.65,0.96,4.62-0.04
	c0.86-0.89,0.32-2.49-0.27-3.68c-3.43-6.82-8.44-10.14-14.79-14.34c-1.5-0.99-3.05-2.02-4.66-3.15c-0.45-0.32-0.56-0.94-0.25-1.39
	c0.32-0.45,0.94-0.56,1.39-0.25c1.59,1.11,3.13,2.13,4.62,3.12c6.34,4.19,11.81,7.81,15.47,15.11c1.61,3.21,0.85,5.02-0.08,5.97
	c-2.08,2.15-5.72,0.94-6.79,0.51c-5.23-2.07-8.04-4.86-10.75-7.55c-2.71-2.69-5.27-5.23-10.2-7.13
	C36.07,42.17,32.96,41.14,31.17,42.54z M27.29,34.85c0.9,0.78,2.09,1.19,3.28,1.19c0.93,0,1.86-0.25,2.65-0.76
	c1.67-1.07,2.76-3.1,2.91-5.43c0.14-2.05-0.43-4.02-1-5.67c-0.41-1.19-1-2.48-2.3-2.98c-1.37-0.53-2.73,0.1-3.88,0.78
	c-1.44,0.86-3.07,1.94-4.28,3.48c-1.36,1.74-1.94,3.86-1.55,5.69C23.56,33.23,25.37,34.79,27.29,34.85z M26.25,26.69
	c1-1.27,2.38-2.19,3.73-2.99c0.69-0.41,1.56-0.86,2.13-0.63c0.53,0.21,0.87,1.01,1.13,1.77c0.5,1.47,1,3.19,0.89,4.89
	c-0.11,1.67-0.87,3.16-1.99,3.88c-0.95,0.61-2.24,0.57-3.18-0.01c0.56-0.96,0.97-2.02,1.19-3.1c0.11-0.54-0.24-1.07-0.78-1.18
	c-0.54-0.11-1.07,0.24-1.18,0.78c-0.19,0.96-0.57,1.9-1.09,2.73c-0.92-0.16-1.78-1.01-2.01-2.09
	C24.81,29.47,25.25,27.96,26.25,26.69z M61.51,64.76c-0.95,1.91-0.52,4.26,0.95,5.5c0.39,2.08,2.22,3.81,4.37,4.03
	c0.18,0.02,0.37,0.03,0.55,0.03c1.81,0,3.68-0.89,5.11-2.46c1.38-1.52,2.17-3.41,2.75-5.06c0.42-1.19,0.76-2.56,0.06-3.77
	c-0.74-1.27-2.19-1.63-3.52-1.81c-1.66-0.23-3.62-0.4-5.51,0.05C64.12,61.79,62.34,63.09,61.51,64.76z M68.88,63
	c0.89,0,1.78,0.1,2.63,0.21c0.8,0.11,1.75,0.3,2.06,0.83c0.29,0.5,0.05,1.33-0.22,2.09c-0.52,1.46-1.21,3.12-2.35,4.38
	c-1.13,1.24-2.64,1.92-3.98,1.79c-1.11-0.11-2.1-0.94-2.47-1.97c1.01-0.48,1.97-1.06,2.86-1.74c0.44-0.33,0.52-0.96,0.19-1.4
	c-0.33-0.44-0.96-0.52-1.4-0.19c-0.81,0.62-1.7,1.13-2.63,1.56c-0.63-0.69-0.78-1.91-0.28-2.91c0.57-1.15,1.86-2.05,3.43-2.42
	C67.43,63.06,68.16,63,68.88,63z"></path>
</svg>
