<svg xmlns="http://www.w3.org/2000/svg" viewBox="0 0 100 100" id="gear">
  <path d="M50 23.2c-14.8 0-26.8 12-26.8 26.8 0 12 8.1 22.6 19.6 25.8 4.6 1.3 9.7 1.3 14.3 0C68.7 72.6 76.8 62 76.8 50c0-14.8-12-26.8-26.8-26.8zM55.8 71c-1.8.5-3.8.8-5.8.8s-3.9-.3-5.8-.8c-9.4-2.6-15.9-11.2-15.9-21 0-12 9.8-21.8 21.8-21.8S71.8 38 71.8 50c0 9.8-6.6 18.4-16 21z"></path>
  <path d="m95.2 40.1-8.3-1.6c-.5-.1-1-.5-1.2-1-.5-1.3-1-2.7-1.7-4-.2-.5-.2-1.1.1-1.5l4.8-7c.7-1 .6-2.2 0-3.1-3-4.2-6.6-7.8-10.8-10.8-.9-.7-2.2-.7-3.1 0l-7 4.8c-.5.3-1 .4-1.5.1-1.3-.6-2.7-1.2-4-1.7-.5-.2-.9-.6-1-1.2l-1.6-8.3c-.2-1.1-1.1-2-2.2-2.2-5-.8-10.2-.8-15.2 0-1.1.2-2 1.1-2.2 2.2l-1.6 8.3c-.1.6-.5 1-1 1.2-1.4.5-2.8 1-4 1.7-.5.2-1 .2-1.5-.1l-7-4.8c-1-.6-2.2-.6-3.1 0-4.2 3-7.8 6.6-10.8 10.8-.7.9-.7 2.2 0 3.1l4.8 7c.3.4.4 1 .1 1.5-.7 1.3-1.2 2.7-1.7 4.1-.2.5-.6.9-1.2 1L5 40.2c-1.1.2-2 1.1-2.2 2.2-.6 2.5-.8 5.1-.8 7.6s.2 5.1.6 7.6c.2 1.1 1.1 2 2.2 2.2l8.4 1.6c.6.1 1.1.6 1.2 1.1.3 1.2.8 2.4 1.6 3.8.3.5.2 1.1-.1 1.6l-4.8 7c-.6 1-.6 2.2 0 3.1 3 4.2 6.6 7.8 10.8 10.8.9.7 2.2.7 3.1 0l7-4.8c.5-.3 1-.4 1.5-.1 1.3.6 2.7 1.2 4 1.7.5.2.9.6 1 1.2l1.6 8.3c.2 1.1 1.1 2 2.2 2.2 2.5.4 5.1.6 7.6.6s5.1-.2 7.6-.6c1.1-.2 2-1.1 2.2-2.2l1.6-8.3c.1-.6.5-1 1-1.2 1.4-.5 2.7-1 4-1.7.5-.2 1-.2 1.5.1l7 4.8c1 .6 2.2.6 3.1 0 4.2-3 7.8-6.6 10.8-10.8.7-.9.7-2.2 0-3.1l-4.8-7c-.3-.4-.4-1-.1-1.5.6-1.3 1.2-2.7 1.7-4 .2-.5.6-.9 1.2-1l8.3-1.6c1.1-.2 2-1.1 2.2-2.2.4-2.5.6-5.1.6-7.6s-.2-5.1-.6-7.6c0-1.1-.9-2-2-2.3zM57.7 77.7c-2.5.7-5.1 1-7.7 1-2.6 0-5.2-.4-7.7-1C29.9 74.3 21.2 62.9 21.2 50c0-15.9 12.9-28.8 28.8-28.8S78.8 34.1 78.8 50c0 12.9-8.7 24.3-21.1 27.7z"></path>
</svg>
