<svg xmlns="http://www.w3.org/2000/svg" width="16" height="16" id="right-arrow">
  <path d="M9.545 3a.5.5 0 0 0-.518.5L9.02 5.742l-.006.264H1.5a.5.5 0 0 0-.5.5v2.996a.5.5 0 0 0 .5.498h7.506l.002.252L9 12.5a.5.5 0 0 0 .836.373l5-4.514a.5.5 0 0 0 0-.742L9.863 3.13A.5.5 0 0 0 9.545 3Z" color="#000" font-family="sans-serif" font-weight="400" overflow="visible" style="line-height:normal;text-indent:0;text-align:start;text-decoration-line:none;text-decoration-style:solid;text-decoration-color:#000;text-transform:none;block-progression:tb;isolation:auto;mix-blend-mode:normal"></path>
</svg>
