<svg xmlns="http://www.w3.org/2000/svg" width="16" height="16" id="left-arrow">
  <path d="M6.457 3.002a.5.5 0 0 0-.32.127L1.164 7.617a.5.5 0 0 0 0 .742l5 4.514A.5.5 0 0 0 7 12.5l-.008-2.248.002-.252H14.5a.5.5 0 0 0 .5-.498V6.506a.5.5 0 0 0-.5-.5H6.986l.018-.385-.008-2.242c0-.282-.258-.386-.539-.377Z" color="#000" font-family="sans-serif" font-weight="400" overflow="visible" style="line-height:normal;text-indent:0;text-align:start;text-decoration-line:none;text-decoration-style:solid;text-decoration-color:#000;text-transform:none;block-progression:tb;isolation:auto;mix-blend-mode:normal"></path>
</svg>
