<svg xmlns="http://www.w3.org/2000/svg" enable-background="new 0 0 32 32" viewBox="0 0 32 32" id="atm-card">
  <path d="M28,4.5H4C2.07031,4.5,0.5,6.07031,0.5,8v16c0,1.92969,1.57031,3.5,3.5,3.5h24c1.92969,0,3.5-1.57031,3.5-3.5V8C31.5,6.07031,29.92969,4.5,28,4.5z M4,7.5h24c0.27588,0,0.5,0.22412,0.5,0.5v1.5h-25V8C3.5,7.72412,3.72412,7.5,4,7.5z M28,24.5H4c-0.27588,0-0.5-0.22412-0.5-0.5V12.5h25V24C28.5,24.27588,28.27588,24.5,28,24.5z"></path>
  <path d="M9.41406,19.5H6.35693c-0.82861,0-1.5,0.67139-1.5,1.5s0.67139,1.5,1.5,1.5h3.05713c0.82861,0,1.5-0.67139,1.5-1.5S10.24268,19.5,9.41406,19.5z"></path>
</svg>
