<?xml version="1.0" standalone="no"?>
<!DOCTYPE svg PUBLIC "-//W3C//DTD SVG 20010904//EN"
 "http://www.w3.org/TR/2001/REC-SVG-20010904/DTD/svg10.dtd">
<svg version="1.0" xmlns="http://www.w3.org/2000/svg"
 width="468.000000pt" height="426.000000pt" viewBox="0 0 468.000000 426.000000"
 preserveAspectRatio="xMidYMid meet">
<g transform="translate(0.000000,426.000000) scale(0.100000,-0.100000)"
fill="#000000" stroke="none">
<path d="M1945 4000 c-158 -15 -261 -31 -330 -51 -38 -11 -86 -24 -105 -29
-76 -20 -314 -124 -395 -172 -181 -109 -307 -214 -471 -391 -191 -207 -366
-550 -427 -837 -9 -41 -21 -100 -28 -130 -6 -30 -14 -138 -16 -239 -6 -181 3
-278 38 -441 25 -112 29 -126 96 -305 40 -106 131 -277 197 -371 248 -350 579
-599 967 -727 146 -49 203 -62 324 -78 185 -23 263 -29 315 -25 30 3 107 10
170 16 117 11 223 31 295 56 23 8 47 14 54 14 7 0 27 6 44 14 18 7 83 35 145
61 426 180 763 507 967 940 57 120 55 116 93 235 52 163 92 410 92 568 0 172
-63 531 -110 622 -23 45 -60 71 -110 77 -110 15 -189 -80 -161 -192 64 -257
81 -363 81 -516 0 -173 -42 -402 -102 -554 -48 -120 -131 -273 -197 -365 -55
-76 -197 -233 -255 -283 -161 -137 -373 -258 -541 -307 -16 -5 -61 -18 -100
-30 -177 -52 -482 -72 -635 -41 -301 59 -472 126 -675 264 -98 67 -283 240
-349 327 -127 168 -254 412 -286 550 -4 19 -12 55 -18 80 -30 123 -35 168 -40
328 -7 275 36 475 160 740 156 337 481 635 843 775 50 19 101 37 115 40 14 3
39 10 55 15 113 39 273 63 420 62 97 -1 313 -24 375 -41 158 -42 356 -127 508
-217 67 -40 153 -45 196 -11 55 43 71 119 41 184 -18 37 -141 129 -225 167
-30 14 -89 42 -131 61 -91 43 -203 81 -344 116 -123 31 -417 53 -540 41z"/>
<path d="M4093 3725 c-118 -57 -287 -154 -483 -277 -101 -63 -381 -279 -552
-425 -333 -284 -756 -764 -991 -1123 -46 -70 -62 -89 -79 -90 -4 0 -149 177
-322 393 -182 227 -325 398 -341 405 -102 47 -228 -42 -210 -149 8 -47 26 -74
173 -259 518 -651 633 -790 662 -805 72 -37 155 -3 203 85 101 183 346 519
563 770 240 278 637 656 820 780 27 19 67 48 89 66 135 108 405 272 630 383
85 42 103 55 118 86 41 85 -1 183 -92 214 -19 6 -39 11 -45 11 -6 0 -71 -29
-143 -65z"/>
</g>
</svg>
