<svg xmlns="http://www.w3.org/2000/svg" width="36" height="36" id="coin">
  <path fill-rule="evenodd" d="M8.018 6c-.834 0-1.554.514-1.86 1.24l-.01.03c-.044.11-.083.223-.107.341A1.996 1.996 0 0 0 6 8.018v6.48a7.498 7.498 0 0 0-4.865 7.02c0 4.132 3.337 7.5 7.48 7.5a7.494 7.494 0 0 0 5.094-2H32c1.1 0 2-.901 2-2v-17c0-1.1-.9-2-2-2h-1.844c-.058-.006-.114-.018-.174-.018H8.018zM8 7.018h22.072c.526.046.928.46.928 1v4.957c-.173.016-.332.043-.525.043H25.5c-1.93 0-3.5 1.57-3.5 3.5s1.57 3.5 3.5 3.5h5a.5.5 0 0 0 .004 0c.18-.002.33-.03.496-.043v5.01c0 .572-.445 1.015-1.018 1.015H14.63a7.435 7.435 0 0 0 1.506-4.482.5.5 0 0 0-.04-.196.5.5 0 0 0-.001 0c-.112-4.038-3.407-7.302-7.479-7.302v-.002c-.555 0-1.095.064-1.615.18v-6.18a.986.986 0 0 1 1-1zm23.723 0H32c.563 0 1 .437 1 1v4.26c-.224.184-.554.365-1 .507V8.018c0-.365-.106-.704-.277-1zM8 8.018v1h1v-1H8zm2 0v1h1v-1h-1zm2 0v1h1v-1h-1zm2 0v1h1v-1h-1zm2 0v1h1v-1h-1zm2 0v1h1v-1h-1zm2 0v1h1v-1h-1zm2 0v1h1v-1h-1zm2 0v1h1v-1h-1zm2 0v1h1v-1h-1zm2 0v1h1v-1h-1zM8.018 10.016l-.004 1 1 .01.004-1-1-.01zm19.988 1.004v1.007H29V11.02h-.994zm-19.998.996-.006 1 1 .01.006-1-1-.01zM33 13.396v4.86c-.417.356-1.206.752-2.5.762h-5a2.484 2.484 0 0 1-2.5-2.5c0-1.394 1.106-2.5 2.5-2.5h4.975c1.1 0 1.885-.276 2.525-.622zM8.615 15.018c3.602 0 6.52 2.909 6.52 6.5 0 3.592-2.918 6.5-6.52 6.5a6.471 6.471 0 0 1-6.48-6.5c0-3.595 2.877-6.5 6.48-6.5zm16.969 0c-.869 0-1.584.717-1.584 1.586 0 .868.715 1.584 1.584 1.584a1.59 1.59 0 0 0 1.582-1.584c0-.87-.713-1.586-1.582-1.586zm0 1c.328 0 .582.257.582.586a.575.575 0 0 1-.582.584.577.577 0 0 1-.584-.584c0-.33.256-.586.584-.586zm-16.313.998c-.196 0-.392.025-.584.074-.766.2-1.438.77-1.912 1.605-.234.414-.41.865-.529 1.336h-.978l-.426 1h1.252c-.026.333-.026.667.002 1h-.928l-.426 1h1.516c.118.46.289.902.517 1.305.474.835 1.146 1.408 1.912 1.607.767.2 1.601-.01 2.274-.58l.38-.324-.648-.76-.38.325c-.466.397-.922.488-1.374.37-.451-.117-.924-.477-1.294-1.13a3.982 3.982 0 0 1-.332-.813h2.003l.426-1H7.117a5.63 5.63 0 0 1-.002-1h2.301l.426-1h-2.54c.089-.3.198-.587.343-.842.37-.653.843-1.014 1.294-1.132.452-.118.908-.024 1.373.373l.381.324.649-.76-.381-.326a2.727 2.727 0 0 0-1.102-.58v.002a2.404 2.404 0 0 0-.588-.074zM33 19.456v5.562c0 .562-.437 1-1 1h-.297c.184-.304.297-.655.297-1.034V19.82a4.644 4.644 0 0 0 1-.365zm-5 2.065-.004.997h1.012v-.997H28zm-12.063 2.497v1h1v-1h-1zm2 0v1h1v-1h-1zm2 0v1h1v-1h-1zm2 0v1h1v-1h-1zm2 0v1h1v-1h-1zm2 0v1h1v-1h-1zm2 0v1h1v-1h-1z" color="#000" font-family="sans-serif" font-weight="400" overflow="visible" style="line-height:normal;text-indent:0;text-align:start;text-decoration-line:none;text-decoration-style:solid;text-decoration-color:#000;text-transform:none;block-progression:tb;white-space:normal;isolation:auto;mix-blend-mode:normal;solid-color:#000;solid-opacity:1"></path>
</svg>
