<?xml version="1.0" standalone="no"?>
<!DOCTYPE svg PUBLIC "-//W3C//DTD SVG 20010904//EN"
 "http://www.w3.org/TR/2001/REC-SVG-20010904/DTD/svg10.dtd">
<svg version="1.0" xmlns="http://www.w3.org/2000/svg"
 width="327.000000pt" height="516.000000pt" viewBox="0 0 327.000000 516.000000"
 preserveAspectRatio="xMidYMid meet">
<g transform="translate(0.000000,516.000000) scale(0.100000,-0.100000)"
fill="#000000" stroke="none">
<path d="M1982 5007 c-27 -15 -46 -43 -146 -212 -42 -71 -81 -137 -86 -145 -5
-8 -46 -78 -90 -155 -45 -77 -99 -169 -121 -205 -34 -55 -139 -234 -203 -343
-10 -18 -69 -117 -130 -222 -101 -171 -261 -442 -314 -535 -12 -19 -39 -66
-60 -105 -22 -38 -52 -87 -66 -108 -14 -21 -26 -39 -26 -41 0 -5 -118 -206
-185 -316 -32 -52 -71 -123 -87 -157 -28 -58 -28 -63 -14 -96 19 -48 20 -48
291 -141 217 -75 336 -117 385 -136 30 -12 69 -25 85 -30 57 -16 167 -58 177
-68 9 -9 3 -70 -47 -452 -9 -63 -38 -290 -65 -505 -27 -214 -58 -460 -70 -545
-24 -189 -26 -253 -4 -274 11 -12 35 -16 84 -16 66 0 70 1 93 33 13 17 41 64
63 102 21 39 43 78 49 87 5 9 28 47 49 85 22 37 64 109 94 158 30 50 100 169
156 265 140 239 375 638 578 978 92 155 168 284 168 287 0 3 12 24 27 48 14
23 80 134 146 247 65 113 126 213 134 222 21 24 28 94 12 124 -7 14 -27 33
-44 41 -29 16 -349 130 -390 140 -11 2 -29 9 -40 14 -27 11 -103 38 -140 49
-16 5 -75 25 -130 45 -55 21 -115 41 -133 45 -42 10 -74 38 -67 59 4 14 89
673 116 901 5 47 14 112 19 145 5 33 18 134 29 225 11 91 28 225 37 298 19
150 15 169 -38 202 -38 23 -63 25 -96 7z m-132 -657 c0 -18 -24 -214 -86 -690
-69 -535 -69 -535 -54 -571 7 -16 27 -37 44 -46 28 -15 162 -64 351 -128 39
-13 95 -34 125 -45 30 -12 69 -25 85 -30 17 -5 88 -29 160 -54 71 -25 131 -46
132 -46 11 0 -4 -33 -51 -113 -30 -51 -63 -108 -74 -127 -31 -56 -112 -194
-200 -340 -68 -114 -182 -307 -256 -433 -10 -18 -89 -151 -176 -297 -86 -146
-165 -278 -174 -295 -9 -16 -21 -37 -26 -45 -5 -8 -40 -67 -76 -130 -37 -63
-74 -123 -83 -133 -14 -17 -15 -17 -23 3 -4 12 -6 31 -3 43 3 12 16 112 30
222 14 110 37 288 51 395 26 203 47 366 65 508 12 96 4 118 -58 154 -33 20
-198 80 -353 130 -36 11 -94 32 -130 46 -36 14 -78 28 -95 33 -34 9 -110 35
-140 48 -11 5 -44 17 -72 27 -30 10 -53 24 -53 32 0 12 100 186 207 362 58 94
243 411 243 415 0 2 68 117 151 256 83 139 160 269 170 289 11 19 28 49 38 65
10 17 51 86 91 155 40 69 80 137 89 151 9 15 34 57 55 95 58 102 96 140 96 94z"/>
</g>
</svg>
