<?xml version="1.0" standalone="no"?>
<!DOCTYPE svg PUBLIC "-//W3C//DTD SVG 20010904//EN"
 "http://www.w3.org/TR/2001/REC-SVG-20010904/DTD/svg10.dtd">
<svg version="1.0" xmlns="http://www.w3.org/2000/svg"
 width="723.000000pt" height="714.000000pt" viewBox="0 0 723.000000 714.000000"
 preserveAspectRatio="xMidYMid meet">
<g transform="translate(0.000000,714.000000) scale(0.100000,-0.100000)"
fill="#000000" stroke="none">
<path d="M4570 5920 c-159 -28 -207 -39 -300 -71 -123 -42 -322 -164 -428
-263 -77 -73 -195 -222 -221 -281 -5 -11 -17 -28 -28 -37 -17 -16 -78 -18
-798 -20 l-780 -3 -49 -25 c-64 -33 -133 -111 -157 -180 -18 -53 -19 -107 -19
-1890 0 -1756 1 -1838 18 -1888 22 -61 68 -122 125 -163 l40 -29 1422 0 1422
0 43 31 c59 43 91 82 117 143 22 51 22 54 23 688 0 630 0 638 -21 678 -26 50
-90 90 -145 90 -51 0 -113 -36 -138 -80 -20 -34 -21 -52 -26 -640 l-5 -605
-1270 0 -1270 0 -3 1753 c-1 1197 1 1759 8 1773 10 18 28 19 659 19 541 0 650
-2 660 -14 8 -10 9 -26 2 -57 -6 -24 -11 -114 -11 -200 0 -134 -2 -158 -16
-163 -9 -3 -182 -6 -385 -6 -434 0 -427 1 -478 -98 -27 -53 -27 -82 3 -140 18
-36 35 -53 69 -70 44 -22 50 -22 469 -22 399 0 426 -1 441 -18 10 -10 17 -23
17 -28 0 -38 132 -232 228 -336 24 -26 41 -52 37 -57 -4 -8 -187 -11 -571 -11
-600 0 -605 0 -657 -48 -24 -21 -57 -94 -57 -124 1 -31 32 -99 56 -120 55 -49
46 -48 809 -48 508 0 723 3 738 11 12 6 38 27 58 46 l37 35 81 -26 c166 -52
274 -69 411 -62 170 9 236 20 365 63 442 144 791 537 865 973 5 30 14 82 19
115 24 134 -2 358 -60 530 -6 17 -15 44 -20 60 -15 50 -92 196 -143 273 -27
39 -87 111 -135 160 -121 122 -202 183 -346 257 -27 14 -57 30 -65 34 -42 23
-167 59 -285 81 -103 20 -270 24 -355 10z m305 -340 c133 -32 177 -47 260 -86
158 -76 327 -244 404 -402 18 -37 37 -75 43 -86 14 -27 38 -113 48 -171 32
-203 33 -214 15 -314 -9 -53 -23 -114 -31 -136 -8 -23 -14 -46 -14 -53 0 -23
-64 -147 -109 -212 -96 -140 -190 -224 -344 -309 -202 -111 -455 -139 -687
-76 -204 56 -415 209 -533 387 -45 69 -97 171 -97 192 0 8 -6 30 -14 48 -62
144 -61 426 1 593 25 68 75 167 112 225 40 61 150 176 226 236 89 68 242 136
355 156 30 5 73 13 95 18 52 11 206 6 270 -10z"/>
<path d="M4637 5488 c-21 -11 -49 -37 -62 -57 l-25 -36 0 -401 0 -401 30 -41
c25 -35 59 -55 241 -147 205 -103 215 -107 262 -102 147 18 201 197 89 293
-13 12 -77 48 -141 80 -64 32 -124 65 -133 73 -16 13 -18 41 -18 320 -1 300
-1 307 -24 346 -49 86 -139 116 -219 73z"/>
<path d="M4753 3250 c-18 -10 -44 -37 -58 -59 -22 -35 -25 -52 -25 -124 0 -77
2 -87 30 -125 37 -52 82 -76 138 -73 58 2 96 23 132 73 27 37 30 48 30 119 0
98 -25 157 -80 188 -49 27 -124 28 -167 1z"/>
<path d="M2645 2911 c-47 -21 -65 -41 -89 -98 -33 -75 2 -157 83 -200 l44 -23
712 0 711 0 50 25 c81 40 116 133 78 208 -23 45 -44 66 -86 88 -35 18 -70 19
-750 19 -670 0 -715 -2 -753 -19z"/>
<path d="M2645 2125 c-16 -8 -37 -20 -46 -27 -23 -19 -59 -93 -59 -122 0 -41
39 -110 78 -137 l36 -24 731 -3 731 -2 45 23 c117 62 117 222 -1 284 l-43 23
-721 0 c-599 -1 -726 -3 -751 -15z"/>
</g>
</svg>
