<svg xmlns="http://www.w3.org/2000/svg" width="96" height="96" fill="none" viewBox="0 0 96 96" id="hourglass">
  <path stroke="#12182B" stroke-width="5" d="M48 48L36.403 35.498C32.111 30.8712 28.6956 25.503 26.3229 19.655V19.655C24.2572 14.5634 28.0039 9 33.4986 9L62.5014 9C67.9961 9 71.7428 14.5634 69.6771 19.655V19.655C67.3044 25.503 63.889 30.8712 59.597 35.498L48 48zM48 48L59.6485 60.2354C63.9056 64.7071 67.3054 69.9226 69.6788 75.6223V75.6223C71.7347 80.5597 68.1069 86 62.7586 86L33.2414 86C27.8931 86 24.2653 80.5597 26.3212 75.6223V75.6223C28.6946 69.9226 32.0944 64.7071 36.3515 60.2354L48 48z"></path>
  <path stroke="#12182B" stroke-linecap="round" stroke-width="5" d="M76 9L19 9M76 86L19 86"></path>
  <path stroke="#12182B" stroke-width="5" d="M32.5349 31.5254L39.4802 30.4196C42.3478 29.963 45.2853 30.2814 47.9885 31.3418V31.3418C50.6917 32.4022 53.6292 32.7206 56.4968 32.2641L63.4421 31.1583M29.0635 70.6035L38.603 69.8507C42.3136 69.5578 46.0419 70.1216 49.5 71.4984V71.4984C52.9582 72.8753 56.6865 73.439 60.3971 73.1462L69.9365 72.3933"></path>
</svg>
