<?xml version="1.0" standalone="no"?>
<!DOCTYPE svg PUBLIC "-//W3C//DTD SVG 20010904//EN"
 "http://www.w3.org/TR/2001/REC-SVG-20010904/DTD/svg10.dtd">
<svg version="1.0" xmlns="http://www.w3.org/2000/svg"
 width="915.000000pt" height="915.000000pt" viewBox="0 0 915.000000 915.000000"
 preserveAspectRatio="xMidYMid meet">
<g transform="translate(0.000000,915.000000) scale(0.100000,-0.100000)"
fill="#000000" stroke="none">
<path d="M2850 6665 c-14 -8 -32 -14 -40 -15 -21 0 -82 -32 -128 -66 -78 -57
-134 -137 -183 -264 -12 -29 -14 -330 -17 -1795 -2 -1590 -1 -1767 14 -1830
36 -160 132 -284 264 -346 105 -49 91 -49 1421 -49 1107 0 1252 2 1319 16 41
9 82 20 90 25 8 4 34 18 57 29 55 28 152 134 186 204 37 76 48 137 56 306 l6
145 410 5 c226 3 416 9 423 13 9 6 12 211 12 967 0 883 -1 958 -17 964 -9 4
-195 6 -415 6 -219 -1 -402 2 -408 5 -6 4 -10 130 -10 351 0 232 -4 352 -11
367 -6 12 -225 237 -488 500 l-476 477 -1020 0 c-865 -1 -1024 -3 -1045 -15z
m1570 -360 c6 -4 10 -132 10 -341 0 -308 2 -339 20 -394 63 -188 178 -295 360
-337 47 -11 154 -17 385 -22 l320 -6 3 -104 c1 -57 -1 -108 -6 -113 -4 -4
-462 -8 -1018 -8 -555 -1 -1015 -4 -1022 -9 -17 -10 -18 -1907 -1 -1927 9 -11
194 -14 1022 -14 804 0 1012 -2 1019 -12 9 -15 9 -233 -1 -267 -3 -13 -22 -37
-42 -53 l-35 -28 -1243 0 c-983 0 -1248 2 -1269 12 -14 7 -37 28 -49 47 l-23
34 0 1724 c0 1841 -2 1752 46 1794 11 9 31 20 47 25 30 10 1461 9 1477 -1z
m725 -375 c181 -181 326 -333 322 -336 -11 -11 -573 -5 -601 6 -14 5 -36 26
-50 47 l-26 38 0 287 c0 226 3 288 13 288 7 0 161 -148 342 -330z m1352 -1915
c2 -390 -1 -716 -5 -722 -12 -19 -2772 -19 -2784 -1 -9 16 -11 1422 -1 1431 3
4 632 6 1397 5 l1391 -3 2 -710z"/>
<path d="M3948 4478 c-11 -28 -9 -927 1 -946 10 -19 24 -20 301 -21 l289 -2 6
23 c3 13 5 70 3 128 l-3 105 -165 2 c-91 1 -171 2 -177 3 -10 0 -13 82 -15
358 l-3 357 -116 3 c-88 2 -118 -1 -121 -10z"/>
<path d="M4930 4474 c-19 -9 -51 -23 -70 -32 -38 -18 -129 -100 -130 -118 0
-5 -5 -15 -11 -21 -7 -7 -20 -36 -30 -65 -26 -75 -27 -380 -2 -459 20 -63 79
-148 125 -180 18 -13 35 -26 38 -29 3 -3 21 -14 40 -25 29 -17 53 -20 145 -20
108 0 111 1 165 35 80 50 124 95 162 164 l33 61 0 215 c-1 212 -1 216 -28 273
-28 60 -97 143 -132 158 -11 5 -27 13 -35 18 -67 38 -210 52 -270 25z m183
-261 l37 -36 0 -172 0 -171 -34 -33 c-30 -29 -38 -32 -87 -29 -50 3 -55 6 -86
46 l-33 44 0 134 c0 154 13 201 63 233 51 33 97 28 140 -16z"/>
<path d="M5795 4478 c-75 -26 -133 -60 -171 -100 -82 -88 -103 -163 -103 -368
0 -222 21 -294 116 -386 95 -93 172 -114 424 -114 110 0 160 4 173 13 16 11
17 37 16 302 0 159 -3 291 -6 294 -8 8 -302 14 -330 7 -23 -6 -24 -9 -24 -120
0 -96 3 -115 16 -120 9 -4 25 -4 34 -1 10 3 29 1 44 -5 25 -9 27 -14 24 -57
l-3 -48 -84 -3 c-76 -3 -86 -1 -108 20 -14 13 -29 34 -34 47 -13 33 -14 300
-1 332 6 14 25 38 42 52 l32 27 193 0 c123 0 196 4 200 10 4 6 7 55 7 110 0
55 -3 104 -7 110 -8 13 -410 12 -450 -2z"/>
</g>
</svg>
