<?xml version="1.0" standalone="no"?>
<!DOCTYPE svg PUBLIC "-//W3C//DTD SVG 20010904//EN"
 "http://www.w3.org/TR/2001/REC-SVG-20010904/DTD/svg10.dtd">
<svg version="1.0" xmlns="http://www.w3.org/2000/svg"
 width="489.000000pt" height="480.000000pt" viewBox="0 0 489.000000 480.000000"
 preserveAspectRatio="xMidYMid meet">
<g transform="translate(0.000000,480.000000) scale(0.100000,-0.100000)"
fill="#000000" stroke="none">
<path d="M2275 4534 c-27 -9 -63 -22 -78 -30 -16 -8 -34 -14 -40 -14 -7 0 -47
-29 -90 -63 -114 -92 -165 -176 -202 -332 -11 -48 -30 -94 -46 -115 -14 -19
-38 -53 -52 -75 -14 -22 -53 -78 -86 -125 -60 -84 -108 -153 -212 -303 -30
-43 -59 -87 -66 -99 -6 -11 -15 -23 -20 -27 -5 -3 -23 -26 -39 -51 -63 -94
-202 -294 -289 -415 -36 -49 -68 -97 -72 -105 -4 -8 -35 -53 -70 -99 -35 -46
-63 -87 -63 -91 0 -4 -30 -8 -67 -8 -159 -2 -291 -56 -394 -162 -42 -44 -99
-133 -99 -158 -1 -9 -7 -28 -15 -42 -12 -21 -14 -148 -15 -808 0 -747 1 -785
19 -840 24 -69 36 -94 79 -153 35 -49 107 -113 144 -129 13 -5 30 -14 38 -19
8 -5 42 -18 75 -28 57 -17 142 -18 1800 -18 1660 0 1743 1 1805 18 36 11 72
23 80 28 8 5 25 14 38 19 60 26 157 131 194 210 49 108 48 83 48 900 0 819 2
790 -49 900 -34 75 -127 178 -186 206 -16 8 -37 18 -45 23 -47 28 -105 41
-199 44 -77 3 -106 8 -112 19 -4 8 -29 43 -55 79 -26 35 -81 114 -122 174 -41
61 -93 135 -116 165 -23 31 -45 63 -51 72 -10 17 -100 148 -138 202 -12 16
-30 40 -41 52 -10 13 -24 32 -30 43 -13 23 -76 115 -211 306 -53 75 -129 185
-140 203 -5 9 -28 41 -51 72 -29 39 -47 78 -62 135 -28 110 -41 142 -80 203
-69 106 -194 196 -331 236 -68 20 -219 20 -286 0z m287 -246 c90 -45 125 -82
170 -182 25 -52 25 -189 1 -243 -63 -138 -174 -213 -315 -213 -67 0 -88 4
-138 29 -63 31 -79 45 -125 106 -53 70 -66 109 -66 204 0 74 4 95 26 140 15
29 40 67 55 85 33 37 117 85 170 97 59 13 174 2 222 -23z m-618 -610 c13 -53
167 -182 256 -216 137 -52 321 -51 442 2 97 42 242 164 254 213 4 13 12 23 20
23 12 0 96 -105 156 -195 15 -22 54 -78 87 -125 33 -47 90 -130 128 -185 37
-55 92 -134 123 -175 56 -76 127 -177 145 -208 6 -9 35 -50 66 -92 60 -80 94
-140 82 -140 -76 -3 -2568 1 -2571 4 -5 6 22 47 90 138 32 42 58 80 58 83 0 4
20 33 45 65 25 32 45 61 45 65 0 3 26 41 58 83 31 43 62 85 67 94 17 29 88
130 145 208 30 42 60 83 65 92 59 98 204 288 219 288 8 0 16 -10 20 -22z
m2216 -1339 c25 -7 52 -17 60 -24 8 -7 22 -14 31 -18 29 -10 85 -109 97 -171
16 -80 17 -1386 1 -1454 -6 -26 -17 -60 -26 -77 -22 -44 -102 -114 -142 -125
-40 -11 -3478 -14 -3521 -3 -31 8 -102 64 -131 104 -46 65 -48 99 -49 825 0
485 3 698 12 740 20 98 88 177 173 199 72 18 269 20 1815 18 1216 -2 1647 -5
1680 -14z"/>
<path d="M933 1881 c-61 -38 -63 -52 -63 -477 0 -398 1 -414 44 -461 15 -18
30 -23 72 -23 47 0 55 3 83 35 l31 36 0 159 c0 87 4 161 9 164 5 3 23 -1 41
-10 27 -14 38 -14 75 -4 24 7 48 9 53 6 6 -4 11 -66 11 -151 2 -198 19 -235
114 -235 43 0 58 5 74 23 42 46 43 52 43 461 0 381 -1 397 -21 435 -16 32 -28
42 -55 47 -59 11 -100 -3 -131 -44 -30 -39 -36 -49 -78 -130 -15 -29 -31 -52
-35 -52 -13 0 -45 45 -69 96 -30 67 -73 122 -99 128 -15 3 -36 8 -47 11 -11 3
-34 -3 -52 -14z"/>
<path d="M1779 1888 c-21 -5 -48 -21 -60 -35 l-24 -25 0 -428 0 -429 24 -22
c13 -12 42 -25 65 -29 59 -10 324 -13 414 -4 67 6 79 10 104 38 41 44 39 95
-5 143 l-34 36 -167 2 c-91 1 -169 5 -172 8 -4 3 -7 34 -8 69 l-1 63 165 6
c178 6 207 13 234 60 9 15 16 45 16 67 0 32 -7 46 -35 73 l-34 34 -173 5 -173
5 -2 50 c-4 101 -16 95 177 95 l169 0 36 35 c28 29 35 43 35 75 0 49 -38 96
-88 109 -47 13 -415 12 -463 -1z"/>
<path d="M2574 1886 c-66 -29 -64 -16 -64 -482 l0 -422 26 -31 c23 -28 31 -31
83 -31 49 0 61 4 82 26 23 25 24 32 27 190 2 90 7 164 11 164 11 0 33 -29 61
-80 13 -25 39 -72 56 -105 18 -33 43 -80 56 -105 38 -76 61 -94 120 -93 43 1
55 6 82 32 l31 31 0 426 0 426 -34 30 c-30 27 -39 30 -83 26 -36 -4 -57 -12
-75 -30 -25 -25 -25 -28 -26 -192 -1 -121 -4 -166 -13 -166 -6 0 -14 8 -18 18
-3 9 -15 31 -26 47 -10 17 -31 53 -45 80 -14 28 -35 66 -47 85 -11 19 -31 56
-45 82 -28 53 -38 63 -75 72 -14 3 -32 8 -40 11 -7 2 -27 -2 -44 -9z"/>
<path d="M3383 1880 c-13 -5 -32 -24 -43 -42 -19 -31 -20 -51 -20 -343 0 -278
2 -316 19 -364 23 -67 78 -133 147 -177 51 -33 58 -34 151 -36 111 -1 145 11
226 83 96 84 107 137 107 503 0 340 -6 366 -88 382 -55 11 -99 -3 -121 -40
-20 -32 -21 -48 -21 -335 0 -188 -4 -310 -10 -322 -13 -24 -61 -49 -94 -49
-14 0 -38 11 -53 24 l-28 24 -5 314 c-4 280 -7 317 -23 341 -28 43 -90 59
-144 37z"/>
</g>
</svg>
