<?xml version="1.0" standalone="no"?>
<!DOCTYPE svg PUBLIC "-//W3C//DTD SVG 20010904//EN"
 "http://www.w3.org/TR/2001/REC-SVG-20010904/DTD/svg10.dtd">
<svg version="1.0" xmlns="http://www.w3.org/2000/svg"
 width="555.000000pt" height="522.000000pt" viewBox="0 0 555.000000 522.000000"
 preserveAspectRatio="xMidYMid meet">
<g transform="translate(0.000000,522.000000) scale(0.100000,-0.100000)"
fill="#000000" stroke="none">
<path d="M1609 4533 c-41 -25 -59 -64 -59 -126 0 -41 -4 -56 -16 -61 -9 -3
-138 -6 -289 -6 -316 0 -331 -3 -420 -95 -88 -90 -85 -62 -85 -756 0 -592 0
-607 20 -632 23 -29 83 -43 122 -28 15 6 35 25 45 43 17 31 18 77 21 623 l3
590 24 25 25 25 273 0 272 0 5 -62 c6 -68 31 -113 71 -124 13 -4 120 -7 237
-8 217 -1 266 6 288 40 5 8 11 43 15 78 4 36 12 67 20 72 8 5 49 9 91 9 89 0
98 -8 98 -84 0 -36 6 -52 29 -78 l29 -33 247 0 247 0 29 33 c23 26 29 42 29
78 0 77 9 84 100 84 97 0 110 -10 110 -85 0 -43 5 -60 24 -82 l24 -28 224 -3
c243 -4 287 2 315 44 9 14 19 53 22 87 l6 62 272 0 c263 0 273 -1 293 -21 12
-12 26 -39 31 -60 11 -48 11 -3021 0 -3081 -9 -49 -29 -71 -73 -84 -47 -13
-3262 -12 -3311 2 -72 20 -68 -9 -70 641 -2 646 0 629 -68 663 -38 20 -89 6
-119 -32 -20 -25 -20 -39 -20 -632 0 -702 -4 -666 93 -763 31 -32 65 -58 75
-58 10 0 27 -7 38 -15 16 -12 240 -14 1721 -15 l1703 0 65 31 c76 36 124 87
154 165 l21 56 0 1578 0 1578 -22 57 c-27 71 -96 144 -162 174 -46 20 -65 21
-321 21 -151 0 -280 3 -289 6 -12 4 -16 20 -16 56 0 64 -22 111 -63 132 -28
15 -60 17 -259 14 l-227 -3 -29 -28 c-26 -25 -30 -37 -34 -93 -3 -43 -9 -69
-19 -75 -21 -13 -163 -11 -177 3 -7 7 -12 37 -12 68 0 62 -16 92 -60 115 -42
22 -448 22 -490 0 -44 -23 -60 -53 -60 -115 0 -31 -5 -61 -12 -68 -14 -14
-156 -16 -177 -3 -8 5 -15 35 -18 75 -5 60 -9 69 -40 96 l-34 30 -227 0 c-192
0 -231 -3 -253 -17z m335 -199 c13 -5 16 -23 16 -88 0 -50 -5 -87 -12 -94 -7
-7 -42 -12 -88 -12 -46 0 -81 5 -88 12 -13 13 -17 169 -5 181 8 9 156 9 177 1z
m824 -6 c7 -7 12 -41 12 -84 0 -96 -9 -104 -105 -104 -96 0 -105 8 -105 104 0
43 5 77 12 84 16 16 170 16 186 0z m820 -76 c2 -53 -1 -89 -9 -98 -15 -18
-159 -20 -177 -2 -16 16 -16 160 0 176 9 9 40 12 98 10 l85 -3 3 -83z"/>
<path d="M1308 3619 c-21 -10 -42 -28 -48 -38 -6 -13 -10 -145 -10 -359 0
-327 1 -340 20 -365 26 -32 79 -44 121 -26 48 19 59 58 59 208 0 88 4 132 12
137 6 4 25 -9 45 -32 83 -97 100 -113 127 -120 46 -11 90 18 146 96 29 38 55
70 60 70 14 0 20 -44 20 -168 0 -88 4 -131 15 -151 31 -61 130 -65 166 -7 18
29 19 54 19 359 0 368 -1 373 -69 400 -67 27 -87 11 -236 -193 -42 -58 -83
-108 -90 -112 -17 -10 -35 10 -145 160 -80 109 -135 163 -165 162 -5 -1 -27
-10 -47 -21z"/>
<path d="M2241 3627 c-19 -7 -44 -25 -55 -40 -20 -27 -21 -42 -24 -350 -3
-443 -19 -419 271 -415 l189 3 24 28 c35 41 33 99 -5 138 -29 28 -32 29 -131
29 -115 0 -140 8 -140 48 0 44 16 52 105 52 44 0 97 5 117 10 77 22 103 106
50 160 -23 23 -41 29 -96 35 -37 4 -84 5 -106 1 -46 -7 -70 11 -70 53 0 44 16
51 117 51 139 0 183 25 183 103 0 45 -31 84 -78 97 -51 14 -309 12 -351 -3z"/>
<path d="M2833 3618 c-11 -5 -28 -24 -38 -42 -14 -27 -16 -69 -13 -367 3 -314
4 -338 22 -358 25 -27 78 -37 117 -21 48 20 59 54 59 179 0 110 5 141 21 141
5 0 53 -66 107 -148 55 -81 107 -154 117 -162 10 -8 38 -15 61 -15 34 0 50 6
71 28 l28 27 0 346 0 346 -33 29 c-41 37 -89 39 -129 5 -28 -24 -28 -26 -33
-163 -4 -114 -8 -138 -20 -138 -8 0 -59 65 -112 145 -53 79 -107 152 -120 162
-25 19 -71 22 -105 6z"/>
<path d="M3543 3618 c-12 -6 -29 -26 -38 -45 -15 -30 -16 -69 -13 -281 l3
-247 28 -57 c95 -193 360 -228 502 -66 70 79 75 108 75 396 l0 254 -29 29
c-22 21 -39 29 -66 29 -94 0 -105 -32 -105 -292 0 -216 -8 -268 -43 -293 -30
-21 -96 -19 -127 5 l-25 19 -5 243 c-3 169 -9 250 -18 265 -27 49 -87 66 -139
41z"/>
<path d="M1238 2610 c-87 -16 -100 -61 -96 -330 3 -221 10 -247 68 -267 54
-18 441 -17 486 2 58 24 64 53 64 292 0 314 1 314 -295 312 -104 -1 -207 -5
-227 -9z m307 -300 l0 -95 -75 -3 c-122 -5 -120 -6 -120 91 0 53 5 88 12 95 9
9 40 12 98 10 l85 -3 0 -95z"/>
<path d="M2033 2605 c-71 -31 -91 -112 -39 -164 l26 -26 351 0 351 0 24 28
c33 39 33 105 1 135 -13 13 -39 27 -58 32 -50 15 -620 10 -656 -5z"/>
<path d="M769 2581 c-40 -40 -40 -89 0 -133 26 -29 35 -33 77 -32 51 1 78 22
90 70 25 98 -95 166 -167 95z"/>
<path d="M2022 2195 c-65 -28 -76 -121 -21 -171 20 -18 45 -19 471 -19 l450 0
29 33 c48 53 34 122 -31 154 -32 16 -74 18 -450 18 -337 -1 -421 -3 -448 -15z"/>
<path d="M1213 1789 c-59 -17 -68 -49 -71 -264 -4 -218 5 -283 45 -315 24 -19
40 -20 259 -20 128 0 244 4 257 9 47 18 57 70 57 297 0 314 10 304 -302 303
-117 0 -228 -5 -245 -10z m335 -293 c2 -65 -1 -92 -10 -98 -19 -11 -146 -10
-169 2 -16 9 -19 22 -19 94 0 45 3 86 7 90 4 4 48 5 98 4 l90 -3 3 -89z"/>
<path d="M2025 1791 c-82 -34 -79 -159 5 -188 48 -16 617 -18 671 -1 45 13 71
47 71 93 0 43 -16 72 -52 90 -24 12 -83 15 -352 14 -178 0 -332 -4 -343 -8z"/>
<path d="M2012 1370 c-43 -26 -57 -64 -42 -112 20 -70 4 -68 503 -68 l449 0
29 31 c39 42 39 87 0 131 l-29 33 -439 3 c-424 2 -439 2 -471 -18z"/>
</g>
</svg>
