<?xml version="1.0" standalone="no"?>
<!DOCTYPE svg PUBLIC "-//W3C//DTD SVG 20010904//EN"
 "http://www.w3.org/TR/2001/REC-SVG-20010904/DTD/svg10.dtd">
<svg version="1.0" xmlns="http://www.w3.org/2000/svg"
 width="906.000000pt" height="858.000000pt" viewBox="0 0 906.000000 858.000000"
 preserveAspectRatio="xMidYMid meet">
<g transform="translate(0.000000,858.000000) scale(0.100000,-0.100000)"
fill="#000000" stroke="none">
<path d="M4150 5793 c-41 -8 -93 -19 -115 -24 -22 -6 -58 -14 -80 -19 -88 -18
-226 -71 -370 -142 -221 -108 -449 -301 -609 -515 -42 -56 -76 -105 -76 -108
0 -3 -12 -24 -27 -48 -54 -83 -129 -246 -153 -332 -4 -16 -13 -43 -19 -60 -86
-251 -96 -626 -24 -910 20 -81 44 -166 54 -190 45 -111 84 -203 93 -215 6 -8
20 -33 31 -55 24 -48 95 -154 141 -212 19 -23 34 -50 34 -60 0 -10 -73 -91
-171 -188 -195 -194 -229 -238 -229 -295 0 -77 71 -150 146 -150 60 0 104 33
289 219 99 100 187 181 196 181 9 0 46 -22 82 -50 36 -27 69 -50 73 -50 3 0
23 -13 43 -28 20 -16 43 -32 51 -35 8 -4 33 -18 55 -30 72 -41 99 -55 145 -72
25 -9 57 -23 72 -31 14 -8 35 -14 47 -14 11 0 35 -6 53 -14 37 -15 90 -29 223
-57 114 -24 421 -27 524 -5 85 18 174 36 231 46 75 13 184 55 355 137 58 28
214 128 251 161 11 9 42 35 69 56 56 44 184 173 223 226 15 19 35 43 45 53 20
21 115 164 147 223 12 21 25 46 30 54 20 34 70 151 70 164 0 8 6 27 14 43 18
36 36 89 46 133 4 19 12 55 18 80 41 170 57 460 32 577 -6 26 -15 77 -20 113
-22 158 -68 295 -161 485 -24 49 -59 112 -76 138 -18 27 -33 51 -33 54 0 3
-22 34 -50 69 -27 35 -50 72 -50 81 0 10 79 97 176 193 97 96 187 192 200 212
31 48 31 101 0 152 -35 55 -71 76 -135 76 l-53 0 -202 -200 c-111 -110 -209
-200 -218 -200 -8 0 -45 23 -81 50 -36 28 -69 50 -72 50 -4 0 -21 11 -38 24
-29 22 -199 109 -272 140 -16 7 -47 21 -68 30 -21 9 -44 16 -52 16 -8 0 -29 6
-47 14 -35 15 -127 35 -274 60 -115 20 -379 20 -484 -1z m410 -294 c185 -29
299 -58 372 -95 14 -8 31 -14 37 -14 45 0 326 -170 337 -204 5 -15 -194 -219
-1015 -1038 -757 -756 -1024 -1017 -1035 -1011 -32 18 -142 184 -187 283 -47
104 -67 157 -79 210 -4 19 -13 55 -19 80 -53 213 -53 520 1 675 5 17 14 46 18
65 9 38 25 87 46 135 41 95 90 194 110 222 13 17 24 34 24 38 0 12 118 161
171 215 30 30 77 73 104 95 28 22 52 42 55 45 12 13 86 67 100 73 8 4 29 16
45 26 95 61 260 132 353 151 23 5 51 14 61 20 11 5 35 10 53 11 18 0 60 6 93
14 72 16 265 19 355 4z m991 -561 c18 -15 73 -87 82 -108 4 -8 16 -28 27 -45
147 -229 241 -643 200 -885 -7 -41 -16 -100 -21 -130 -11 -82 -27 -138 -75
-262 -23 -58 -81 -176 -104 -213 -11 -16 -23 -37 -27 -45 -16 -36 -103 -142
-187 -228 -101 -104 -238 -213 -303 -241 -11 -6 -24 -15 -28 -20 -3 -6 -13
-11 -22 -11 -9 0 -24 -6 -32 -13 -9 -8 -52 -28 -96 -46 -44 -18 -93 -39 -108
-47 -16 -8 -38 -14 -49 -14 -11 0 -41 -6 -67 -14 -271 -85 -673 -45 -966 96
-127 62 -273 155 -281 181 -5 17 179 206 1012 1038 561 560 1022 1018 1025
1019 3 0 12 -6 20 -12z"/>
</g>
</svg>
