<?xml version="1.0" standalone="no"?>
<!DOCTYPE svg PUBLIC "-//W3C//DTD SVG 20010904//EN"
 "http://www.w3.org/TR/2001/REC-SVG-20010904/DTD/svg10.dtd">
<svg version="1.0" xmlns="http://www.w3.org/2000/svg"
 width="897.000000pt" height="897.000000pt" viewBox="0 0 897.000000 897.000000"
 preserveAspectRatio="xMidYMid meet">
<g transform="translate(0.000000,897.000000) scale(0.100000,-0.100000)"
fill="#000000" stroke="none">
<path d="M2825 6896 c-14 -20 -14 -36 -5 -107 24 -192 8 -362 -44 -466 -40
-79 -146 -303 -146 -308 0 -3 -14 -35 -31 -72 -46 -103 -55 -124 -74 -173 -9
-25 -23 -61 -31 -80 -7 -19 -21 -61 -30 -94 -28 -102 0 -222 80 -340 36 -52
44 -72 50 -129 11 -107 66 -202 140 -242 24 -13 37 -29 42 -48 20 -92 75 -165
158 -208 32 -17 55 -38 69 -64 36 -66 80 -98 155 -115 l67 -16 -3 -34 c-1 -19
-4 -41 -7 -47 -3 -10 -144 -13 -655 -13 l-651 0 -24 -25 c-31 -30 -31 -46 -2
-73 l23 -22 657 0 657 0 5 -27 c17 -80 39 -173 51 -213 23 -78 27 -117 13
-125 -7 -5 -19 0 -29 13 -29 35 -91 72 -122 72 -33 0 -78 -21 -98 -45 -77 -92
-63 -399 30 -660 18 -49 37 -110 43 -136 11 -50 4 -99 -16 -99 -23 0 -85 59
-139 133 -59 81 -61 83 -113 187 -20 41 -41 83 -46 92 -32 62 -78 230 -79 284
0 52 14 67 49 50 14 -8 35 -24 46 -36 40 -44 73 -62 95 -50 11 6 24 19 30 30
36 67 -160 213 -240 180 -86 -36 -113 -158 -69 -315 11 -38 23 -83 28 -100 13
-48 72 -175 120 -255 39 -66 91 -177 91 -194 0 -30 -58 -23 -130 17 -118 65
-277 206 -374 331 -94 121 -125 186 -100 210 11 12 20 12 53 0 46 -16 121 -57
175 -96 63 -45 106 -34 106 29 0 27 -8 38 -52 72 -29 22 -87 56 -128 77 -64
32 -84 37 -147 38 -66 1 -75 -1 -99 -26 -23 -22 -27 -36 -28 -85 -1 -111 68
-236 217 -390 175 -182 361 -302 477 -311 49 -3 60 0 97 27 47 34 65 38 82 17
6 -7 31 -19 55 -26 35 -10 49 -9 79 4 21 8 40 22 43 31 8 21 30 19 63 -6 43
-32 106 -37 141 -10 l29 21 41 -21 c30 -16 51 -20 78 -16 20 4 42 3 48 -1 6
-4 30 -45 53 -92 43 -88 48 -96 94 -168 15 -24 27 -45 27 -48 0 -3 33 -49 74
-102 151 -200 285 -288 331 -218 14 21 14 29 2 73 -8 26 -23 77 -32 113 -9 36
-23 88 -30 115 -30 115 -48 183 -62 227 -8 25 -15 66 -16 90 l-2 43 305 5
c234 4 312 9 337 20 32 14 32 14 72 -32 52 -59 106 -76 182 -58 60 15 431 199
466 231 62 59 113 231 143 484 27 226 48 287 151 443 16 24 29 45 29 47 0 2
14 24 30 48 17 25 30 49 30 53 1 5 9 19 19 32 19 22 23 22 258 22 131 0 243 4
249 8 23 15 35 51 24 72 -18 34 -53 40 -246 40 -171 0 -184 1 -184 18 0 10 5
23 11 29 6 6 16 21 23 32 6 11 73 123 149 249 75 125 137 235 137 243 0 18
-36 59 -51 59 -29 0 -57 -36 -166 -215 -65 -108 -125 -207 -133 -220 -36 -57
-255 -422 -268 -445 -7 -14 -22 -38 -32 -55 -11 -16 -23 -37 -27 -45 -4 -8
-19 -35 -33 -60 -35 -59 -55 -137 -75 -290 -40 -309 -77 -439 -134 -477 -25
-16 -295 -151 -374 -187 -21 -10 -46 -15 -56 -11 -24 7 -54 41 -49 55 2 6 61
55 132 108 71 53 134 105 140 114 7 11 7 26 0 45 -7 22 -17 29 -42 31 -26 3
-46 -8 -115 -60 -45 -35 -84 -65 -87 -68 -9 -10 -105 -76 -120 -83 -8 -4 -35
-18 -59 -32 -61 -34 -75 -32 -100 15 -29 55 -27 66 16 103 21 17 75 67 121
111 88 85 101 116 64 149 -33 30 -55 19 -137 -64 -76 -77 -242 -209 -262 -209
-18 0 -63 56 -69 85 -8 43 1 75 100 350 30 84 32 116 8 138 -46 42 -78 13
-117 -106 -33 -100 -54 -147 -65 -147 -16 0 -38 42 -49 90 -5 25 -11 111 -12
192 -2 134 -1 150 17 169 45 50 218 180 329 246 44 26 149 73 205 92 25 9 246
51 267 51 1 0 16 26 35 58 18 31 38 66 45 77 7 11 16 29 22 40 138 293 137
290 211 455 89 199 214 433 255 480 27 30 28 66 4 89 -13 11 -30 21 -39 21
-47 0 -163 -195 -334 -563 -20 -43 -36 -80 -36 -82 0 -12 -159 -340 -207 -428
-21 -38 -53 -57 -96 -57 -48 0 -170 -33 -246 -66 l-53 -24 -449 0 c-503 0
-458 -7 -477 76 -6 22 -20 75 -32 119 -34 119 -35 116 34 130 81 17 109 49
102 120 -3 28 -9 117 -12 198 -6 147 7 277 38 377 20 65 48 225 48 279 0 58
-24 177 -46 229 -8 18 -14 39 -14 47 0 8 -6 29 -14 47 -73 176 -105 397 -85
584 11 109 39 236 59 273 14 26 13 74 -2 89 -19 19 -72 15 -85 -7 -18 -28 -48
-124 -69 -216 -25 -113 -25 -408 0 -515 25 -101 70 -247 117 -375 6 -16 13
-78 16 -137 5 -97 2 -120 -25 -230 -47 -190 -66 -335 -58 -455 4 -57 11 -117
16 -133 16 -55 -11 -80 -58 -58 -28 14 -38 38 -67 148 -9 36 -23 85 -31 110
-18 56 -18 104 0 161 7 24 22 73 31 109 10 36 24 82 31 103 17 46 18 99 2 115
-18 18 -63 14 -82 -6 -9 -11 -23 -45 -32 -78 -9 -32 -22 -81 -30 -109 -87
-311 -124 -488 -142 -695 l-7 -75 -35 -3 c-52 -3 -76 22 -96 98 -17 66 -14
116 16 295 22 134 80 332 136 463 18 42 18 96 0 111 -8 7 -27 11 -43 9 -23 -2
-33 -14 -60 -68 -18 -36 -32 -73 -33 -82 0 -10 -6 -32 -14 -50 -42 -96 -98
-328 -116 -478 -6 -52 -16 -99 -21 -105 -13 -13 -44 27 -64 84 -36 106 -10
245 136 713 14 44 9 61 -25 83 -23 15 -27 15 -47 1 -31 -21 -87 -191 -163
-493 -9 -35 -16 -76 -16 -92 0 -39 -12 -45 -38 -21 -43 40 -42 175 3 345 39
147 41 154 65 220 47 132 48 155 9 176 -43 23 -68 -5 -112 -126 -31 -87 -39
-111 -48 -145 -20 -82 -35 -127 -44 -131 -15 -7 -44 81 -44 137 -1 69 41 193
137 404 62 138 80 176 134 287 70 145 83 187 98 313 13 111 -3 350 -27 388
-19 31 -67 30 -88 -2z m579 -2087 c10 -52 7 -74 -14 -92 -34 -29 -43 -22 -36
29 3 26 6 57 6 70 0 38 36 32 44 -7z m67 -254 c3 -22 16 -76 29 -120 12 -44
24 -89 27 -100 2 -11 10 -42 18 -70 8 -27 21 -79 31 -115 9 -36 22 -85 29
-110 12 -42 30 -110 60 -225 7 -27 21 -79 30 -115 10 -36 24 -90 32 -120 8
-30 21 -77 28 -105 8 -27 21 -77 29 -110 9 -33 28 -103 42 -155 15 -52 30
-111 34 -130 4 -19 18 -71 30 -115 12 -44 26 -93 30 -110 40 -152 81 -306 90
-335 13 -45 13 -50 -3 -50 -36 0 -172 206 -278 420 -50 102 -51 106 -45 170
17 175 17 270 2 399 -9 73 -20 148 -26 165 -38 121 -52 157 -76 204 -30 58
-99 122 -131 122 -49 0 -80 61 -104 205 -32 194 -16 308 60 413 31 44 54 39
62 -13z m838 -347 c0 -7 -33 -37 -72 -65 -87 -64 -124 -96 -161 -145 l-28 -38
-149 0 -149 0 -11 27 c-13 34 -59 207 -59 222 0 8 93 11 315 11 246 0 315 -3
314 -12z m-261 -375 c5 -10 12 -79 14 -153 5 -153 18 -191 88 -259 40 -38 40
-39 40 -115 0 -51 5 -88 16 -109 21 -43 94 -117 114 -117 9 0 25 -6 35 -14 17
-12 16 -14 -18 -20 -60 -11 -335 -5 -345 8 -8 10 -26 70 -59 196 -8 30 -19 69
-24 85 -4 17 -22 82 -38 145 -51 197 -71 274 -82 308 -19 59 -13 62 125 62
109 0 126 -2 134 -17z m-591 -17 c11 -13 30 -52 45 -87 38 -95 47 -135 77
-334 13 -85 13 -206 1 -260 -25 -109 -25 -110 -51 -113 -21 -3 -29 6 -56 60
-17 35 -38 81 -46 103 -62 170 -76 550 -23 631 20 30 30 30 53 0z m-280 -22
c17 -19 31 -25 49 -21 13 2 27 0 30 -5 3 -5 5 -86 4 -181 -1 -192 15 -303 69
-461 29 -87 31 -116 7 -116 -18 0 -106 105 -106 126 0 4 -12 32 -26 62 -76
161 -126 506 -88 606 9 24 34 19 61 -10z m1278 -734 c0 -18 -43 -26 -57 -12
-16 16 2 33 30 30 16 -2 27 -9 27 -18z"/>
</g>
</svg>
