<?xml version="1.0" standalone="no"?>
<!DOCTYPE svg PUBLIC "-//W3C//DTD SVG 20010904//EN"
 "http://www.w3.org/TR/2001/REC-SVG-20010904/DTD/svg10.dtd">
<svg version="1.0" xmlns="http://www.w3.org/2000/svg"
 width="504.000000pt" height="450.000000pt" viewBox="0 0 504.000000 450.000000"
 preserveAspectRatio="xMidYMid meet">
<g transform="translate(0.000000,450.000000) scale(0.100000,-0.100000)"
fill="#000000" stroke="none">
<path d="M1765 4101 c-81 -21 -118 -59 -156 -164 -38 -101 -53 -197 -53 -327
1 -142 12 -196 73 -357 48 -129 71 -220 70 -288 0 -46 -21 -159 -48 -260 -23
-85 -8 -179 37 -228 28 -31 91 -58 147 -64 119 -12 198 51 240 192 38 129 46
174 52 295 7 162 -7 263 -58 408 -88 253 -95 308 -57 448 47 176 28 259 -76
323 -36 23 -125 34 -171 22z m85 -151 c39 -21 42 -43 16 -144 -14 -52 -28
-117 -32 -143 -9 -69 19 -213 61 -317 63 -156 79 -235 80 -381 0 -75 -6 -153
-14 -185 -30 -124 -54 -191 -71 -200 -34 -18 -69 -12 -87 16 -15 23 -15 31 -3
73 73 256 66 417 -25 626 -8 17 -25 71 -39 122 -54 193 -18 488 64 530 30 15
27 15 50 3z"/>
<path d="M2445 4101 c-82 -21 -125 -72 -164 -193 -68 -215 -57 -453 32 -663
49 -116 61 -174 61 -285 0 -82 -7 -128 -28 -210 -34 -128 -32 -190 7 -249 34
-51 94 -82 172 -89 117 -9 187 51 234 204 42 135 55 233 49 393 -6 149 -14
185 -86 381 -43 118 -46 131 -45 225 0 75 5 116 21 165 46 138 18 237 -84 300
-34 22 -124 33 -169 21z m115 -184 c13 -23 12 -33 -10 -104 -21 -67 -25 -97
-24 -208 0 -130 0 -130 47 -250 73 -191 81 -230 81 -395 -1 -123 -5 -160 -27
-242 -32 -122 -48 -148 -93 -148 -25 0 -38 7 -50 24 -14 23 -14 31 12 123 25
86 28 115 29 243 l0 145 -43 120 c-72 200 -83 244 -89 355 -6 115 12 238 47
318 29 66 88 75 120 19z"/>
<path d="M3125 4102 c-68 -16 -114 -62 -145 -145 -42 -113 -51 -164 -57 -307
-6 -168 7 -238 77 -420 53 -137 68 -239 52 -359 -7 -49 -19 -108 -27 -131 -62
-177 7 -310 170 -327 91 -9 174 36 214 116 71 141 105 431 72 606 -12 65 -63
230 -82 266 -18 35 -49 171 -49 216 0 27 10 82 22 123 50 179 30 277 -71 337
-41 24 -125 36 -176 25z m100 -163 c31 -25 31 -34 -5 -169 -30 -113 -25 -252
13 -355 67 -184 78 -217 92 -284 29 -140 11 -355 -42 -496 -28 -75 -87 -94
-117 -38 -11 21 -10 35 2 82 35 139 43 207 39 321 -4 96 -10 130 -37 205 -94
266 -93 260 -94 405 -2 212 41 342 115 349 4 1 19 -9 34 -20z"/>
<path d="M1080 2146 c-117 -31 -198 -134 -200 -252 0 -23 -6 -47 -13 -53 -9
-7 -88 -12 -218 -14 -235 -5 -259 -10 -333 -78 -111 -101 -114 -249 -6 -359
79 -80 95 -84 334 -88 123 -1 214 -7 222 -13 9 -7 13 -91 16 -317 5 -278 7
-312 25 -362 37 -99 74 -157 141 -224 82 -81 88 -84 187 -127 l80 -34 1210 0
c1102 0 1213 1 1245 16 19 9 58 25 85 35 67 25 209 166 247 244 63 130 61 121
66 452 3 224 7 310 16 317 7 6 101 12 222 14 191 2 213 5 256 25 84 39 145
125 156 219 10 94 -63 210 -160 254 -49 22 -67 24 -256 26 -128 1 -208 6 -216
12 -8 6 -17 39 -21 74 -8 73 -56 160 -107 194 -84 55 -22 53 -1537 52 -1070 0
-1407 -3 -1441 -13z m2878 -154 c12 -7 30 -25 40 -39 16 -25 17 -73 20 -575 2
-302 -1 -586 -6 -631 -17 -152 -104 -276 -238 -340 l-69 -32 -1185 0 -1185 0
-67 33 c-121 60 -211 186 -229 321 -11 89 -11 1136 1 1185 11 48 37 75 81 86
19 5 659 7 1424 7 1112 -2 1395 -5 1413 -15z m-3084 -338 c3 -9 6 -49 6 -89 0
-110 7 -107 -230 -103 -218 3 -221 4 -253 71 -14 27 -14 35 -1 67 28 68 35 70
265 70 180 0 208 -2 213 -16z m3742 -2 c52 -44 58 -101 15 -152 l-29 -35 -200
-3 c-239 -4 -232 -7 -232 103 0 40 3 80 6 89 5 14 33 16 213 16 182 -1 208 -3
227 -18z"/>
</g>
</svg>
