<?xml version="1.0" standalone="no"?>
<!DOCTYPE svg PUBLIC "-//W3C//DTD SVG 20010904//EN"
 "http://www.w3.org/TR/2001/REC-SVG-20010904/DTD/svg10.dtd">
<svg version="1.0" xmlns="http://www.w3.org/2000/svg"
 width="522.000000pt" height="531.000000pt" viewBox="0 0 522.000000 531.000000"
 preserveAspectRatio="xMidYMid meet">
<g transform="translate(0.000000,531.000000) scale(0.100000,-0.100000)"
fill="#000000" stroke="none">
<path d="M510 5038 c-59 -35 -75 -64 -74 -136 0 -57 3 -66 34 -97 18 -18 86
-67 152 -107 66 -40 132 -81 146 -90 15 -10 34 -21 42 -26 92 -49 97 -59 110
-232 5 -69 14 -149 20 -179 5 -29 10 -91 10 -137 0 -46 7 -109 15 -141 8 -31
15 -84 15 -118 0 -33 5 -87 10 -120 6 -33 15 -112 20 -175 5 -63 14 -160 20
-215 18 -164 39 -354 50 -460 7 -55 16 -153 20 -218 5 -65 12 -122 15 -126 3
-5 9 -65 14 -133 6 -67 15 -166 21 -218 24 -210 32 -290 41 -395 9 -119 30
-238 46 -270 6 -11 18 -36 28 -55 34 -66 99 -142 154 -179 68 -45 126 -75 164
-85 39 -9 32 -35 -17 -61 -63 -33 -154 -132 -188 -205 -49 -104 -57 -276 -17
-380 36 -94 125 -194 222 -252 48 -28 48 -28 227 -28 l180 0 52 32 c91 54 167
136 206 223 18 39 42 151 42 195 0 58 -26 163 -55 221 -26 54 -78 117 -143
171 -18 14 -32 31 -32 37 0 8 261 11 915 11 886 0 915 -1 915 -19 0 -10 -17
-30 -39 -45 -49 -34 -115 -114 -136 -166 -28 -65 -35 -93 -40 -150 -15 -163
28 -284 139 -396 109 -108 126 -114 344 -114 106 0 183 4 187 10 3 5 22 17 41
26 59 28 156 132 190 204 48 100 60 187 41 293 -25 133 -92 240 -195 312 -33
24 -28 45 11 45 99 0 162 39 187 116 15 43 0 104 -34 142 -48 54 21 52 -1467
52 -1345 0 -1381 0 -1435 20 -126 44 -157 90 -178 260 -45 369 -59 559 -45
576 9 11 319 13 1549 13 1670 0 1582 -2 1634 52 21 23 56 145 56 193 0 28 8
91 41 311 6 39 15 104 19 145 4 41 13 107 19 145 5 39 17 124 26 190 8 66 20
152 26 190 6 39 15 108 19 155 4 47 13 104 19 127 6 23 12 90 14 150 2 99 0
111 -21 139 -13 16 -36 38 -52 47 -27 16 -150 17 -1790 17 -1377 1 -1762 3
-1764 13 -6 22 -27 210 -36 318 -11 135 -27 219 -48 244 -19 22 -89 78 -112
89 -8 4 -24 12 -35 19 -34 21 -100 61 -120 74 -19 12 -129 80 -183 115 -95 60
-155 70 -212 36z m1274 -1219 c6 -8 36 -306 36 -361 0 -34 -5 -60 -12 -64 -7
-5 -114 -7 -237 -6 l-225 1 -13 25 c-7 13 -17 80 -22 148 -6 67 -13 153 -17
190 -7 64 -6 66 17 70 31 4 469 1 473 -3z m903 -3 c10 -4 13 -49 13 -203 0
-109 -4 -204 -9 -211 -6 -11 -62 -14 -271 -13 -160 0 -267 4 -273 10 -14 14
-26 93 -27 181 0 41 -5 106 -10 144 -9 76 -6 93 18 98 26 5 545 -1 559 -6z
m956 4 c4 0 7 -26 7 -57 0 -73 -31 -355 -40 -366 -4 -4 -136 -8 -295 -8 -228
0 -290 2 -296 13 -5 7 -9 102 -9 210 0 160 3 198 14 205 11 6 322 8 619 3z
m907 -11 c8 -12 4 -74 -12 -169 -6 -36 -14 -100 -18 -143 -4 -49 -13 -84 -22
-94 -13 -13 -56 -15 -283 -14 -295 0 -290 -1 -280 61 3 19 10 107 15 194 5 88
13 163 17 167 14 13 43 14 311 12 184 -2 268 -6 272 -14z m-2705 -754 c15 -68
36 -313 33 -385 l-3 -85 -220 -2 c-121 -2 -226 1 -234 6 -10 7 -17 42 -22 118
-5 59 -13 137 -18 173 -12 73 -14 183 -5 193 4 3 110 5 236 4 220 -2 229 -3
233 -22z m839 10 c14 -14 16 -47 16 -239 0 -159 -3 -225 -12 -234 -9 -9 -77
-12 -244 -12 l-232 0 -11 28 c-6 15 -15 106 -21 202 -5 96 -13 192 -16 212 -6
33 -4 39 17 46 13 5 128 10 255 11 202 2 234 0 248 -14z m904 -45 c2 -30 -4
-122 -12 -205 -9 -82 -17 -168 -19 -190 l-2 -40 -259 -3 c-182 -2 -263 1 -272
9 -21 17 -20 451 0 472 12 12 62 14 288 13 l273 -1 3 -55z m869 32 c3 -13 0
-51 -7 -85 -7 -34 -16 -96 -20 -137 -7 -71 -28 -210 -36 -238 -3 -10 -60 -12
-261 -10 l-258 3 1 60 c0 33 5 136 11 228 9 129 15 173 28 187 14 16 39 17
276 16 l260 -1 6 -23z m-2585 -2242 c25 -11 58 -37 74 -57 26 -34 29 -46 28
-106 0 -63 -2 -69 -35 -103 -56 -59 -139 -81 -192 -51 -79 44 -107 86 -107
161 0 64 37 122 97 153 50 27 81 27 135 3z m2335 3 c85 -39 125 -118 104 -207
-23 -97 -146 -155 -234 -110 -68 36 -97 82 -97 158 0 50 4 64 30 96 35 44 92
78 132 79 15 1 44 -7 65 -16z"/>
</g>
</svg>
