<?xml version="1.0" standalone="no"?>
<!DOCTYPE svg PUBLIC "-//W3C//DTD SVG 20010904//EN"
 "http://www.w3.org/TR/2001/REC-SVG-20010904/DTD/svg10.dtd">
<svg version="1.0" xmlns="http://www.w3.org/2000/svg"
 width="936.000000pt" height="933.000000pt" viewBox="0 0 936.000000 933.000000"
 preserveAspectRatio="xMidYMid meet">
<g transform="translate(0.000000,933.000000) scale(0.100000,-0.100000)"
fill="#000000" stroke="none">
<path d="M4555 6394 c-60 -18 -62 -19 -100 -44 -16 -11 -41 -25 -55 -31 -14
-5 -39 -21 -57 -35 -17 -13 -35 -24 -38 -24 -6 0 -190 -110 -254 -152 -14 -10
-35 -22 -46 -28 -11 -6 -33 -19 -50 -30 -16 -11 -39 -24 -50 -30 -11 -6 -33
-19 -50 -29 -16 -11 -47 -29 -68 -40 -113 -62 -148 -166 -85 -247 21 -26 97
-79 168 -117 19 -11 54 -32 78 -48 24 -16 45 -29 48 -29 2 0 23 -12 47 -27 23
-15 58 -36 77 -46 19 -11 54 -32 78 -48 24 -16 45 -29 49 -29 3 0 25 -13 50
-30 24 -16 46 -30 48 -30 3 0 35 -19 72 -42 136 -83 66 -77 1004 -77 459 0
854 4 879 9 92 18 106 22 140 38 86 41 174 128 216 214 44 88 47 109 52 317 5
279 -12 353 -114 479 -57 72 -143 126 -239 150 -90 23 -1725 28 -1800 6z
m1383 -316 c10 -30 7 -107 -5 -119 -11 -11 -1177 -14 -1193 -4 -11 7 -14 128
-3 138 3 4 273 7 600 7 l593 0 8 -22z m410 -21 c44 -40 51 -72 53 -258 3 -220
-9 -254 -96 -294 -54 -24 -55 -20 -55 290 0 155 3 285 7 289 13 13 66 -3 91
-27z m-1920 -268 c-3 -191 -1 -189 -104 -121 -33 21 -89 56 -126 76 -38 21
-68 43 -68 49 0 7 19 23 42 37 77 46 153 90 173 100 11 6 31 17 45 25 14 8 28
11 33 6 4 -4 6 -81 5 -172z m1507 -159 c11 -17 13 -93 4 -118 l-9 -22 -597 2
-598 3 -3 59 c-2 32 -1 65 2 72 4 12 107 14 600 14 397 0 597 -3 601 -10z"/>
<path d="M2581 5945 c-48 -15 -85 -45 -109 -90 -16 -28 -17 -163 -20 -1629 -3
-1739 -5 -1650 51 -1717 49 -60 42 -59 912 -59 533 0 796 4 800 11 4 5 -13 31
-37 57 -56 60 -89 106 -119 162 -46 88 24 80 -664 80 -462 0 -614 3 -623 12
-17 17 -17 2849 0 2866 17 17 277 17 283 0 2 -7 6 -83 9 -168 2 -85 9 -166 14
-180 13 -32 59 -76 95 -89 19 -7 203 -11 540 -11 l511 0 -22 22 c-12 12 -42
34 -66 48 -25 14 -111 65 -191 114 -218 132 -193 124 -387 124 -92 0 -172 3
-178 7 -11 7 -14 103 -4 129 5 12 21 16 69 16 35 0 67 4 70 10 3 5 7 71 7 146
1 108 -1 137 -13 145 -8 5 -206 8 -449 8 -337 0 -445 -3 -479 -14z"/>
<path d="M4735 5028 c-3 -8 -4 -110 -3 -228 l3 -215 145 0 145 0 0 225 0 225
-143 3 c-110 2 -144 0 -147 -10z"/>
<path d="M2971 5000 c-86 -76 -82 -173 11 -240 40 -29 44 -30 157 -30 127 0
147 7 193 65 19 24 23 42 23 94 0 63 -1 64 -45 102 l-45 39 -130 0 -130 0 -34
-30z"/>
<path d="M3811 4883 c-80 -8 -131 -67 -131 -151 0 -63 25 -104 82 -133 32 -16
60 -19 191 -19 l154 0 40 -29 c29 -21 46 -43 58 -78 9 -26 23 -64 30 -83 7
-19 21 -57 30 -85 8 -27 61 -185 116 -350 55 -165 104 -314 108 -331 5 -18 12
-37 15 -43 4 -6 12 -25 16 -42 9 -30 9 -31 -63 -63 -144 -66 -247 -179 -304
-331 -24 -65 -28 -211 -9 -281 23 -80 60 -152 108 -211 45 -53 161 -143 187
-143 9 0 25 -6 36 -14 11 -7 40 -16 64 -20 63 -10 78 -20 107 -80 48 -99 160
-190 283 -229 184 -58 412 47 510 235 l25 47 80 3 c128 5 133 3 162 -55 70
-136 245 -247 393 -247 57 0 166 27 211 52 111 60 188 154 230 277 35 105 24
220 -34 341 -32 68 -131 162 -212 200 -66 32 -74 33 -189 33 -118 0 -121 0
-191 -36 -87 -44 -172 -125 -210 -202 l-28 -55 -92 0 c-51 0 -99 3 -108 6 -8
3 -27 29 -41 57 -41 79 -118 152 -205 194 -73 35 -78 36 -190 36 -108 0 -119
-2 -182 -31 -97 -45 -199 -146 -218 -217 -4 -14 -16 -21 -40 -23 -29 -2 -44 5
-86 42 -40 35 -55 57 -69 101 -17 54 -17 59 0 113 10 31 23 65 30 74 25 37
101 85 144 92 24 4 340 7 702 6 653 0 835 7 869 34 8 7 35 21 60 31 58 24 143
106 176 169 14 27 30 57 35 65 4 9 38 106 74 216 36 110 69 209 74 220 4 11
25 74 46 140 21 66 42 124 46 130 5 5 9 29 9 53 0 61 -32 114 -85 141 -42 21
-43 21 -1057 21 -800 0 -1018 3 -1026 13 -5 6 -15 32 -22 57 -23 88 -88 202
-147 257 -52 49 -152 106 -205 117 -34 7 -305 14 -357 9z m1099 -778 c5 -13
12 -47 16 -75 l7 -50 -115 0 c-81 0 -119 4 -125 13 -17 20 -45 116 -38 127 4
6 55 10 126 10 118 0 120 0 129 -25z m854 16 c3 -4 -1 -37 -8 -72 l-13 -64
-248 0 -249 0 -11 62 c-8 43 -8 66 -1 73 12 12 522 14 530 1z m581 -1 c4 -6 2
-16 -3 -23 -5 -7 -15 -30 -22 -52 -20 -65 -21 -65 -148 -65 l-115 0 7 50 c14
104 8 100 150 100 76 0 127 -4 131 -10z m-1361 -461 c15 -14 25 -112 13 -127
-13 -17 -89 -8 -123 15 -25 16 -57 64 -68 100 -5 16 -2 22 11 25 31 6 158 -4
167 -13z m702 8 c11 -11 -7 -116 -22 -132 -12 -12 -46 -15 -169 -15 -149 0
-155 1 -169 23 -21 32 -32 117 -17 127 15 9 368 6 377 -3z m462 4 c50 -1 53
-14 18 -69 -37 -59 -56 -71 -116 -74 l-55 -3 0 63 c0 75 16 93 74 87 20 -1 55
-3 79 -4z m-1031 -934 c45 -25 66 -66 67 -128 1 -67 -20 -104 -75 -131 -82
-41 -170 -9 -207 75 -25 58 -14 103 42 165 28 29 35 32 90 32 34 -1 71 -6 83
-13z m1074 -8 c38 -27 70 -100 62 -142 -3 -18 -17 -47 -30 -65 -62 -83 -168
-83 -237 -2 -21 26 -26 42 -26 89 0 53 3 61 38 99 38 41 41 42 101 42 47 0 70
-5 92 -21z"/>
<path d="M3005 4564 c-112 -58 -128 -184 -31 -257 33 -26 40 -27 161 -27 138
0 162 7 200 58 30 40 28 137 -3 177 -41 53 -75 64 -192 65 -76 0 -113 -4 -135
-16z"/>
<path d="M3020 4114 c-128 -47 -148 -186 -37 -268 39 -29 217 -36 281 -12 70
27 91 56 91 131 0 75 -20 109 -81 140 -54 26 -192 31 -254 9z"/>
<path d="M3020 3658 c-62 -17 -111 -83 -110 -147 1 -37 30 -91 63 -115 49 -36
243 -43 307 -11 14 7 36 25 50 40 21 23 25 36 25 90 0 59 -3 67 -34 99 -20 21
-50 38 -77 45 -52 13 -176 13 -224 -1z"/>
<path d="M3020 3201 c-38 -9 -55 -23 -84 -65 -34 -51 -34 -100 0 -153 35 -53
81 -75 175 -81 105 -6 179 16 216 65 24 31 28 46 28 98 0 54 -4 65 -31 94 -18
19 -46 36 -70 41 -43 11 -195 11 -234 1z"/>
</g>
</svg>
