<svg xmlns="http://www.w3.org/2000/svg" width="96" height="96" fill="none" viewBox="0 0 96 96" id="save">
  <path stroke="#12182B" stroke-width="5" d="M22 86H74C78.9706 86 83 81.9706 83 77V49.5V26.574C83 26.3402 82.9181 26.1138 82.7685 25.9341L69.7999 10.3601C69.6099 10.1319 69.3283 10 69.0314 10H22C17.0294 10 13 14.0294 13 19V77C13 81.9706 17.0294 86 22 86Z"></path>
  <path stroke="#12182B" stroke-width="5" d="M73 86V75.9487 56C73 54.8954 72.1046 54 71 54H25C23.8954 54 23 54.8954 23 56V86M62 10H25C23.8954 10 23 10.8954 23 12V30C23 31.1046 23.8954 32 25 32H62C63.1046 32 64 31.1046 64 30V25.0897 12C64 10.8954 63.1046 10 62 10z"></path>
  <path fill="#12182B" d="M58 15H55C54.4477 15 54 15.4477 54 16V26C54 26.5523 54.4477 27 55 27H58C58.5523 27 59 26.5523 59 26V23.2308V16C59 15.4477 58.5523 15 58 15Z"></path>
</svg>
