<svg xmlns="http://www.w3.org/2000/svg" viewBox="0 0 64 64" id="settings">
  <path d="M61.2 47h-.6c-.3-.9-.6-1.6-1-2.4l.4-.4c.7-.7.7-1.8 0-2.5L58.3 40c-.7-.7-1.8-.7-2.5 0l-.4.4c-.7-.4-1.5-.7-2.4-1v-.6c0-1-.8-1.8-1.8-1.8h-2.4c-1 0-1.8.8-1.8 1.8v.6c-.9.3-1.6.6-2.4 1l-.4-.4c-.7-.7-1.8-.7-2.5 0L40 41.7c-.7.7-.7 1.8 0 2.5l.4.4c-.4.7-.7 1.5-1 2.4h-.6c-1 0-1.8.8-1.8 1.8 0 .6.4 1 1 1 .5 0 .9-.3 1-.8h1.2c.5 0 .9-.3 1-.8.3-1.2.7-2.3 1.3-3.2.3-.4.2-.9-.1-1.3l-.8-.7 1.4-1.4.8.8c.3.3.9.4 1.3.1.9-.6 1.9-1.1 3.2-1.3.5-.1.8-.5.8-1V39h2v1.2c0 .5.3.9.8 1 1.2.3 2.3.7 3.2 1.3.4.3.9.2 1.3-.1l.8-.8 1.4 1.4-.8.8c-.3.3-.4.9-.1 1.3.6.9 1.1 1.9 1.3 3.2.1.5.5.8 1 .8h1v2h-1.2c-.5 0-.9.3-1 .8-.3 1.2-.7 2.3-1.3 3.2-.3.4-.2.9.1 1.3l.8.8-1.4 1.2-.8-.8c-.3-.3-.9-.4-1.3-.1-.9.6-1.9 1.1-3.2 1.3-.5.1-.8.5-.8 1V61h-2v-1.2c0-.5-.3-.9-.8-1-1.2-.3-2.3-.7-3.2-1.3-.4-.3-.9-.2-1.3.1l-.6.8-1.4-1.4.8-.8c.3-.3.4-.9.1-1.3-.6-.9-1.1-1.9-1.3-3.2-.1-.5-.5-.8-1-.8h-1.4c-.6 0-1 .4-1 1s.4 1 1 1h.6c.3.9.6 1.6 1 2.4l-.4.5c-.7.7-.7 1.8 0 2.5l1.7 1.7c.7.7 1.8.7 2.5 0l.4-.4c.7.4 1.5.7 2.4 1v.6c0 1 .8 1.8 1.8 1.8h2.4c1 0 1.8-.8 1.8-1.8v-.6c.9-.3 1.6-.6 2.4-1l.4.4c.7.7 1.8.7 2.5 0l1.7-1.7c.7-.7.7-1.8 0-2.5l-.4-.4c.4-.7.7-1.5 1-2.4h.6c1 0 1.8-.8 1.8-1.8v-2.4c0-1-.8-1.8-1.8-1.8z"></path>
  <path d="M50 51c-.4 0-.7-.2-.9-.5-.3-.5-.9-.6-1.4-.4-.5.3-.6.9-.4 1.4.5.9 1.5 1.5 2.6 1.5 1.7 0 3-1.3 3-3s-1.3-3-3-3c-.6 0-1 .4-1 1s.4 1 1 1 1 .4 1 1-.3 1-.9 1zm11.2-40h-.6c-.3-.9-.6-1.6-1-2.4l.4-.4c.7-.7.7-1.8 0-2.5L58.3 4c-.7-.7-1.8-.7-2.5 0l-.4.4c-.7-.4-1.5-.7-2.4-1v-.6c0-1.1-.7-1.8-1.8-1.8h-2.4c-1.1 0-1.8.7-1.8 1.8v.6c-.9.3-1.6.6-2.4 1l-.4-.4c-.7-.7-1.8-.7-2.5 0L40 5.7c-.7.7-.7 1.8 0 2.5l1 1c.4.4 1 .4 1.4 0s.4-1 0-1.4l-.8-.8L43 5.6l.8.8c.3.3.9.4 1.3.1.9-.6 1.9-1.1 3.2-1.3.5-.1.8-.5.8-1L49 3h2v1.2c0 .5.3.9.8 1 1.2.3 2.3.7 3.2 1.3.4.3.9.2 1.3-.1l.7-.8L58.4 7l-.8.8c-.3.3-.4.9-.1 1.3.6.9 1.1 1.9 1.3 3.2.1.5.5.8 1 .8H61v2h-1.2c-.5 0-.9.3-1 .8-.3 1.2-.7 2.3-1.3 3.2-.3.4-.2.9.1 1.3l.8.8-1.4 1.2-.8-.8c-.3-.3-.9-.4-1.3-.1-.9.6-1.9 1.1-3.2 1.3-.5.1-.8.5-.8 1V25h-2v-1.2c0-.5-.3-.9-.8-1-1.2-.3-2.3-.7-3.2-1.3-.4-.3-.9-.2-1.3.1l-.6.8-1.4-1.4.8-.8c.3-.3.4-.9.1-1.3-.6-.9-1.1-1.9-1.3-3.2-.1-.5-.5-.8-1-.8H39v-2h1.2c.6 0 1-.4 1-1s-.4-1-1-1h-1.4c-1 0-1.8.8-1.8 1.8v2.4c0 1 .8 1.8 1.8 1.8h.6c.3.9.6 1.6 1 2.4l-.4.5c-.7.7-.7 1.8 0 2.5l1.7 1.7c.7.7 1.8.7 2.5 0l.4-.4c.7.4 1.5.7 2.4 1v.6c0 1 .8 1.8 1.8 1.8h2.4c1 0 1.8-.8 1.8-1.8v-.6c.9-.3 1.6-.6 2.4-1l.4.4c.7.7 1.8.7 2.5 0l1.7-1.7c.7-.7.7-1.8 0-2.5l-.4-.4c.4-.7.7-1.5 1-2.4h.6c1 0 1.8-.8 1.8-1.8v-2.4c0-1-.8-1.8-1.8-1.8z"></path>
  <path d="M47 14c0 1.7 1.3 3 3 3s3-1.3 3-3-1.3-3-3-3-3 1.3-3 3zm3-1c.6 0 1 .4 1 1s-.4 1-1 1-1-.4-1-1 .4-1 1-1zM20 29c1.7 0 3 1.3 3 3 0 .6.4 1 1 1s1-.4 1-1c0-2.8-2.2-5-5-5s-5 2.2-5 5 2.2 5 5 5c.6 0 1-.4 1-1s-.4-1-1-1c-1.7 0-3-1.3-3-3s1.3-3 3-3z"></path>
  <path d="M39 34.2v-4.5c0-1.4-1.2-2.7-2.6-2.7h-2.9c-.6 0-1 .4-1 1s.4 1 1 1h2.9c.2 0 .6.3.6.7v4.5c0 .3-.4.7-.7.7h-2.9c-.4 0-.8.3-1 .7-.3.9-.6 1.7-1 2.5-.2.4-.1.9.2 1.2l2 2c.4.4.1.9 0 1l-3.2 3.2c-.3.3-.8.3-1.1 0l-2-2c-.3-.3-.8-.4-1.2-.1-.7.4-1.6.7-2.5 1-.4.1-.7.5-.7 1v2.9c0 .3-.4.7-.7.7h-4.5c-.3 0-.7-.4-.7-.7v-2.9c0-.4-.3-.8-.7-1-.9-.3-1.7-.6-2.5-1-.4-.2-.9-.1-1.2.2l-2 2c-.3.3-.8.3-1.1 0l-3.2-3.2c-.1-.1-.4-.5 0-1l2-2c.3-.3.4-.8.1-1.2-.5-.7-.7-1.6-1-2.5-.1-.4-.5-.7-1-.7H3.7s-.7.1-.7-.7v-4.5c0-.5.4-.8.7-.8h2.9c.4 0 .8-.3.9-.7.3-.9.6-1.7 1-2.5.2-.4.1-.9-.2-1.2l-2-2c-.2-.2-.2-.7 0-1l3.2-3.2c.3-.3.8-.3 1.1 0l2 2c.3.3.8.4 1.2.1.7-.5 1.6-.7 2.5-1 .4-.1.7-.5.7-1v-2.9c0-.3.4-.7.7-.7h4.5c.3 0 .7.4.7.7v2.9c0 .4.3.8.7.9.9.3 1.7.6 2.5 1 .4.2.9.1 1.2-.2l2-2c.3-.3.8-.3 1.1 0l3.2 3.2c.3.3.3.8 0 1.1l-.8.8c-.4.4-.4 1 0 1.4s1 .4 1.4 0l.8-.8c1.1-1.1 1.1-2.8 0-3.9l-3.2-3.2c-1.1-1.1-2.9-1.1-3.9 0l-1.5 1.5-1.5-.6v-2.2c0-1.5-1.2-2.7-2.7-2.7h-4.5c-1.5 0-2.7 1.2-2.7 2.7v2.2l-1.5.6-1.5-1.5c-1.1-1.1-2.9-1.1-3.9 0L5 20.1c-1.3 1.8-.8 3.1 0 4l1.5 1.5-.6 1.5H3.7C2.2 27 1 28.3 1 29.8v4.5c0 1.4.7 2.4 2.8 2.6h2l.6 1.5-1.5 1.5c-.9 1.1-1.4 2.4 0 4L8.1 47c1.1 1.1 2.9 1.1 3.9 0l1.5-1.5 1.5.6v2.2c0 1.5 1.2 2.7 2.7 2.7h4.5c1.5 0 2.7-1.2 2.7-2.7v-2.2l1.5-.6 1.5 1.5c1.1 1.1 2.9 1.1 3.9 0l3.2-3.2c1-.8 1.2-2.6 0-4l-1.5-1.5.6-1.5h2.2s2.4 0 2.7-2.6z"></path>
  <path d="M16.4 23.7c.5-.2 1.1-.4 1.7-.5.5-.1.9-.6.8-1.1s-.6-.9-1.1-.8c-.8.1-1.6.4-2.3.7-1.6.8-.5 2.6.9 1.7zm-3.8 1.5c-.4-.3-1.1-.3-1.4.2C9.7 27.3 9 29.5 9 32c0 3.4 1.6 6.7 4.4 8.8 1.1.8 2.2-1 1.2-1.6-2.3-1.7-3.6-4.4-3.6-7.2 0-2 .6-3.8 1.8-5.4.3-.4.2-1.1-.2-1.4zm44-8.9c.2-.7.4-1.5.4-2.3s-.1-1.6-.4-2.3c-.2-.5-.7-.8-1.3-.6-.5.2-.8.7-.6 1.3.2.5.2 1.1.2 1.7s-.1 1.2-.2 1.7c-.8 1.3 1.1 2.3 1.9.5zm-4.6-7c1 .4 1.9-1.4.3-2-.7-.2-1.5-.3-2.3-.3-.6 0-1 .4-1 1s.4 1 1 1 1.8.2 2 .3zm-4.9 46.1c-.2.5.1 1.1.6 1.3.7.2 1.5.4 2.3.4.6 0 1-.4 1-1s-.4-1-1-1-1.2-.1-1.7-.2c-.5-.3-1.1 0-1.2.5zm8.2-.8c1.1-1.4 1.7-3 1.7-4.6 0-.8-.1-1.6-.4-2.3-.2-.5-.7-.8-1.3-.6-.5.2-.8.7-.6 1.3.2.5.2 1.1.2 1.7 0 1.2-.5 2.4-1.3 3.4-1.2 1.3.9 2.4 1.7 1.1z"></path>
</svg>
