<svg xmlns="http://www.w3.org/2000/svg" width="16" height="16" id="setting">
  <path d="M7.98 1038.267h.974c.258 0 .45.19.45.449v1.159c.001.21.141.394.343.45.35.098.688.238 1.006.414.183.101.41.07.558-.079l.815-.815a.44.44 0 0 1 .638 0l.688.689a.44.44 0 0 1 0 .637l-.82.819a.469.469 0 0 0-.075.562c.178.316.319.652.42 1.002.057.2.242.34.452.338h1.152a.44.44 0 0 1 .45.45v.975a.44.44 0 0 1-.45.45h-1.158c-.21 0-.395.14-.452.343-.098.35-.236.687-.412 1.005a.469.469 0 0 0 .078.559l.815.815a.44.44 0 0 1 0 .637l-.688.689a.44.44 0 0 1-.638 0l-.818-.819a.469.469 0 0 0-.563-.077 4.688 4.688 0 0 1-1.001.42.469.469 0 0 0-.34.45v1.154a.44.44 0 0 1-.45.45H7.98a.44.44 0 0 1-.45-.45v-1.158c-.001-.21-.141-.394-.343-.45a4.679 4.679 0 0 1-1.006-.412.47.47 0 0 0-.558.077l-.815.815a.44.44 0 0 1-.638 0l-.688-.69a.437.437 0 0 1 0-.636l.817-.817a.469.469 0 0 0 .078-.56 4.687 4.687 0 0 1-.417-1.004.469.469 0 0 0-.453-.34H2.354a.44.44 0 0 1-.45-.451v-.974a.44.44 0 0 1 .45-.453H3.51c.21.001.395-.138.453-.34.098-.35.235-.688.412-1.005a.469.469 0 0 0-.08-.56l-.814-.814a.44.44 0 0 1 0-.637l.688-.689a.44.44 0 0 1 .638 0l.818.819c.149.148.378.18.56.077a4.689 4.689 0 0 1 1.003-.42.469.469 0 0 0 .34-.45v-1.156c0-.258.193-.448.45-.448zm.487 3.75a2.82 2.82 0 0 0-2.813 2.813 2.82 2.82 0 0 0 2.813 2.813 2.822 2.822 0 0 0 2.815-2.813 2.822 2.822 0 0 0-2.815-2.813zm0 .938c1.041 0 1.876.834 1.876 1.875a1.868 1.868 0 0 1-1.876 1.875 1.868 1.868 0 0 1-1.875-1.875c0-1.041.834-1.875 1.875-1.875z" color="#000" font-family="sans-serif" font-weight="400" overflow="visible" style="line-height:normal;text-indent:0;text-align:start;text-decoration-line:none;text-decoration-style:solid;text-decoration-color:#000;text-transform:none;block-progression:tb;isolation:auto;mix-blend-mode:normal" transform="translate(-1.03 -1106.225)scale(1.06642)"></path>
</svg>
