<?xml version="1.0" standalone="no"?>
<!DOCTYPE svg PUBLIC "-//W3C//DTD SVG 20010904//EN"
 "http://www.w3.org/TR/2001/REC-SVG-20010904/DTD/svg10.dtd">
<svg version="1.0" xmlns="http://www.w3.org/2000/svg"
 width="861.000000pt" height="837.000000pt" viewBox="0 0 861.000000 837.000000"
 preserveAspectRatio="xMidYMid meet">
<g transform="translate(0.000000,837.000000) scale(0.100000,-0.100000)"
fill="#000000" stroke="none">
<path d="M3755 6356 c-98 -20 -211 -80 -278 -148 l-58 -60 -159 -3 c-136 -3
-164 -7 -199 -24 -64 -33 -111 -80 -136 -138 l-24 -53 -275 0 c-309 0 -331 -4
-420 -70 -71 -52 -93 -81 -121 -162 -22 -63 -22 -3797 -1 -3869 21 -69 40 -99
88 -145 65 -61 71 -64 155 -85 76 -18 139 -19 2169 -19 1950 1 2093 2 2125 18
18 9 44 32 56 51 l23 34 0 544 c0 582 1 572 -50 618 -21 19 -40 20 -279 25
l-256 5 -5 540 c-5 522 -6 541 -25 568 -33 45 -82 56 -247 57 l-148 0 -2 818
-3 817 -27 56 c-32 63 -56 92 -113 136 -77 58 -110 63 -415 63 l-277 0 -32 65
c-31 63 -58 90 -129 128 -28 15 -63 19 -193 21 l-160 4 -62 60 c-139 133 -328
186 -522 148z m248 -117 c89 -29 144 -64 208 -132 68 -71 87 -77 264 -76 77 1
142 -4 160 -11 44 -17 84 -59 95 -99 12 -43 13 -271 2 -289 -7 -10 -184 -12
-851 -12 -463 0 -847 2 -852 5 -5 4 -9 72 -9 153 0 159 5 177 60 220 40 31 68
36 216 33 77 -1 152 3 167 8 14 6 57 41 94 79 127 128 291 173 446 121z
m-1103 -519 c0 -64 -4 -92 -12 -95 -7 -2 -110 -6 -228 -8 -135 -2 -225 -7
-242 -15 l-28 -12 0 -1823 0 -1824 21 -19 c20 -18 52 -19 917 -21 716 -2 897
-5 904 -15 4 -7 8 -50 8 -95 0 -77 -1 -83 -22 -88 -13 -3 -441 -4 -953 -3
-1010 3 -941 -1 -1009 58 -16 14 -39 48 -52 75 l-24 50 0 1872 0 1872 26 55
c25 53 45 77 94 109 22 14 64 16 313 16 l287 1 0 -90z m2559 68 c49 -29 77
-62 96 -112 14 -36 15 -135 13 -836 l-3 -795 -95 0 -95 0 -5 765 c-3 421 -9
771 -13 777 -15 24 -84 32 -282 33 -120 0 -204 5 -210 11 -10 10 -17 157 -8
172 2 4 131 7 285 7 270 0 282 -1 317 -22z m-214 -302 c8 -10 11 -224 11 -728
l-1 -713 -165 -5 c-131 -4 -172 -9 -197 -23 -65 -35 -63 -22 -64 -606 0 -466
-2 -530 -15 -535 -9 -3 -123 -6 -255 -6 l-239 0 -38 -34 -37 -34 -3 -382 c-3
-364 -4 -381 -22 -388 -10 -4 -399 -6 -864 -4 l-846 2 0 1734 c0 1616 1 1735
17 1738 9 2 622 2 1362 1 1184 -1 1346 -3 1356 -17z m10 -1576 c3 -5 7 -116 8
-245 3 -300 -12 -279 195 -283 141 -3 149 -2 182 20 l35 24 5 244 5 245 155 0
155 0 0 -520 0 -520 -262 -5 c-145 -3 -381 -3 -525 0 l-263 5 -3 510 c-1 281
0 516 3 523 6 15 300 18 310 2z m306 -2 c2 -52 -3 -393 -6 -397 -9 -9 -151 -7
-162 2 -10 7 -13 60 -13 202 0 105 3 195 7 198 3 4 44 7 90 7 59 0 83 -4 84
-12z m289 -1408 c3 -135 7 -246 8 -247 30 -33 280 -46 357 -20 l40 14 5 249 5
249 160 0 160 0 0 -520 0 -520 -525 0 -525 0 -3 515 c-2 424 0 517 11 525 9 6
69 8 158 5 l144 -5 5 -245z m-1173 12 c1 -128 4 -240 7 -248 12 -31 69 -43
203 -43 102 0 137 4 164 17 l34 17 5 245 5 245 158 3 c86 1 157 -1 157 -5 3
-350 -1 -1026 -5 -1033 -9 -15 -1032 -13 -1041 2 -5 8 -9 931 -4 1031 0 4 71
6 158 5 l157 -3 2 -233z m298 36 c0 -108 -3 -200 -7 -204 -10 -9 -138 -11
-160 -2 -16 7 -18 26 -18 201 0 107 3 197 7 201 4 4 46 5 93 4 l85 -3 0 -197z
m1172 7 c2 -109 -1 -196 -7 -205 -13 -21 -157 -20 -171 1 -10 16 -12 382 -2
393 4 4 46 5 93 4 l85 -3 2 -190z"/>
<path d="M3445 5276 c-26 -8 -47 -23 -62 -45 -23 -34 -23 -34 -23 -447 0 -489
-1 -484 84 -509 44 -13 119 -15 457 -13 286 2 412 7 431 15 57 26 58 32 58
500 0 399 -1 430 -19 458 -11 20 -32 35 -56 42 -54 17 -814 16 -870 -1z m229
-105 c24 -10 24 -12 28 -144 4 -182 -1 -177 174 -177 177 0 174 -3 174 171 0
162 -1 160 118 152 48 -3 93 -10 100 -16 9 -7 12 -95 12 -381 0 -204 -4 -377
-9 -385 -8 -12 -69 -14 -388 -13 -208 1 -384 2 -391 2 -10 0 -12 82 -10 393
l3 392 70 6 c39 3 75 6 82 7 6 1 23 -2 37 -7z m245 0 c9 -6 15 -36 18 -93 5
-99 -2 -111 -69 -106 l-43 3 0 95 0 95 30 6 c44 10 49 10 64 0z"/>
<path d="M3169 4042 c-8 -4 -57 -53 -108 -109 -51 -57 -100 -103 -109 -103
-10 1 -33 14 -52 30 -19 17 -46 30 -61 30 -35 0 -63 -32 -55 -63 8 -33 147
-147 179 -147 21 0 286 277 294 308 10 42 -42 74 -88 54z"/>
<path d="M3435 4033 c-52 -13 -72 -65 -37 -97 17 -15 69 -16 582 -14 l563 3
19 25 c24 32 16 54 -27 74 -29 14 -99 16 -557 15 -287 -1 -532 -4 -543 -6z"/>
<path d="M3420 3807 c-29 -10 -36 -18 -38 -43 -6 -60 -20 -59 547 -61 284 -1
540 0 569 4 41 4 57 11 68 29 21 32 4 61 -44 73 -56 15 -1057 13 -1102 -2z"/>
<path d="M3131 3522 c-25 -27 -72 -76 -104 -110 -33 -34 -66 -62 -75 -62 -10
1 -33 14 -52 30 -40 35 -72 38 -100 10 -38 -38 -27 -57 93 -157 65 -55 80 -49
198 78 153 164 159 171 166 198 4 18 0 29 -17 43 -35 28 -60 22 -109 -30z"/>
<path d="M3433 3553 c-49 -10 -73 -74 -38 -103 8 -7 199 -9 586 -8 l573 3 16
27 c14 26 14 29 -13 55 l-27 28 -538 1 c-295 1 -547 0 -559 -3z"/>
<path d="M3420 3327 c-32 -11 -35 -15 -35 -52 l0 -40 50 -7 c28 -4 287 -6 577
-5 l527 2 23 22 c31 31 13 68 -39 82 -56 15 -1057 13 -1103 -2z"/>
<path d="M3109 3018 c-80 -93 -145 -158 -158 -158 -6 0 -28 16 -50 35 -45 41
-69 44 -99 12 -36 -38 -28 -57 53 -127 99 -85 110 -83 221 33 141 146 184 198
184 217 0 28 -28 50 -64 50 -28 0 -41 -10 -87 -62z"/>
<path d="M3420 3057 c-29 -10 -36 -18 -38 -43 -6 -57 4 -59 288 -61 149 -1
272 2 293 8 69 19 68 80 -2 99 -54 14 -495 12 -541 -3z"/>
<path d="M3445 2845 c-5 -2 -23 -6 -38 -9 -25 -6 -28 -10 -25 -43 5 -58 37
-64 317 -62 268 1 304 8 309 56 6 56 -4 58 -292 59 -144 1 -265 1 -271 -1z"/>
<path d="M3069 2490 c-57 -61 -109 -110 -115 -110 -6 0 -28 14 -49 30 -42 34
-70 37 -103 14 -38 -27 -25 -58 49 -119 110 -91 116 -90 223 23 199 209 204
216 171 252 -37 41 -64 28 -176 -90z"/>
<path d="M3420 2577 c-32 -11 -35 -15 -35 -51 0 -34 4 -41 25 -46 43 -11 519
-11 562 0 37 11 39 13 36 48 -3 32 -7 38 -38 48 -49 17 -503 17 -550 1z"/>
<path d="M3435 2362 c-40 -5 -55 -19 -55 -52 0 -53 10 -55 301 -58 229 -3 272
-1 298 13 24 12 31 22 31 44 0 54 -10 56 -289 57 -141 0 -269 -1 -286 -4z"/>
</g>
</svg>
