<?xml version="1.0" standalone="no"?>
<!DOCTYPE svg PUBLIC "-//W3C//DTD SVG 20010904//EN"
 "http://www.w3.org/TR/2001/REC-SVG-20010904/DTD/svg10.dtd">
<svg version="1.0" xmlns="http://www.w3.org/2000/svg"
 width="303.000000pt" height="314.000000pt" viewBox="0 0 303.000000 314.000000"
 preserveAspectRatio="xMidYMid meet">
<g transform="translate(0.000000,314.000000) scale(0.050000,-0.050000)"
fill="#000000" stroke="none">
<path d="M1953 4592 c-250 -70 -333 -230 -333 -638 1 -519 149 -670 658 -673
428 -3 611 109 664 404 l25 135 406 0 c254 0 423 -8 454 -22 92 -42 122 -180
54 -253 -48 -51 53 -23 -965 -273 -470 -116 -884 -225 -920 -244 -276 -139
-332 -468 -118 -689 131 -136 153 -139 915 -139 l662 0 82 -126 c211 -324 419
-350 620 -77 284 386 325 699 123 930 -322 366 -901 176 -935 -308 l-10 -138
-557 -5 c-703 -7 -758 5 -758 167 0 123 24 132 970 365 564 139 914 235 974
267 375 200 254 762 -174 813 -44 5 -248 10 -454 11 l-374 1 -13 95 c-28 196
-107 312 -259 378 -107 46 -595 59 -737 19z m207 -335 c0 -102 44 -157 127
-157 90 0 133 50 133 156 l0 89 92 -10 c125 -14 144 -40 171 -228 29 -206 0
-433 -62 -495 -63 -63 -598 -64 -660 -2 -114 114 -100 645 19 704 113 57 180
35 180 -57z m1839 -1443 c194 -97 165 -388 -65 -661 l-65 -77 -84 120 c-159
226 -201 373 -145 500 58 129 228 185 359 118z"/>
</g>
</svg>
