<?xml version="1.0" standalone="no"?>
<!DOCTYPE svg PUBLIC "-//W3C//DTD SVG 20010904//EN"
 "http://www.w3.org/TR/2001/REC-SVG-20010904/DTD/svg10.dtd">
<svg version="1.0" xmlns="http://www.w3.org/2000/svg"
 width="309.000000pt" height="291.000000pt" viewBox="0 0 309.000000 291.000000"
 preserveAspectRatio="xMidYMid meet">
<g transform="translate(0.000000,291.000000) scale(0.100000,-0.100000)"
fill="#000000" stroke="none">
<path d="M2540 2570 c-19 -3 -46 -12 -60 -20 -14 -7 -222 -209 -463 -449 -240
-240 -443 -437 -451 -439 -7 -2 -212 195 -455 436 -243 242 -457 447 -475 456
-39 18 -131 21 -173 5 -72 -27 -116 -98 -117 -186 0 -50 5 -69 27 -101 14 -22
220 -234 457 -470 236 -237 430 -434 430 -439 0 -18 -31 -50 -448 -468 -236
-236 -438 -446 -448 -465 -11 -23 -18 -57 -18 -98 0 -53 5 -68 30 -104 42 -60
95 -88 168 -88 42 0 69 6 95 21 20 12 232 217 471 455 277 276 443 434 455
434 13 0 178 -159 458 -439 240 -241 453 -446 471 -455 19 -9 58 -16 87 -16
73 0 130 30 168 87 27 40 31 55 31 113 0 58 -4 72 -30 108 -16 22 -219 229
-450 459 -232 230 -423 429 -427 442 -5 20 51 80 435 465 242 242 447 456 457
474 17 35 22 114 10 154 -28 88 -135 147 -235 128z"/>
</g>
</svg>
